<svg width="74" height="18" viewBox="0 0 74 18" fill="none" xmlns="http://www.w3.org/2000/svg">
<path d="M0.000244141 16.7446C0.63227 16.7036 1.08782 16.6133 1.3669 16.4737C1.85939 16.2193 2.10563 15.7555 2.10563 15.0824V2.64712C2.10563 1.99868 1.8717 1.54723 1.40383 1.29278C1.13297 1.14503 0.665103 1.04243 0.000244141 0.984976V0.344742H7.70768C10.8186 0.344742 13.1907 1.17376 14.8241 2.83181C16.3098 4.3421 17.0526 6.36951 17.0526 8.91403C17.0526 11.1959 16.3057 13.1289 14.8118 14.7131C13.1292 16.4942 10.8473 17.3848 7.96624 17.3848H0.000244141V16.7446ZM6.18097 15.0578C6.20559 15.5749 6.29999 15.9484 6.46415 16.1782C6.63652 16.4081 6.99768 16.523 7.54762 16.523C9.0415 16.523 10.2686 15.9977 11.229 14.947C12.1893 13.8882 12.6695 11.8608 12.6695 8.86478C12.6695 7.08362 12.4109 5.5528 11.8938 4.27233C11.0566 2.21209 9.6448 1.18197 7.65843 1.18197C7.00178 1.18197 6.57496 1.32151 6.37796 1.60059C6.24663 1.78116 6.18097 2.13001 6.18097 2.64712V15.0578Z" fill="white"/>
<path d="M18.4316 11.6104C18.4316 9.85386 18.9692 8.38871 20.0445 7.21495C21.128 6.04119 22.4864 5.4543 24.1198 5.4543C25.7861 5.4543 27.1486 6.0535 28.2075 7.25189C29.2745 8.45027 29.8081 9.90311 29.8081 11.6104C29.8081 13.2931 29.2828 14.7418 28.2321 15.9566C27.1815 17.1632 25.8107 17.7665 24.1198 17.7665C22.4782 17.7665 21.1198 17.1796 20.0445 16.0059C18.9692 14.8239 18.4316 13.3587 18.4316 11.6104ZM22.1376 11.6104C22.1376 13.3752 22.2279 14.6105 22.4084 15.3164C22.6957 16.4081 23.2662 16.9539 24.1198 16.9539C24.9324 16.9539 25.466 16.5353 25.7204 15.6981C25.9749 14.8608 26.1021 13.4983 26.1021 11.6104C26.1021 9.73074 25.9667 8.3723 25.6958 7.53507C25.4331 6.68963 24.9119 6.26691 24.1322 6.26691C23.2785 6.26691 22.708 6.81275 22.4208 7.90443C22.232 8.63496 22.1376 9.87028 22.1376 11.6104Z" fill="white"/>
<path d="M30.9408 16.7815C31.4251 16.7241 31.7616 16.6092 31.9504 16.4368C32.1392 16.2644 32.2418 15.932 32.2582 15.4395L32.2828 14.7008V7.84287C32.2828 7.31755 32.1925 6.9605 32.012 6.77171C31.8314 6.58292 31.4743 6.4557 30.9408 6.39003V5.77442H35.7302V7.75669C36.2638 7.05899 36.7932 6.50495 37.3185 6.09454C37.8438 5.68413 38.4512 5.47893 39.1407 5.47893C39.6578 5.47893 40.1216 5.6472 40.532 5.98373C40.9506 6.31205 41.1599 6.79633 41.1599 7.43657C41.1599 7.92906 41.0122 8.33536 40.7167 8.65548C40.4294 8.97559 40.0518 9.13565 39.584 9.13565C39.0504 9.13565 38.5867 8.8853 38.1927 8.38461C37.8069 7.88391 37.536 7.63356 37.3801 7.63356C37.0435 7.63356 36.7029 7.84287 36.3582 8.26149C36.0216 8.67189 35.8534 9.26288 35.8534 10.0344V14.7993C35.8534 15.6365 35.9724 16.1618 36.2104 16.3752C36.4567 16.5804 36.9409 16.7159 37.6633 16.7815V17.3848H30.9408V16.7815Z" fill="white"/>
<path d="M42.0341 16.7815C42.5512 16.7405 42.9206 16.6256 43.1422 16.4368C43.372 16.248 43.4869 15.854 43.4869 15.2548V7.05489H42.0341V5.94679H43.4869V5.01107C43.4869 3.8373 43.6716 2.87285 44.041 2.1177C44.7387 0.705899 46.0273 0 47.907 0C48.9084 0 49.7538 0.229828 50.4433 0.689483C51.141 1.14093 51.4899 1.74012 51.4899 2.48706C51.4899 2.95493 51.3421 3.3325 51.0466 3.61979C50.7593 3.90707 50.3736 4.05071 49.8893 4.05071C49.4871 4.05071 49.1423 3.91938 48.855 3.65672C48.5678 3.39406 48.4241 3.07805 48.4241 2.70868C48.4241 2.42961 48.5144 2.13822 48.695 1.83452C48.8838 1.52261 48.9782 1.33382 48.9782 1.26816C48.9782 1.06295 48.9043 0.931623 48.7565 0.874166C48.6088 0.816709 48.4487 0.787981 48.2764 0.787981C47.866 0.787981 47.55 0.906999 47.3283 1.14503C47.1067 1.38307 46.9959 1.89608 46.9959 2.68406V5.94679H49.1875V7.05489H46.9959V14.7993C46.9959 15.6693 47.119 16.2029 47.3653 16.3998C47.6197 16.5968 48.1779 16.7241 49.0397 16.7815V17.3848H42.0341V16.7815Z" fill="white"/>
<path d="M55.2451 5.77442V14.3314C55.2451 14.8403 55.3066 15.2138 55.4298 15.4518C55.6432 15.8704 56.0659 16.0797 56.6979 16.0797C57.1001 16.0797 57.4941 15.9525 57.8799 15.6981C58.1015 15.5585 58.3806 15.3246 58.7171 14.9963V7.84287C58.7171 7.31755 58.6104 6.95229 58.397 6.74709C58.1918 6.53367 57.7732 6.41466 57.1412 6.39003V5.77442H62.1645V14.8485C62.1645 15.3738 62.263 15.7391 62.46 15.9443C62.657 16.1413 63.0428 16.2644 63.6174 16.3137V16.8923C62.0578 17.0401 61.0729 17.1509 60.6624 17.2248C60.2602 17.2904 59.6118 17.4628 58.7171 17.7419V16.0797C58.1179 16.5968 57.6213 16.9621 57.2273 17.1755C56.5379 17.5531 55.8196 17.7419 55.0727 17.7419C54.2601 17.7419 53.5009 17.4833 52.795 16.9662C52.0973 16.4491 51.7484 15.5298 51.7484 14.2083V7.84287C51.7484 7.30934 51.6622 6.9605 51.4899 6.79633C51.3175 6.63217 50.9851 6.49674 50.4926 6.39003V5.77442H55.2451Z" fill="white"/>
<path d="M64.7624 13.568H65.4642C65.7104 14.7746 66.1701 15.6283 66.8432 16.129C67.5162 16.6215 68.2057 16.8677 68.9116 16.8677C69.5601 16.8677 70.0361 16.7241 70.3398 16.4368C70.6435 16.1413 70.7954 15.7555 70.7954 15.2794C70.7954 14.828 70.6312 14.4422 70.3029 14.1221C70.1223 13.9497 69.8309 13.765 69.4287 13.568L67.5573 12.6569C66.5723 12.1727 65.8664 11.6473 65.4396 11.081C65.0045 10.5146 64.787 9.84566 64.787 9.07409C64.787 8.09732 65.1277 7.25599 65.8089 6.55009C66.4902 5.83598 67.4424 5.47893 68.6654 5.47893C69.1989 5.47893 69.7653 5.56922 70.3645 5.7498C70.9637 5.92217 71.3371 6.00835 71.4849 6.00835C71.6901 6.00835 71.8337 5.96731 71.9158 5.88523C72.0061 5.79494 72.08 5.67182 72.1374 5.51587H72.6915V9.16028H72.0512C71.8132 8.30663 71.4233 7.62125 70.8816 7.10414C70.3398 6.58703 69.7078 6.32847 68.9855 6.32847C68.4273 6.32847 68.0087 6.48443 67.7296 6.79633C67.4588 7.10824 67.3233 7.44478 67.3233 7.80593C67.3233 8.10143 67.4465 8.39692 67.6927 8.69241C67.9307 8.99611 68.3822 9.30802 69.0471 9.62814L70.426 10.293C71.2797 10.7034 71.9035 11.1015 72.2975 11.4873C72.9541 12.1439 73.2824 12.9524 73.2824 13.9128C73.2824 14.8485 72.9418 15.7227 72.2605 16.5353C71.5875 17.3397 70.5738 17.7419 69.2194 17.7419C68.8829 17.7419 68.5423 17.7049 68.1975 17.6311C67.861 17.5654 67.4424 17.4464 66.9417 17.274L66.5107 17.1263C66.3548 17.0688 66.2563 17.036 66.2152 17.0278C66.1824 17.0196 66.1373 17.0155 66.0798 17.0155C65.9403 17.0155 65.8172 17.0729 65.7104 17.1878C65.6119 17.2945 65.497 17.4792 65.3657 17.7419H64.7624V13.568Z" fill="white"/>
</svg>
