<svg width="100" height="26" viewBox="0 0 100 26" fill="none" xmlns="http://www.w3.org/2000/svg">
<path fill-rule="evenodd" clip-rule="evenodd" d="M0 11.4873V16.074L13.0551 5.28472V0.697998L0 11.4873Z" fill="white"/>
<path fill-rule="evenodd" clip-rule="evenodd" d="M0 20.4808V25.0674L13.0551 14.2781V9.69141L0 20.4808Z" fill="white"/>
<path fill-rule="evenodd" clip-rule="evenodd" d="M5.80322 11.487V16.0737L18.8583 5.28447V0.697754L5.80322 11.487Z" fill="white"/>
<path fill-rule="evenodd" clip-rule="evenodd" d="M5.80322 20.4808V25.0674L18.8583 14.2781V9.69141L5.80322 20.4808Z" fill="white"/>
<path d="M34.0607 16.3401C34.8398 16.3401 35.6331 16.2657 36.4406 16.117C37.248 15.9682 38.0802 15.7451 38.9373 15.4477V10.3693L39.2772 10.0718L40.5415 9.96555V8.8925H34.1882V9.96555L35.8031 10.0718L36.1431 10.3693V14.8102C35.8739 14.8315 35.6366 14.8474 35.4312 14.858C35.2258 14.8686 35.0665 14.8739 34.9532 14.8739C33.2604 14.8739 31.9376 14.3268 30.985 13.2325C30.0324 12.1382 29.556 10.6207 29.556 8.68001C29.556 6.7889 30.0217 5.30327 30.9531 4.22314C31.8845 3.14301 33.1647 2.60294 34.7938 2.60294C35.1196 2.60294 35.4312 2.63127 35.7287 2.68793C36.0262 2.7446 36.3166 2.83313 36.5999 2.95354L36.9293 3.34664L37.3436 5.6521H38.9373V1.95486C38.1298 1.71405 37.3418 1.53343 36.5734 1.41303C35.8049 1.29262 35.0594 1.23241 34.3369 1.23241C31.943 1.23241 30.0217 1.91059 28.5733 3.26696C27.1249 4.62332 26.4006 6.42767 26.4006 8.68001C26.4006 10.9536 27.1089 12.7987 28.5255 14.2152C29.9421 15.6318 31.7871 16.3401 34.0607 16.3401ZM46.5201 16.2445C48.22 16.2445 49.5835 15.7487 50.6105 14.7571C51.6375 13.7655 52.151 12.4552 52.151 10.8261C52.151 9.10498 51.6587 7.73977 50.6742 6.73046C49.6897 5.72116 48.3617 5.21651 46.6901 5.21651C44.9902 5.21651 43.6268 5.7247 42.5998 6.74109C41.5728 7.75747 41.0593 9.10498 41.0593 10.7836C41.0593 12.4197 41.5604 13.7389 42.5626 14.7411C43.5648 15.7434 44.884 16.2445 46.5201 16.2445ZM46.5839 15.0971C45.7977 15.0971 45.1832 14.711 44.7406 13.939C44.2979 13.167 44.0766 12.0869 44.0766 10.6986C44.0766 9.33163 44.2997 8.26921 44.7459 7.51134C45.1921 6.75348 45.8118 6.37455 46.6051 6.37455C47.4055 6.37455 48.0305 6.76056 48.4803 7.53259C48.9301 8.30462 49.1549 9.38121 49.1549 10.7624C49.1549 12.1506 48.9318 13.2201 48.4856 13.9709C48.0394 14.7217 47.4055 15.0971 46.5839 15.0971ZM56.8547 16.0745C57.7117 16.0745 58.443 16.0338 59.0486 15.9523C59.6542 15.8709 60.1553 15.7451 60.5519 15.5751C61.671 15.0723 62.5227 14.3622 63.1071 13.445C63.6914 12.5278 63.9836 11.4388 63.9836 10.178C63.9836 8.72605 63.5834 7.53968 62.783 6.61891C61.9827 5.69814 60.9557 5.23775 59.702 5.23775C59.2274 5.23775 58.7316 5.31744 58.2146 5.4768C57.6975 5.63616 57.1415 5.88229 56.5466 6.21519V0H55.5054L52.2756 1.01993V1.86987H53.848V16.032L56.2597 16.0745H56.8547ZM57.2372 14.9164C57.053 14.9164 56.9114 14.9147 56.8122 14.9111C56.713 14.9076 56.6245 14.9023 56.5466 14.8952V7.10762C56.8299 7.05096 57.0831 7.00846 57.3062 6.98013C57.5293 6.9518 57.733 6.93763 57.9171 6.93763C58.93 6.93763 59.7091 7.26522 60.2545 7.92038C60.7998 8.57554 61.0725 9.51579 61.0725 10.7411C61.0725 12.1718 60.7626 13.2254 60.1429 13.9018C59.5232 14.5782 58.5546 14.9164 57.2372 14.9164ZM70.1853 16.2445C71.8852 16.2445 73.2486 15.7487 74.2756 14.7571C75.3026 13.7655 75.8161 12.4552 75.8161 10.8261C75.8161 9.10498 75.3239 7.73977 74.3394 6.73046C73.3549 5.72116 72.0268 5.21651 70.3553 5.21651C68.6554 5.21651 67.292 5.7247 66.2649 6.74109C65.2379 7.75747 64.7244 9.10498 64.7244 10.7836C64.7244 12.4197 65.2255 13.7389 66.2278 14.7411C67.23 15.7434 68.5492 16.2445 70.1853 16.2445ZM70.249 15.0971C69.4628 15.0971 68.8484 14.711 68.4057 13.939C67.9631 13.167 67.7417 12.0869 67.7417 10.6986C67.7417 9.33163 67.9648 8.26921 68.411 7.51134C68.8573 6.75348 69.477 6.37455 70.2703 6.37455C71.0706 6.37455 71.6957 6.76056 72.1455 7.53259C72.5952 8.30462 72.8201 9.38121 72.8201 10.7624C72.8201 12.1506 72.597 13.2201 72.1508 13.9709C71.7046 14.7217 71.0706 15.0971 70.249 15.0971ZM81.7948 16.0745V15.0971L80.8386 15.0121L80.5411 14.6827V7.50072C80.9661 7.38031 81.3503 7.28823 81.6938 7.22449C82.0374 7.16074 82.3401 7.12887 82.6022 7.12887C83.2822 7.12887 83.778 7.31834 84.0896 7.69727C84.4012 8.0762 84.5571 8.66939 84.5571 9.47683V14.6827L84.2596 15.0121L83.3247 15.0971V16.0745H88.6474V15.0971L87.5 15.0121L87.2131 14.6827V8.85C87.2131 7.63175 86.9688 6.72515 86.4801 6.13019C85.9913 5.53523 85.2512 5.23775 84.2596 5.23775C83.8134 5.23775 83.2892 5.344 82.6872 5.55648C82.0852 5.76897 81.3698 6.1054 80.5411 6.56579V5.28025H79.4893L76.3551 6.30018V7.17137H77.8425V14.6827L77.5344 15.0121L76.4189 15.0971V16.0745H81.7948ZM91.9062 16.2657C92.4587 16.2657 93.0359 16.1524 93.638 15.9257C94.24 15.6991 94.9093 15.3343 95.646 14.8315L95.9328 16.0745H99.8107V15.1183L98.6526 15.0121L98.3658 14.704V9.07311C98.3658 7.64946 98.0612 6.65078 97.4521 6.07707C96.843 5.50336 95.7912 5.21651 94.2967 5.21651C92.9651 5.21651 91.8425 5.46795 90.9288 5.97083C90.0151 6.47371 89.5583 7.06513 89.5583 7.74508C89.5583 8.02131 89.6379 8.22317 89.7973 8.35066C89.9567 8.47815 90.2099 8.5419 90.5569 8.5419H92.5649V6.50204C92.7632 6.45954 92.9474 6.42767 93.1174 6.40642C93.2874 6.38517 93.4503 6.37455 93.6061 6.37455C94.3215 6.37455 94.8456 6.55516 95.1785 6.91639C95.5114 7.27761 95.6778 7.85132 95.6778 8.63751V9.28559C92.8234 9.93013 91.0067 10.5286 90.2276 11.0811C89.4485 11.6336 89.0589 12.4197 89.0589 13.4397C89.0589 14.2684 89.3245 14.9465 89.8557 15.4742C90.387 16.0019 91.0704 16.2657 91.9062 16.2657ZM93.5424 14.5977C93.0466 14.5977 92.6535 14.4507 92.3631 14.1568C92.0727 13.8629 91.9275 13.4645 91.9275 12.9616C91.9275 12.317 92.1895 11.8071 92.7137 11.4317C93.2378 11.0563 94.2152 10.7092 95.646 10.3905V13.939C95.221 14.1586 94.8332 14.3233 94.4826 14.433C94.132 14.5428 93.8186 14.5977 93.5424 14.5977Z" fill="white"/>
<path d="M28.9711 23.9076V23.6577L28.5576 23.6279L28.4594 23.5417V22.1703L29.7267 20.1415L30.0985 20.0641V19.8202H28.8551V20.0641L29.2269 20.1296L29.2834 20.2159L28.2601 21.8431L27.326 20.1683L27.3885 20.0998L27.7366 20.0641V19.8202H26.3206V20.0641L26.6924 20.1236L27.9061 22.2506V23.5417L27.808 23.6279L27.3945 23.6577V23.9076H28.9711ZM30.8236 23.9611C31.2361 23.9611 31.5757 23.8188 31.8425 23.5342C32.1092 23.2496 32.2426 22.8842 32.2426 22.438C32.2426 21.9918 32.1097 21.6264 31.8439 21.3418C31.5782 21.0572 31.2381 20.9149 30.8236 20.9149C30.4071 20.9149 30.0675 21.0567 29.8047 21.3403C29.542 21.6239 29.4106 21.9898 29.4106 22.438C29.4106 22.8862 29.5429 23.2521 29.8077 23.5357C30.0725 23.8193 30.4111 23.9611 30.8236 23.9611ZM30.8236 23.6993C30.5717 23.6993 30.3685 23.5848 30.2138 23.3557C30.0591 23.1267 29.9817 22.8208 29.9817 22.438C29.9817 22.0553 30.0586 21.7494 30.2123 21.5203C30.366 21.2912 30.5697 21.1767 30.8236 21.1767C31.0774 21.1767 31.2822 21.2917 31.4379 21.5218C31.5936 21.7518 31.6714 22.0572 31.6714 22.438C31.6714 22.8228 31.5941 23.1292 31.4394 23.3572C31.2847 23.5853 31.0794 23.6993 30.8236 23.6993ZM33.6727 23.9671C33.8174 23.9671 33.9706 23.9343 34.1323 23.8689C34.2939 23.8035 34.4699 23.7023 34.6603 23.5655V23.9076H35.5616V23.6874L35.2761 23.6577L35.166 23.5595V20.9149H34.934L34.226 21.141V21.3314H34.6603V23.3959C34.5334 23.4574 34.4119 23.503 34.2959 23.5327C34.1799 23.5625 34.0653 23.5774 33.9523 23.5774C33.75 23.5774 33.6013 23.5253 33.5061 23.4212C33.4109 23.3171 33.3633 23.154 33.3633 22.9318V20.9149H33.1312L32.4232 21.141V21.3314H32.8576V23.036C32.8576 23.3374 32.9275 23.5679 33.0673 23.7276C33.2071 23.8872 33.4089 23.9671 33.6727 23.9671ZM37.1791 23.9076V23.6874L36.7537 23.6577L36.6496 23.5595V21.8193C36.7785 21.6666 36.897 21.554 37.0051 21.4816C37.1132 21.4092 37.2158 21.373 37.313 21.373C37.3765 21.373 37.4345 21.3854 37.487 21.4102C37.5396 21.435 37.5857 21.4712 37.6254 21.5188H37.8187V20.9952C37.7553 20.9675 37.6938 20.9472 37.6343 20.9343C37.5748 20.9214 37.5143 20.9149 37.4528 20.9149C37.4112 20.9149 37.3799 20.9159 37.3591 20.9179C37.3383 20.9199 37.3189 20.9239 37.3011 20.9298C37.1821 21.025 37.0686 21.1217 36.9605 21.2198C36.8524 21.318 36.7488 21.4177 36.6496 21.5188V20.9477H36.4176L35.7096 21.1648V21.3552H36.138V23.5595L36.0338 23.6577L35.7096 23.6874V23.9076H37.1791ZM41.7558 23.9076V23.6577L41.3452 23.6279L41.2441 23.5417V20.0998H42.1752L42.2615 20.1921L42.3448 20.7573H42.6809V19.8202H39.2391V20.7573H39.5723L39.6585 20.1921L39.7448 20.0998H40.6759V23.5417L40.5718 23.6279L40.1642 23.6577V23.9076H41.7558ZM43.7838 23.9076V23.6874L43.3584 23.6577L43.2543 23.5595V21.8193C43.3832 21.6666 43.5017 21.554 43.6097 21.4816C43.7178 21.4092 43.8205 21.373 43.9176 21.373C43.9811 21.373 44.0391 21.3854 44.0917 21.4102C44.1442 21.435 44.1903 21.4712 44.23 21.5188H44.4233V20.9952C44.3599 20.9675 44.2984 20.9472 44.2389 20.9343C44.1794 20.9214 44.1189 20.9149 44.0574 20.9149C44.0158 20.9149 43.9846 20.9159 43.9637 20.9179C43.9429 20.9199 43.9236 20.9239 43.9057 20.9298C43.7867 21.025 43.6732 21.1217 43.5651 21.2198C43.457 21.318 43.3534 21.4177 43.2543 21.5188V20.9477H43.0222L42.3142 21.1648V21.3552H42.7426V23.5595L42.6385 23.6577L42.3142 23.6874V23.9076H43.7838ZM45.663 23.9671C45.8078 23.9671 45.961 23.9343 46.1226 23.8689C46.2843 23.8035 46.4603 23.7023 46.6507 23.5655V23.9076H47.552V23.6874L47.2665 23.6577L47.1564 23.5595V20.9149H46.9244L46.2164 21.141V21.3314H46.6507V23.3959C46.5237 23.4574 46.4023 23.503 46.2863 23.5327C46.1702 23.5625 46.0557 23.5774 45.9427 23.5774C45.7404 23.5774 45.5916 23.5253 45.4965 23.4212C45.4013 23.3171 45.3537 23.154 45.3537 22.9318V20.9149H45.1216L44.4136 21.141V21.3314H44.8479V23.036C44.8479 23.3374 44.9179 23.5679 45.0577 23.7276C45.1975 23.8872 45.3993 23.9671 45.663 23.9671ZM48.5656 23.9611C48.9226 23.9611 49.2017 23.8803 49.403 23.7187C49.6043 23.557 49.705 23.3334 49.705 23.0479C49.705 22.9388 49.6852 22.8391 49.6455 22.7489C49.6058 22.6587 49.5483 22.5838 49.4729 22.5243C49.3698 22.439 49.2032 22.3438 48.9732 22.2387C48.9077 22.209 48.8591 22.1862 48.8274 22.1703C48.6251 22.0731 48.4883 21.9849 48.4169 21.9055C48.3455 21.8262 48.3098 21.73 48.3098 21.617C48.3098 21.4782 48.3544 21.3701 48.4437 21.2927C48.5329 21.2154 48.6569 21.1767 48.8155 21.1767C48.8889 21.1767 48.9623 21.1876 49.0357 21.2094C49.109 21.2312 49.1864 21.264 49.2677 21.3076L49.3153 21.7389H49.6157V21.0488C49.5126 21.0052 49.4021 20.9719 49.284 20.9491C49.166 20.9263 49.0386 20.9149 48.9018 20.9149C48.5587 20.9149 48.2929 20.9893 48.1045 21.138C47.9161 21.2868 47.8219 21.497 47.8219 21.7687C47.8219 21.9472 47.877 22.0969 47.987 22.2179C48.0971 22.3389 48.3048 22.4678 48.6103 22.6046C48.88 22.7276 49.0505 22.8292 49.1219 22.9095C49.1933 22.9898 49.229 23.0915 49.229 23.2144C49.229 23.3612 49.177 23.4797 49.0728 23.5699C48.9687 23.6602 48.8304 23.7053 48.6579 23.7053C48.5706 23.7053 48.4838 23.6934 48.3976 23.6696C48.3113 23.6458 48.2255 23.6091 48.1402 23.5595L48.0659 23.0419H47.7743V23.8332C47.8874 23.8768 48.0108 23.9091 48.1447 23.9299C48.2786 23.9507 48.4189 23.9611 48.5656 23.9611ZM50.9209 23.9254C51.0458 23.9254 51.1757 23.914 51.3106 23.8912C51.4454 23.8684 51.5823 23.8352 51.7211 23.7916V23.5655C51.6457 23.5833 51.5729 23.5962 51.5025 23.6041C51.432 23.6121 51.3641 23.616 51.2987 23.616C51.1083 23.616 50.9764 23.5709 50.903 23.4807C50.8297 23.3905 50.793 23.2135 50.793 22.9497V21.3433H51.7211V21.0577H50.793V20.4092H50.5669L50.3051 20.9774L49.9035 21.1529V21.3433H50.2872V23.3096C50.2872 23.5437 50.3344 23.7048 50.4286 23.793C50.5228 23.8813 50.6869 23.9254 50.9209 23.9254ZM53.1661 23.9611C53.3624 23.9611 53.5577 23.9304 53.7521 23.8689C53.9464 23.8074 54.1339 23.7172 54.3143 23.5982V23.262C54.1319 23.383 53.9628 23.4723 53.8071 23.5298C53.6514 23.5873 53.5012 23.616 53.3564 23.616C53.0431 23.616 52.7942 23.5045 52.6098 23.2814C52.4253 23.0583 52.3331 22.7553 52.3331 22.3726V22.3042H54.3054C54.3094 22.2804 54.3118 22.2556 54.3128 22.2298C54.3138 22.204 54.3143 22.1663 54.3143 22.1167C54.3143 21.7459 54.2157 21.4529 54.0183 21.2377C53.821 21.0225 53.5538 20.9149 53.2166 20.9149C52.8041 20.9149 52.4665 21.0592 52.2037 21.3478C51.9409 21.6363 51.8095 22.0087 51.8095 22.4648C51.8095 22.909 51.935 23.2695 52.1859 23.5461C52.4367 23.8228 52.7635 23.9611 53.1661 23.9611ZM53.7699 22.0483H52.3629C52.3807 21.8004 52.4635 21.5957 52.6113 21.434C52.759 21.2724 52.934 21.1916 53.1363 21.1916C53.3426 21.1916 53.4997 21.257 53.6078 21.3879C53.7159 21.5188 53.7699 21.7072 53.7699 21.9531V22.0483ZM55.7682 23.9611C55.9328 23.9611 56.0905 23.9314 56.2412 23.8719C56.3919 23.8124 56.5466 23.7192 56.7053 23.5922V23.9076H57.6066V23.6874L57.3151 23.6577L57.211 23.5595V19.4246H56.9819L56.2382 19.6417V19.8321H56.7053V20.9774C56.6081 20.9556 56.5139 20.9387 56.4227 20.9268C56.3314 20.9149 56.2452 20.909 56.1638 20.909C55.6978 20.909 55.3195 21.0592 55.029 21.3597C54.7384 21.6601 54.5932 22.0523 54.5932 22.5362C54.5932 22.9527 54.7037 23.2943 54.9248 23.561C55.146 23.8277 55.4271 23.9611 55.7682 23.9611ZM56.0419 23.5774C55.7642 23.5774 55.5426 23.4742 55.377 23.268C55.2114 23.0617 55.1286 22.7831 55.1286 22.4321C55.1286 22.0553 55.2243 21.7518 55.4157 21.5218C55.6071 21.2917 55.8584 21.1767 56.1698 21.1767C56.2392 21.1767 56.318 21.1851 56.4063 21.202C56.4945 21.2189 56.5942 21.2431 56.7053 21.2749V23.3662C56.5902 23.4376 56.4777 23.4906 56.3676 23.5253C56.2576 23.56 56.149 23.5774 56.0419 23.5774ZM61.4544 23.9819C61.6567 23.9819 61.862 23.9636 62.0702 23.9269C62.2784 23.8902 62.4827 23.8372 62.683 23.7678V22.8039H62.3558L62.207 23.4822L62.1118 23.5774C62.0226 23.6051 61.9338 23.6255 61.8456 23.6384C61.7573 23.6512 61.6696 23.6577 61.5823 23.6577C61.0845 23.6577 60.6948 23.4946 60.4132 23.1683C60.1316 22.8421 59.9908 22.3924 59.9908 21.8193C59.9908 21.2798 60.1257 20.8535 60.3954 20.5401C60.6651 20.2268 61.03 20.0701 61.4901 20.0701C61.6051 20.0701 61.7182 20.083 61.8292 20.1088C61.9403 20.1345 62.0543 20.1742 62.1713 20.2278L62.2517 20.3378L62.3439 20.8911H62.683V19.9541C62.4648 19.8847 62.2551 19.8326 62.0538 19.7979C61.8525 19.7632 61.6607 19.7458 61.4782 19.7458C60.8436 19.7458 60.3324 19.9397 59.9447 20.3274C59.557 20.7151 59.3631 21.2263 59.3631 21.8609C59.3631 22.2576 59.4568 22.623 59.6443 22.9571C59.8317 23.2913 60.089 23.5516 60.4162 23.738C60.559 23.8173 60.7177 23.8778 60.8922 23.9195C61.0667 23.9611 61.2541 23.9819 61.4544 23.9819ZM64.1547 23.9671C64.2995 23.9671 64.4527 23.9343 64.6143 23.8689C64.776 23.8035 64.952 23.7023 65.1424 23.5655V23.9076H66.0437V23.6874L65.7581 23.6577L65.6481 23.5595V20.9149H65.416L64.708 21.141V21.3314H65.1424V23.3959C65.0154 23.4574 64.894 23.503 64.7779 23.5327C64.6619 23.5625 64.5474 23.5774 64.4344 23.5774C64.2321 23.5774 64.0833 23.5253 63.9881 23.4212C63.8929 23.3171 63.8453 23.154 63.8453 22.9318V20.9149H63.6133L62.9053 21.141V21.3314H63.3396V23.036C63.3396 23.3374 63.4095 23.5679 63.5494 23.7276C63.6892 23.8872 63.891 23.9671 64.1547 23.9671ZM67.6612 23.9076V23.6874L67.2358 23.6577L67.1317 23.5595V21.8193C67.2606 21.6666 67.3791 21.554 67.4872 21.4816C67.5953 21.4092 67.6979 21.373 67.7951 21.373C67.8585 21.373 67.9165 21.3854 67.9691 21.4102C68.0217 21.435 68.0678 21.4712 68.1074 21.5188H68.3008V20.9952C68.2373 20.9675 68.1759 20.9472 68.1164 20.9343C68.0569 20.9214 67.9964 20.9149 67.9349 20.9149C67.8932 20.9149 67.862 20.9159 67.8412 20.9179C67.8204 20.9199 67.801 20.9239 67.7832 20.9298C67.6642 21.025 67.5507 21.1217 67.4426 21.2198C67.3345 21.318 67.2309 21.4177 67.1317 21.5188V20.9477H66.8997L66.1917 21.1648V21.3552H66.62V23.5595L66.5159 23.6577L66.1917 23.6874V23.9076H67.6612ZM69.7844 23.9076V23.6874L69.359 23.6577L69.2549 23.5595V21.8193C69.3838 21.6666 69.5023 21.554 69.6104 21.4816C69.7185 21.4092 69.8211 21.373 69.9183 21.373C69.9818 21.373 70.0398 21.3854 70.0923 21.4102C70.1449 21.435 70.191 21.4712 70.2306 21.5188H70.424V20.9952C70.3605 20.9675 70.2991 20.9472 70.2396 20.9343C70.1801 20.9214 70.1196 20.9149 70.0581 20.9149C70.0165 20.9149 69.9852 20.9159 69.9644 20.9179C69.9436 20.9199 69.9242 20.9239 69.9064 20.9298C69.7874 21.025 69.6739 21.1217 69.5658 21.2198C69.4577 21.318 69.3541 21.4177 69.2549 21.5188V20.9477H69.0229L68.3149 21.1648V21.3552H68.7432V23.5595L68.6391 23.6577L68.3149 23.6874V23.9076H69.7844ZM71.1937 20.2962C71.2928 20.2962 71.3766 20.2625 71.445 20.195C71.5135 20.1276 71.5477 20.0453 71.5477 19.9481C71.5477 19.8509 71.5135 19.7677 71.445 19.6982C71.3766 19.6288 71.2928 19.5941 71.1937 19.5941C71.0965 19.5941 71.0137 19.6283 70.9453 19.6968C70.8769 19.7652 70.8427 19.849 70.8427 19.9481C70.8427 20.0453 70.8769 20.1276 70.9453 20.195C71.0137 20.2625 71.0965 20.2962 71.1937 20.2962ZM71.8392 23.9076V23.6874L71.512 23.6577L71.4079 23.5595V20.9477H71.1699L70.4708 21.1648V21.3552H70.8962V23.5595L70.7921 23.6577L70.4708 23.6874V23.9076H71.8392ZM73.3407 23.9611C73.537 23.9611 73.7324 23.9304 73.9267 23.8689C74.1211 23.8074 74.3085 23.7172 74.4889 23.5982V23.262C74.3065 23.383 74.1374 23.4723 73.9817 23.5298C73.8261 23.5873 73.6758 23.616 73.5311 23.616C73.2177 23.616 72.9688 23.5045 72.7844 23.2814C72.6 23.0583 72.5077 22.7553 72.5077 22.3726V22.3042H74.48C74.484 22.2804 74.4865 22.2556 74.4875 22.2298C74.4885 22.204 74.4889 22.1663 74.4889 22.1167C74.4889 21.7459 74.3903 21.4529 74.193 21.2377C73.9956 21.0225 73.7284 20.9149 73.3913 20.9149C72.9787 20.9149 72.6411 21.0592 72.3783 21.3478C72.1156 21.6363 71.9842 22.0087 71.9842 22.4648C71.9842 22.909 72.1096 23.2695 72.3605 23.5461C72.6114 23.8228 72.9381 23.9611 73.3407 23.9611ZM73.9446 22.0483H72.5375C72.5553 21.8004 72.6381 21.5957 72.7859 21.434C72.9336 21.2724 73.1086 21.1916 73.3109 21.1916C73.5172 21.1916 73.6744 21.257 73.7824 21.3879C73.8905 21.5188 73.9446 21.7072 73.9446 21.9531V22.0483ZM76.1987 23.9076V23.6874L75.7733 23.6577L75.6692 23.5595V21.8193C75.7981 21.6666 75.9166 21.554 76.0246 21.4816C76.1327 21.4092 76.2354 21.373 76.3325 21.373C76.396 21.373 76.454 21.3854 76.5066 21.4102C76.5591 21.435 76.6052 21.4712 76.6449 21.5188H76.8382V20.9952C76.7748 20.9675 76.7133 20.9472 76.6538 20.9343C76.5943 20.9214 76.5338 20.9149 76.4723 20.9149C76.4307 20.9149 76.3995 20.9159 76.3786 20.9179C76.3578 20.9199 76.3385 20.9239 76.3206 20.9298C76.2016 21.025 76.0881 21.1217 75.98 21.2198C75.8719 21.318 75.7683 21.4177 75.6692 21.5188V20.9477H75.4371L74.7291 21.1648V21.3552H75.1575V23.5595L75.0534 23.6577L74.7291 23.6874V23.9076H76.1987Z" fill="white"/>
</svg>
