<svg width="17" height="18" viewBox="0 0 17 18" fill="none" xmlns="http://www.w3.org/2000/svg">
<path d="M1 10.7699V8.92606C1 4.8528 4.30202 1.55078 8.37527 1.55078C12.4485 1.55078 15.7505 4.8528 15.7505 8.92606V10.7699M1 10.7699V15.5638C1 15.9711 1.33021 16.3013 1.73753 16.3013H4.47691C4.88424 16.3013 5.21445 15.9711 5.21445 15.5638V11.5074C5.21445 11.1001 4.88424 10.7699 4.47692 10.7699H1ZM15.7505 10.7699V15.5638C15.7505 15.9711 15.4204 16.3013 15.013 16.3013H12.2736C11.8663 16.3013 11.5361 15.9711 11.5361 15.5638V11.5074C11.5361 11.1001 11.8663 10.7699 12.2736 10.7699H15.7505Z" stroke="white" stroke-width="1.70199" stroke-linecap="round" stroke-linejoin="round"/>
</svg>
