<svg width="66" height="64" viewBox="0 0 66 64" fill="none" xmlns="http://www.w3.org/2000/svg">
<mask id="mask0_138_3116" style="mask-type:luminance" maskUnits="userSpaceOnUse" x="32" y="0" width="30" height="30">
<path d="M61.5541 2.76278V26.3247C61.5541 27.85 60.3166 29.0874 58.7963 29.0874H40.361L40.5782 28.8702L54.0436 15.4099C54.3415 15.122 54.5032 14.7281 54.5032 14.3089C54.5032 13.8896 54.3466 13.5159 54.0486 13.228C53.7658 12.9401 53.3819 12.7785 52.9677 12.7785C52.5536 12.7785 52.1798 12.935 51.8869 13.228L36.2396 28.8702L36.0224 29.0874H35.2294C33.7041 29.0874 32.4717 27.85 32.4717 26.3247V25.6428L32.6889 25.4256L39.4115 18.6929C39.7044 18.405 39.866 18.0111 39.866 17.607C39.866 17.2029 39.7094 16.814 39.4115 16.5261C39.1236 16.2332 38.7397 16.0766 38.3306 16.0766C37.9215 16.0766 37.5275 16.2382 37.2497 16.5261L32.6889 21.087L32.4717 21.3042V2.76278C32.4717 1.23744 33.7041 0 35.2294 0H58.7963C60.3166 0 61.5541 1.23744 61.5541 2.76278Z" fill="white"/>
</mask>
<g mask="url(#mask0_138_3116)">
<path d="M61.5541 26.5923L37.9619 0H61.5541V26.5923Z" fill="#0000FF"/>
<path d="M61.554 26.8752L37.7144 0H37.9618L61.554 26.5923V26.8752Z" fill="#0000FF"/>
<path d="M61.5536 27.158L37.4614 0H37.714L61.5536 26.8752V27.158Z" fill="#0001FF"/>
<path d="M61.5541 27.4358L37.2144 0H37.4618L61.5541 27.158V27.4358Z" fill="#0002FE"/>
<path d="M61.5537 27.7187L36.9614 0H37.214L61.5537 27.4358V27.7187Z" fill="#0003FE"/>
<path d="M61.5542 28.0015L36.7095 0H36.962L61.5542 27.7187V28.0015Z" fill="#0005FD"/>
<path d="M61.5537 28.2844L36.4614 0H36.7089L61.5537 28.0015V28.2844Z" fill="#0006FD"/>
<path d="M61.5538 28.5672L36.209 0H36.4615L61.5538 28.2843V28.5672Z" fill="#0007FC"/>
<path d="M61.5539 28.85L35.9565 0H36.2091L61.5539 28.5672V28.85Z" fill="#0008FC"/>
<path d="M61.5134 29.0874L35.709 0H35.9565L61.5538 28.85V29.0874H61.5134Z" fill="#0009FB"/>
<path d="M61.261 29.0874L35.4565 0H35.7091L61.5135 29.0874H61.261Z" fill="#000AFB"/>
<path d="M61.0136 29.0874L35.2041 0H35.4566L61.2611 29.0874H61.0136Z" fill="#000BFA"/>
<path d="M60.7605 29.0874L34.9561 0H35.2035L61.013 29.0874H60.7605Z" fill="#000DFA"/>
<path d="M60.5085 29.0874L34.7041 0H34.9566L60.7611 29.0874H60.5085Z" fill="#000EF9"/>
<path d="M60.2606 29.0874L34.4512 0H34.7037L60.5081 29.0874H60.2606Z" fill="#000FF9"/>
<path d="M60.0085 29.0874L34.2041 0H34.4516L60.2611 29.0874H60.0085Z" fill="#0010F8"/>
<path d="M59.7606 29.0874L33.9512 0H34.2037L60.0081 29.0874H59.7606Z" fill="#0011F8"/>
<path d="M59.5085 29.0874L33.7041 0H33.9516L59.7611 29.0874H59.5085Z" fill="#0012F7"/>
<path d="M59.2556 29.0874L33.4512 0H33.7037L59.5081 29.0874H59.2556Z" fill="#0013F7"/>
<path d="M59.0082 29.0874L33.1987 0H33.4513L59.2557 29.0874H59.0082Z" fill="#0015F6"/>
<path d="M58.7556 29.0874L32.9512 0H33.1987L59.0081 29.0874H58.7556Z" fill="#0016F6"/>
<path d="M58.5031 29.0874L32.6987 0H32.9513L58.7557 29.0874H58.5031Z" fill="#0017F5"/>
<path d="M58.2559 29.0874L32.4717 0.0252554V0H32.699L58.5034 29.0874H58.2559Z" fill="#0018F5"/>
<path d="M58.0034 29.0873L32.4717 0.307989V0.0251465L58.2559 29.0873H58.0034Z" fill="#0019F4"/>
<path d="M57.7508 29.0874L32.4717 0.590952V0.308105L58.0034 29.0874H57.7508Z" fill="#001AF4"/>
<path d="M57.5033 29.0874L32.4717 0.873785V0.590942L57.7508 29.0874H57.5033Z" fill="#001BF3"/>
<path d="M57.2508 29.0875L32.4717 1.15674V0.873901L57.5033 29.0875H57.2508Z" fill="#001CF3"/>
<path d="M57.0033 29.0874L32.4717 1.43946V1.15662L57.2508 29.0874H57.0033Z" fill="#001DF2"/>
<path d="M56.7508 29.0874L32.4717 1.7223V1.43945L57.0033 29.0874H56.7508Z" fill="#001FF2"/>
<path d="M56.4982 29.0875L32.4717 2.00525V1.72241L56.7508 29.0875H56.4982Z" fill="#0020F1"/>
<path d="M56.2507 29.0875L32.4717 2.2881V2.00525L56.4982 29.0875H56.2507Z" fill="#0021F1"/>
<path d="M55.9982 29.0874L32.4717 2.57081V2.28796L56.2507 29.0874H55.9982Z" fill="#0022F0"/>
<path d="M55.7457 29.0874L32.4717 2.85364V2.5708L55.9982 29.0874H55.7457Z" fill="#0023F0"/>
<path d="M55.4982 29.0875L32.4717 3.13661V2.85376L55.7457 29.0875H55.4982Z" fill="#0024EF"/>
<path d="M55.2456 29.0875L32.4717 3.41944V3.1366L55.4982 29.0875H55.2456Z" fill="#0025EF"/>
<path d="M54.9931 29.0875L32.4717 3.70228V3.41943L55.2456 29.0875H54.9931Z" fill="#0026EE"/>
<path d="M54.7456 29.0875L32.4717 3.98511V3.70227L54.9931 29.0875H54.7456Z" fill="#0027EE"/>
<path d="M54.4931 29.0875L32.4717 4.26795V3.98511L54.7456 29.0875H54.4931Z" fill="#0028ED"/>
<path d="M54.2456 29.0873L32.4717 4.55066V4.26782L54.4931 29.0873H54.2456Z" fill="#002AED"/>
<path d="M53.993 29.0875L32.4717 4.83362V4.55078L54.2456 29.0875H53.993Z" fill="#002BED"/>
<path d="M53.7405 29.0875L32.4717 5.11141V4.83362L53.993 29.0875H53.7405Z" fill="#002CEC"/>
<path d="M53.493 29.0874L32.4717 5.39417V5.11133L53.7405 29.0874H53.493Z" fill="#002DEC"/>
<path d="M53.2405 29.0875L32.4717 5.67713V5.39429L53.493 29.0875H53.2405Z" fill="#002EEB"/>
<path d="M52.9879 29.0875L32.4717 5.95997V5.67712L53.2405 29.0875H52.9879Z" fill="#002FEB"/>
<path d="M52.7404 29.0875L32.4717 6.2428V5.95996L52.9879 29.0875H52.7404Z" fill="#0030EA"/>
<path d="M52.4879 29.0875L32.4717 6.52564V6.2428L52.7405 29.0875H52.4879Z" fill="#0031EA"/>
<path d="M52.2354 29.0875L32.4717 6.80848V6.52563L52.4879 29.0875H52.2354Z" fill="#0032E9"/>
<path d="M51.9879 29.0875L32.4717 7.09131V6.80847L52.2354 29.0875H51.9879Z" fill="#0033E9"/>
<path d="M51.7353 29.0874L32.4717 7.37415V7.09131L51.9879 29.0874H51.7353Z" fill="#0034E8"/>
<path d="M51.4879 29.0874L32.4717 7.65699V7.37415L51.7353 29.0874H51.4879Z" fill="#0035E8"/>
<path d="M51.2353 29.0874L32.4717 7.93982V7.65698L51.4879 29.0874H51.2353Z" fill="#0036E7"/>
<path d="M50.9828 29.0874L32.4717 8.22267V7.93982L51.2353 29.0874H50.9828Z" fill="#0038E7"/>
<path d="M50.7353 29.0874L32.4717 8.5055V8.22266L50.9828 29.0874H50.7353Z" fill="#0139E6"/>
<path d="M50.4828 29.0874L32.4717 8.78834V8.50549L50.7353 29.0874H50.4828Z" fill="#013AE6"/>
<path d="M50.2302 29.0875L32.4717 9.0713V8.78845L50.4828 29.0875H50.2302Z" fill="#013BE6"/>
<path d="M49.9827 29.0875L32.4717 9.35413V9.07129L50.2302 29.0875H49.9827Z" fill="#013CE5"/>
<path d="M49.7302 29.0874L32.4717 9.63685V9.354L49.9827 29.0874H49.7302Z" fill="#013DE5"/>
<path d="M49.4776 29.0874L32.4717 9.91968V9.63684L49.7302 29.0874H49.4776Z" fill="#013EE4"/>
<path d="M49.2302 29.0875L32.4717 10.2026V9.9198L49.4776 29.0875H49.2302Z" fill="#013FE4"/>
<path d="M48.9776 29.0874L32.4717 10.4854V10.2025L49.2302 29.0874H48.9776Z" fill="#0140E3"/>
<path d="M48.7251 29.0875L32.4717 10.7633V10.4855L48.9776 29.0875H48.7251Z" fill="#0141E3"/>
<path d="M48.4776 29.0875L32.4717 11.0461V10.7633L48.7251 29.0875H48.4776Z" fill="#0142E2"/>
<path d="M48.2251 29.0874L32.4717 11.3289V11.046L48.4776 29.0874H48.2251Z" fill="#0143E2"/>
<path d="M47.9776 29.0875L32.4717 11.6118V11.329L48.2251 29.0875H47.9776Z" fill="#0144E1"/>
<path d="M47.725 29.0875L32.4717 11.8947V11.6118L47.9776 29.0875H47.725Z" fill="#0145E1"/>
<path d="M47.4725 29.0874L32.4717 12.1774V11.8945L47.725 29.0874H47.4725Z" fill="#0146E1"/>
<path d="M47.225 29.0874L32.4717 12.4602V12.1774L47.4725 29.0874H47.225Z" fill="#0147E0"/>
<path d="M46.9725 29.0875L32.4717 12.7432V12.4603L47.225 29.0875H46.9725Z" fill="#0148E0"/>
<path d="M46.7199 29.0875L32.4717 13.026V12.7432L46.9725 29.0875H46.7199Z" fill="#0149DF"/>
<path d="M46.4724 29.0875L32.4717 13.3088V13.026L46.7199 29.0875H46.4724Z" fill="#014ADF"/>
<path d="M46.2199 29.0875L32.4717 13.5917V13.3088L46.4724 29.0875H46.2199Z" fill="#014BDE"/>
<path d="M45.9674 29.0875L32.4717 13.8745V13.5917L46.2199 29.0875H45.9674Z" fill="#014CDE"/>
<path d="M45.7199 29.0875L32.4717 14.1574V13.8745L45.9674 29.0875H45.7199Z" fill="#014DDE"/>
<path d="M45.4673 29.0874L32.4717 14.4402V14.1573L45.7199 29.0874H45.4673Z" fill="#014EDD"/>
<path d="M45.2198 29.0874L32.4717 14.723V14.4402L45.4673 29.0874H45.2198Z" fill="#014FDD"/>
<path d="M44.9673 29.0874L32.4717 15.0059V14.723L45.2198 29.0874H44.9673Z" fill="#0150DC"/>
<path d="M44.7148 29.0874L32.4717 15.2887V15.0059L44.9673 29.0874H44.7148Z" fill="#0151DC"/>
<path d="M44.4673 29.0874L32.4717 15.5715V15.2887L44.7148 29.0874H44.4673Z" fill="#0152DB"/>
<path d="M44.2147 29.0874L32.4717 15.8544V15.5715L44.4673 29.0874H44.2147Z" fill="#0153DB"/>
<path d="M43.9622 29.0875L32.4717 16.1373V15.8545L44.2147 29.0875H43.9622Z" fill="#0154DB"/>
<path d="M43.7147 29.0875L32.4717 16.4151V16.1373L43.9622 29.0875H43.7147Z" fill="#0155DA"/>
<path d="M43.4622 29.0874L32.4717 16.6979V16.415L43.7147 29.0874H43.4622Z" fill="#0156DA"/>
<path d="M43.2096 29.0876L32.4717 16.9808V16.698L43.4622 29.0876H43.2096Z" fill="#0157D9"/>
<path d="M42.9621 29.0874L32.4717 17.2636V16.9807L43.2096 29.0874H42.9621Z" fill="#0158D9"/>
<path d="M42.7096 29.0874L32.4717 17.5464V17.2635L42.9621 29.0874H42.7096Z" fill="#0159D8"/>
<path d="M42.4621 29.0874L32.4717 17.8292V17.5464L42.7096 29.0874H42.4621Z" fill="#015AD8"/>
<path d="M42.2096 29.0875L32.4717 18.1122V17.8293L42.4621 29.0875H42.2096Z" fill="#015BD8"/>
<path d="M41.957 29.0874L32.4717 18.3949V18.1121L42.2096 29.0874H41.957Z" fill="#015CD7"/>
<path d="M41.7095 29.0875L32.4717 18.6779V18.395L41.957 29.0875H41.7095Z" fill="#015DD7"/>
<path d="M41.457 29.0875L32.4717 18.9607V18.6779L41.7095 29.0875H41.457Z" fill="#015ED6"/>
<path d="M41.2045 29.0874L32.4717 19.2434V18.9606L41.457 29.0874H41.2045Z" fill="#015FD6"/>
<path d="M40.957 29.0874L32.4717 19.5263V19.2434L41.2045 29.0874H40.957Z" fill="#015FD6"/>
<path d="M40.7044 29.0875L32.4717 19.8092V19.5264L40.957 29.0875H40.7044Z" fill="#0160D5"/>
<path d="M40.4519 29.0875L32.4717 20.0921V19.8092L40.7044 29.0875H40.4519Z" fill="#0161D5"/>
<path d="M40.2044 29.0874L32.4717 20.3748V20.0919L40.4519 29.0874H40.2044Z" fill="#0162D4"/>
<path d="M39.9519 29.0875L32.4717 20.6577V20.3749L40.2044 29.0875H39.9519Z" fill="#0163D4"/>
<path d="M39.7044 29.0875L32.4717 20.9406V20.6577L39.9519 29.0875H39.7044Z" fill="#0164D4"/>
<path d="M39.4518 29.0875L32.4717 21.2234V20.9406L39.7044 29.0875H39.4518Z" fill="#0165D3"/>
<path d="M39.1993 29.0874L32.4717 21.5062V21.2234L39.4518 29.0874H39.1993Z" fill="#0166D3"/>
<path d="M38.9518 29.0874L32.4717 21.784V21.5062L39.1993 29.0874H38.9518Z" fill="#0167D3"/>
<path d="M38.6993 29.0874L32.4717 22.0668V21.7839L38.9518 29.0874H38.6993Z" fill="#0167D2"/>
<path d="M38.4468 29.0874L32.4717 22.3496V22.0668L38.6993 29.0874H38.4468Z" fill="#0168D2"/>
<path d="M38.1993 29.0875L32.4717 22.6326V22.3497L38.4468 29.0875H38.1993Z" fill="#0169D1"/>
<path d="M37.9467 29.0876L32.4717 22.9155V22.6327L38.1993 29.0876H37.9467Z" fill="#016AD1"/>
<path d="M37.6942 29.0875L32.4717 23.1982V22.9154L37.9467 29.0875H37.6942Z" fill="#016BD1"/>
<path d="M37.4467 29.0875L32.4717 23.4811V23.1982L37.6942 29.0875H37.4467Z" fill="#016BD0"/>
<path d="M37.1942 29.0874L32.4717 23.7639V23.4811L37.4467 29.0874H37.1942Z" fill="#016CD0"/>
<path d="M36.9467 29.0876L32.4717 24.0469V23.764L37.1942 29.0876H36.9467Z" fill="#016DD0"/>
<path d="M36.6941 29.0874L32.4717 24.3296V24.0468L36.9467 29.0874H36.6941Z" fill="#016ECF"/>
<path d="M36.4416 29.0874L32.4717 24.6124V24.3296L36.6941 29.0874H36.4416Z" fill="#016ECF"/>
<path d="M36.1941 29.0874L32.4717 24.8953V24.6124L36.4416 29.0874H36.1941Z" fill="#016FCF"/>
<path d="M35.9416 29.0874L32.4717 25.1781V24.8953L36.1941 29.0874H35.9416Z" fill="#0170CE"/>
<path d="M35.689 29.0874L32.4717 25.4609V25.1781L35.9416 29.0874H35.689Z" fill="#0170CE"/>
<path d="M35.4415 29.0875L32.4717 25.7439V25.4611L35.689 29.0875H35.4415Z" fill="#0171CE"/>
<path d="M32.4717 25.7439L35.4415 29.0875H32.4717V25.7439Z" fill="#0171CE"/>
</g>
<mask id="mask1_138_3116" style="mask-type:luminance" maskUnits="userSpaceOnUse" x="0" y="1" width="30" height="30">
<path d="M13.228 9.18233C12.9401 9.46518 12.7785 9.85409 12.7785 10.2632C12.7785 10.6723 12.935 11.0511 13.228 11.3441L28.8702 26.9914L29.0874 27.2136V28.0015C29.0874 29.5269 27.85 30.7643 26.3247 30.7643H25.6428L25.4256 30.5471L18.6929 23.8195C18.405 23.5316 18.0111 23.3649 17.607 23.3649C17.2029 23.3649 16.814 23.5265 16.5261 23.8195C16.2332 24.1074 16.0766 24.4912 16.0766 24.9004C16.0766 25.3095 16.2382 25.7034 16.5261 25.9812L21.087 30.5471L21.3042 30.7643H2.76278C1.23744 30.7643 0 29.5269 0 28.0015V4.43966C0 2.91432 1.23744 1.67688 2.76278 1.67688H26.3247C27.85 1.67688 29.0874 2.91432 29.0874 4.43966V22.875L28.8702 22.6528L15.4099 9.19244C15.122 8.89444 14.7281 8.72777 14.3089 8.72777C13.8896 8.72777 13.5159 8.88939 13.228 9.18233Z" fill="white"/>
</mask>
<g mask="url(#mask1_138_3116)">
<path d="M0.550535 1.67688L0 2.20216V1.67688H0.550535Z" fill="#00FF00"/>
<path d="M1.06571 1.67688L0 2.69209V2.20216L0.550535 1.67688H1.06571Z" fill="#00FF00"/>
<path d="M1.58089 1.67688L0 3.17696V2.69209L1.06571 1.67688H1.58089Z" fill="#01FF01"/>
<path d="M2.10112 1.67688L0 3.66689V3.17696L1.58089 1.67688H2.10112Z" fill="#01FE02"/>
<path d="M2.6163 1.67688L0 4.15681V3.66689L2.10112 1.67688H2.6163Z" fill="#02FE03"/>
<path d="M3.13148 1.67688L0 4.64674V4.15681L2.6163 1.67688H3.13148Z" fill="#02FD04"/>
<path d="M3.64666 1.67688L0 5.13161V4.64674L3.13148 1.67688H3.64666Z" fill="#03FD05"/>
<path d="M4.16184 1.67688L0 5.62154V5.13161L3.64666 1.67688H4.16184Z" fill="#04FC06"/>
<path d="M4.67702 1.67688L0 6.11147V5.62154L4.16184 1.67688H4.67702Z" fill="#04FC07"/>
<path d="M5.1922 1.67688L0 6.59634V6.11146L4.67702 1.67688H5.1922Z" fill="#05FB08"/>
<path d="M5.70738 1.67688L0 7.08627V6.59634L5.1922 1.67688H5.70738Z" fill="#05FB09"/>
<path d="M6.22256 1.67688L0 7.57619V7.08627L5.70738 1.67688H6.22256Z" fill="#06FA0A"/>
<path d="M6.73774 1.67688L0 8.06107V7.57619L6.22256 1.67688H6.73774Z" fill="#07FA0B"/>
<path d="M7.25292 1.67688L0 8.55099V8.06107L6.73774 1.67688H7.25292Z" fill="#07F90C"/>
<path d="M7.76809 1.67688L0 9.04091V8.55099L7.25292 1.67688H7.76809Z" fill="#08F90D"/>
<path d="M8.28327 1.67688L0 9.52579V9.04091L7.76809 1.67688H8.28327Z" fill="#08F80E"/>
<path d="M8.79845 1.67688L0 10.0157V9.52579L8.28328 1.67688H8.79845Z" fill="#09F80F"/>
<path d="M9.31363 1.67688L0 10.5056V10.0157L8.79845 1.67688H9.31363Z" fill="#09F710"/>
<path d="M9.82881 1.67688L0 10.9905V10.5056L9.31363 1.67688H9.82881Z" fill="#0AF711"/>
<path d="M10.344 1.67688L0 11.4804V10.9905L9.82881 1.67688H10.344Z" fill="#0BF612"/>
<path d="M10.8592 1.67688L0 11.9704V11.4804L10.344 1.67688H10.8592Z" fill="#0BF613"/>
<path d="M11.3743 1.67688L0 12.4552V11.9704L10.8592 1.67688H11.3743Z" fill="#0CF514"/>
<path d="M11.8895 1.67688L0 12.9452V12.4552L11.3743 1.67688H11.8895Z" fill="#0CF515"/>
<path d="M12.4098 1.67688L0 13.4351V12.9452L11.8895 1.67688H12.4098Z" fill="#0DF416"/>
<path d="M12.9249 1.67688L0 13.92V13.4351L12.4098 1.67688H12.9249Z" fill="#0EF417"/>
<path d="M13.4401 1.67688L0 14.4099V13.92L12.9249 1.67688H13.4401Z" fill="#0EF318"/>
<path d="M13.9553 1.67688L0 14.8998V14.4099L13.4401 1.67688H13.9553Z" fill="#0FF319"/>
<path d="M14.4705 1.67688L0 15.3847V14.8998L13.9553 1.67688H14.4705Z" fill="#0FF21A"/>
<path d="M14.9857 1.67688L0 15.8746V15.3847L14.4705 1.67688H14.9857Z" fill="#10F21B"/>
<path d="M15.5008 1.67688L0 16.3645V15.8746L14.9857 1.67688H15.5008Z" fill="#11F11C"/>
<path d="M16.016 1.67688L0 16.8494V16.3645L15.5008 1.67688H16.016Z" fill="#11F11D"/>
<path d="M16.5312 1.67688L0 17.3393V16.8494L16.016 1.67688H16.5312Z" fill="#12F11E"/>
<path d="M17.0464 1.67688L0 17.8293V17.3393L16.5312 1.67688H17.0464Z" fill="#12F01F"/>
<path d="M17.5616 1.67688L0 18.3192V17.8293L17.0464 1.67688H17.5616Z" fill="#13F020"/>
<path d="M18.0767 1.67688L0 18.8041V18.3192L17.5615 1.67688H18.0767Z" fill="#14EF21"/>
<path d="M18.5919 1.67688L0 19.294V18.8041L18.0767 1.67688H18.5919Z" fill="#14EF22"/>
<path d="M19.1071 1.67688L0 19.7839V19.294L18.5919 1.67688H19.1071Z" fill="#15EE23"/>
<path d="M19.6223 1.67688L0 20.2688V19.7839L19.1071 1.67688H19.6223Z" fill="#15EE24"/>
<path d="M20.1374 1.67688L0 20.7587V20.2688L19.6223 1.67688H20.1374Z" fill="#16ED25"/>
<path d="M20.6526 1.67688L0 21.2486V20.7587L20.1374 1.67688H20.6526Z" fill="#16ED26"/>
<path d="M21.1678 1.67688L0 21.7335V21.2486L20.6526 1.67688H21.1678Z" fill="#17EC27"/>
<path d="M21.683 1.67688L0 22.2234V21.7335L21.1678 1.67688H21.683Z" fill="#18EC28"/>
<path d="M22.2032 1.67688L0 22.7134V22.2234L21.683 1.67688H22.2032Z" fill="#18EB29"/>
<path d="M22.7184 1.67688L0 23.1982V22.7134L22.2032 1.67688H22.7184Z" fill="#19EB2A"/>
<path d="M23.2336 1.67688L0 23.6882V23.1982L22.7184 1.67688H23.2336Z" fill="#19EA2B"/>
<path d="M23.7488 1.67688L0 24.1781V23.6882L23.2336 1.67688H23.7488Z" fill="#1AEA2C"/>
<path d="M24.2639 1.67688L0 24.663V24.1781L23.7488 1.67688H24.2639Z" fill="#1BE92D"/>
<path d="M24.7791 1.67688L0 25.1529V24.663L24.2639 1.67688H24.7791Z" fill="#1BE92E"/>
<path d="M25.2943 1.67688L0 25.6428V25.1529L24.7791 1.67688H25.2943Z" fill="#1CE82F"/>
<path d="M25.8095 1.67688L0 26.1277V25.6428L25.2943 1.67688H25.8095Z" fill="#1CE830"/>
<path d="M26.3247 1.67688L0 26.6176V26.1277L25.8095 1.67688H26.3247Z" fill="#1DE731"/>
<path d="M26.8398 1.67688L0 27.1075V26.6176L26.3247 1.67688H26.8398Z" fill="#1EE732"/>
<path d="M27.355 1.67688L0 27.5924V27.1075L26.8398 1.67688H27.355Z" fill="#1EE633"/>
<path d="M27.8702 1.67688L0 28.0823V27.5924L27.355 1.67688H27.8702Z" fill="#1FE634"/>
<path d="M28.3854 1.67688L0 28.5723V28.0823L27.8702 1.67688H28.3854Z" fill="#1FE535"/>
<path d="M28.9005 1.67688L0 29.0571V28.5723L28.3854 1.67688H28.9005Z" fill="#20E536"/>
<path d="M29.0874 1.99003L0 29.5471V29.0571L28.9005 1.67688H29.0874V1.99003Z" fill="#21E437"/>
<path d="M29.0874 2.47992L0 30.037V29.547L29.0874 1.98999V2.47992Z" fill="#21E438"/>
<path d="M29.0874 2.96978L0 30.5268V30.0369L29.0874 2.47986V2.96978Z" fill="#22E339"/>
<path d="M29.0874 3.45472L0.257591 30.7643H0V30.5269L29.0874 2.96985V3.45472Z" fill="#22E33A"/>
<path d="M29.0877 3.94464L0.77299 30.7643H0.257812L29.0877 3.45471V3.94464Z" fill="#23E33B"/>
<path d="M29.0876 4.43451L1.28813 30.7642H0.772949L29.0876 3.94458V4.43451Z" fill="#24E23C"/>
<path d="M29.0871 4.91944L1.80783 30.7643H1.2876L29.0871 4.43457V4.91944Z" fill="#24E23D"/>
<path d="M29.0878 5.40936L2.32377 30.7643H1.80859L29.0878 4.91943V5.40936Z" fill="#25E13E"/>
<path d="M29.0878 5.89922L2.83891 30.7642H2.32373L29.0878 5.4093V5.89922Z" fill="#25E13F"/>
<path d="M29.0873 6.38417L3.35356 30.7643H2.83838L29.0873 5.89929V6.38417Z" fill="#26E040"/>
<path d="M29.0872 6.87408L3.8687 30.7643H3.35352L29.0872 6.38416V6.87408Z" fill="#26E041"/>
<path d="M29.0877 7.36395L4.38432 30.7642H3.86914L29.0877 6.87402V7.36395Z" fill="#27DF42"/>
<path d="M29.0876 7.84889L4.89945 30.7643H4.38428L29.0876 7.36401V7.84889Z" fill="#28DF43"/>
<path d="M29.0876 8.3388L5.4146 30.7643H4.89941L29.0876 7.84888V8.3388Z" fill="#28DE44"/>
<path d="M29.0875 8.82867L5.92973 30.7642H5.41455L29.0875 8.33875V8.82867Z" fill="#29DE45"/>
<path d="M29.0875 9.31361L6.44487 30.7643H5.92969L29.0875 8.82874V9.31361Z" fill="#29DD46"/>
<path d="M29.0875 9.80352L6.96 30.7642H6.44482L29.0875 9.3136V9.80352Z" fill="#2ADD47"/>
<path d="M29.0874 10.2935L7.47514 30.7643H6.95996L29.0874 9.80359V10.2935Z" fill="#2BDC48"/>
<path d="M29.0869 10.7834L7.98979 30.7643H7.47461L29.0869 10.2935V10.7834Z" fill="#2BDC49"/>
<path d="M29.0873 11.2682L8.50542 30.7642H7.99023L29.0873 10.7833V11.2682Z" fill="#2CDB4B"/>
<path d="M29.0873 11.7582L9.02055 30.7643H8.50537L29.0873 11.2683V11.7582Z" fill="#2CDB4C"/>
<path d="M29.0872 12.2482L9.53569 30.7644H9.02051L29.0872 11.7583V12.2482Z" fill="#2DDA4D"/>
<path d="M29.0877 12.733L10.0513 30.7643H9.53613L29.0877 12.2482V12.733Z" fill="#2EDA4E"/>
<path d="M29.0877 13.223L10.5664 30.7643H10.0513L29.0877 12.733V13.223Z" fill="#2ED94F"/>
<path d="M29.0876 13.7129L11.0816 30.7644H10.5664L29.0876 13.223V13.7129Z" fill="#2FD950"/>
<path d="M29.0871 14.1976L11.5962 30.7642H11.0811L29.0871 13.7128V14.1976Z" fill="#2FD851"/>
<path d="M29.0875 14.6877L12.1169 30.7643H11.5967L29.0875 14.1978V14.6877Z" fill="#30D852"/>
<path d="M29.0878 15.1777L12.6324 30.7644H12.1172L29.0878 14.6877V15.1777Z" fill="#31D753"/>
<path d="M29.0873 15.6625L13.147 30.7643H12.6318L29.0873 15.1776V15.6625Z" fill="#31D754"/>
<path d="M29.0872 16.1524L13.6622 30.7643H13.147L29.0872 15.6625V16.1524Z" fill="#32D655"/>
<path d="M29.0877 16.6424L14.1778 30.7644H13.6626L29.0877 16.1525V16.6424Z" fill="#32D656"/>
<path d="M29.0871 17.1272L14.6924 30.7643H14.1772L29.0871 16.6423V17.1272Z" fill="#33D557"/>
<path d="M29.0871 17.6171L15.2076 30.7643H14.6924L29.0871 17.1272V17.6171Z" fill="#33D558"/>
<path d="M29.0875 18.1071L15.7232 30.7644H15.208L29.0875 17.6172V18.1071Z" fill="#34D459"/>
<path d="M29.0875 18.5919L16.2383 30.7643H15.7231L29.0875 18.1071V18.5919Z" fill="#35D45A"/>
<path d="M29.0875 19.0818L16.7535 30.7643H16.2383L29.0875 18.5919V19.0818Z" fill="#35D45B"/>
<path d="M29.0874 19.5717L17.2686 30.7642H16.7534L29.0874 19.0818V19.5717Z" fill="#36D35C"/>
<path d="M29.0874 20.0567L17.7837 30.7643H17.2686L29.0874 19.5718V20.0567Z" fill="#36D35D"/>
<path d="M29.0873 20.5466L18.2989 30.7643H17.7837L29.0873 20.0566V20.5466Z" fill="#37D25E"/>
<path d="M29.0873 21.0364L18.814 30.7642H18.2988L29.0873 20.5465V21.0364Z" fill="#38D25F"/>
<path d="M29.0872 21.5214L19.3291 30.7643H18.814L29.0872 21.0365V21.5214Z" fill="#38D160"/>
<path d="M29.0877 22.0113L19.8448 30.7643H19.3296L29.0877 21.5214V22.0113Z" fill="#39D161"/>
<path d="M29.0876 22.5012L20.3599 30.7642H19.8447L29.0876 22.0112V22.5012Z" fill="#39D062"/>
<path d="M29.0876 22.9861L20.875 30.7643H20.3599L29.0876 22.5012V22.9861Z" fill="#3AD063"/>
<path d="M29.0871 23.4761L21.3897 30.7644H20.8745L29.0871 22.9862V23.4761Z" fill="#3BCF64"/>
<path d="M29.0875 23.9659L21.9053 30.7642H21.3901L29.0875 23.476V23.9659Z" fill="#3BCF65"/>
<path d="M29.0875 24.4559L22.4255 30.7643H21.9053L29.0875 23.9659V24.4559Z" fill="#3CCE66"/>
<path d="M29.0873 24.9407L22.9405 30.7642H22.4253L29.0873 24.4558V24.9407Z" fill="#3CCE67"/>
<path d="M29.0877 25.4306L23.4561 30.7642H22.9409L29.0877 24.9407V25.4306Z" fill="#3DCD68"/>
<path d="M29.0877 25.9206L23.9712 30.7643H23.4561L29.0877 25.4307V25.9206Z" fill="#3ECD69"/>
<path d="M29.0871 26.4054L24.4859 30.7642H23.9707L29.0871 25.9205V26.4054Z" fill="#3ECC6A"/>
<path d="M29.0871 26.8954L25.001 30.7643H24.4858L29.0871 26.4055V26.8954Z" fill="#3FCC6B"/>
<path d="M29.0875 27.3853L25.5166 30.7643H25.0015L29.0875 26.8954V27.3853Z" fill="#3FCB6C"/>
<path d="M29.0875 27.8701L26.0318 30.7642H25.5166L29.0875 27.3853V27.8701Z" fill="#40CB6D"/>
<path d="M29.0875 28.3602L26.5469 30.7643H26.0317L29.0875 27.8702V28.3602Z" fill="#41CA6E"/>
<path d="M29.0874 28.85L27.0621 30.7643H26.5469L29.0874 28.3601V28.85Z" fill="#41CA6F"/>
<path d="M29.0874 29.3348L27.5772 30.7642H27.062L29.0874 28.85V29.3348Z" fill="#42C970"/>
<path d="M29.0873 29.8249L28.0923 30.7643H27.5771L29.0873 29.335V29.8249Z" fill="#42C971"/>
<path d="M29.0873 30.3148L28.6075 30.7643H28.0923L29.0873 29.8248V30.3148Z" fill="#43C872"/>
<path d="M28.6074 30.7642L29.0872 30.3147V30.7642H28.6074Z" fill="#43C873"/>
</g>
<mask id="mask2_138_3116" style="mask-type:luminance" maskUnits="userSpaceOnUse" x="35" y="32" width="31" height="30">
<path d="M65.0191 35.2241V58.786C65.0191 60.3113 63.7816 61.5487 62.2563 61.5487H38.6944C37.1691 61.5487 35.9316 60.3113 35.9316 58.786V40.3557L36.1488 40.5729L49.6091 54.0332C49.897 54.3312 50.2859 54.4978 50.7102 54.4978C51.1345 54.4978 51.5032 54.3362 51.7911 54.0433C52.079 53.7604 52.2355 53.3715 52.2355 52.9624C52.2355 52.5533 52.084 52.1745 51.7911 51.8765L36.1488 36.2342L35.9316 36.017V35.2241C35.9316 33.6987 37.1691 32.4613 38.6944 32.4613H39.3763L39.5935 32.6785L46.3261 39.4061C46.609 39.694 47.0029 39.8556 47.407 39.8556C47.8111 39.8556 48.2 39.6991 48.4929 39.4061C48.7859 39.1182 48.9424 38.7293 48.9424 38.3253C48.9424 37.9212 48.7808 37.5222 48.4929 37.2393L43.7149 32.4613H62.2563C63.7816 32.4613 65.0191 33.6987 65.0191 35.2241Z" fill="white"/>
</mask>
<g mask="url(#mask2_138_3116)">
<path d="M40.0581 32.4613L35.9316 36.5322V32.4613H40.0581Z" fill="#EFCD1A"/>
<path d="M41.0178 32.4613L35.9316 37.4767V36.5322L40.0581 32.4613H41.0178Z" fill="#EFCD1A"/>
<path d="M41.9724 32.4613L35.9316 38.4212V37.4767L41.0178 32.4613H41.9724Z" fill="#EFCE1A"/>
<path d="M42.932 32.4613L35.9316 39.3657V38.4212L41.9724 32.4613H42.932Z" fill="#F0CF1A"/>
<path d="M43.8917 32.4613L35.9316 40.3102V39.3657L42.932 32.4613H43.8917Z" fill="#F0D01B"/>
<path d="M44.8463 32.4613L35.9316 41.2547V40.3102L43.8917 32.4613H44.8463Z" fill="#F1D11B"/>
<path d="M45.8059 32.4613L35.9316 42.1992V41.2547L44.8463 32.4613H45.8059Z" fill="#F1D21B"/>
<path d="M46.7605 32.4613L35.9316 43.1437V42.1992L45.8059 32.4613H46.7605Z" fill="#F1D31B"/>
<path d="M47.7202 32.4613L35.9316 44.0882V43.1437L46.7605 32.4613H47.7202Z" fill="#F2D41C"/>
<path d="M48.6798 32.4613L35.9316 45.0327V44.0882L47.7202 32.4613H48.6798Z" fill="#F2D51C"/>
<path d="M49.6344 32.4613L35.9316 45.9772V45.0327L48.6798 32.4613H49.6344Z" fill="#F3D61C"/>
<path d="M50.594 32.4613L35.9316 46.9217V45.9772L49.6344 32.4613H50.594Z" fill="#F3D71C"/>
<path d="M51.5486 32.4613L35.9316 47.8662V46.9217L50.594 32.4613H51.5486Z" fill="#F3D81C"/>
<path d="M52.5083 32.4613L35.9316 48.8107V47.8662L51.5486 32.4613H52.5083Z" fill="#F4D91D"/>
<path d="M53.4679 32.4613L35.9316 49.7552V48.8107L52.5083 32.4613H53.4679Z" fill="#F4DA1D"/>
<path d="M54.4225 32.4613L35.9316 50.6997V49.7552L53.4679 32.4613H54.4225Z" fill="#F5DB1D"/>
<path d="M55.3822 32.4613L35.9316 51.6442V50.6997L54.4225 32.4613H55.3822Z" fill="#F5DC1D"/>
<path d="M56.3418 32.4613L35.9316 52.5887V51.6442L55.3822 32.4613H56.3418Z" fill="#F6DE1E"/>
<path d="M57.2964 32.4613L35.9316 53.5331V52.5887L56.3418 32.4613H57.2964Z" fill="#F6DF1E"/>
<path d="M58.2561 32.4613L35.9316 54.4776V53.5331L57.2964 32.4613H58.2561Z" fill="#F6E01E"/>
<path d="M59.2107 32.4613L35.9316 55.4221V54.4776L58.2561 32.4613H59.2107Z" fill="#F7E11E"/>
<path d="M60.1703 32.4613L35.9316 56.3666V55.4221L59.2107 32.4613H60.1703Z" fill="#F7E21E"/>
<path d="M61.13 32.4613L35.9316 57.3111V56.3666L60.1703 32.4613H61.13Z" fill="#F8E31F"/>
<path d="M62.0846 32.4613L35.9316 58.2556V57.3111L61.13 32.4613H62.0846Z" fill="#F8E41F"/>
<path d="M63.0442 32.4613L35.9316 59.2001V58.2556L62.0846 32.4613H63.0442Z" fill="#F8E51F"/>
<path d="M63.9988 32.4613L35.9316 60.1446V59.2001L63.0442 32.4613H63.9988Z" fill="#F9E61F"/>
<path d="M64.9585 32.4613L35.9316 61.0891V60.1446L63.9988 32.4613H64.9585Z" fill="#F9E71F"/>
<path d="M65.0191 33.3502L36.4216 61.5487H35.9316V61.0891L64.9585 32.4613H65.0191V33.3502Z" fill="#FAE820"/>
<path d="M65.0189 34.2948L37.381 61.5488H36.4214L65.0189 33.3503V34.2948Z" fill="#FAE920"/>
<path d="M65.0187 35.2394L38.3355 61.5489H37.3809L65.0187 34.2949V35.2394Z" fill="#FAEA20"/>
<path d="M65.0187 36.1838L39.2951 61.5488H38.3354L65.0187 35.2393V36.1838Z" fill="#FBEB20"/>
<path d="M65.0185 37.1283L40.2495 61.5488H39.2949L65.0185 36.1838V37.1283Z" fill="#FBEC21"/>
<path d="M65.0185 38.0728L41.2092 61.5488H40.2495L65.0185 37.1283V38.0728Z" fill="#FCED21"/>
<path d="M65.0188 39.0172L42.1691 61.5488H41.2095L65.0188 38.0728V39.0172Z" fill="#FCEE21"/>
<path d="M42.1689 61.5488L65.0187 39.0173V61.5488H42.1689Z" fill="#FCEE21"/>
</g>
<mask id="mask3_138_3116" style="mask-type:luminance" maskUnits="userSpaceOnUse" x="3" y="34" width="30" height="30">
<path d="M26.8142 45.7701C26.2839 46.3813 26.3495 47.3056 26.9657 47.8359C27.2385 48.0783 27.5819 48.1945 27.9254 48.1945C28.3345 48.1945 28.7436 48.0278 29.0315 47.6894L32.2236 43.5478L32.4408 43.2599V60.584C32.4408 62.1094 31.2084 63.3418 29.683 63.3418H6.11612C4.59584 63.3418 3.3584 62.1094 3.3584 60.584V37.0171C3.3584 35.4968 4.59584 34.2594 6.11612 34.2594H23.8342L23.6474 34.4766L11.7629 48.2096C11.2376 48.8258 11.3033 49.7501 11.9195 50.2805C12.1922 50.5229 12.5357 50.634 12.8741 50.634C13.2832 50.634 13.6923 50.4623 13.9802 50.134L27.5213 34.4766L27.7132 34.2594H29.683C31.2084 34.2594 32.4408 35.4968 32.4408 37.0171V38.694L32.2236 38.9667L26.8142 45.7701Z" fill="white"/>
</mask>
<g mask="url(#mask3_138_3116)">
<path d="M4.78272 34.2594L3.3584 36.3757V34.2594H4.78272Z" fill="#FF614E"/>
<path d="M6.27775 34.2594L3.3584 38.593V36.3757L4.78272 34.2594H6.27775Z" fill="#FF604F"/>
<path d="M7.77278 34.2594L3.3584 40.8052V38.593L6.27775 34.2594H7.77278Z" fill="#FF5F4F"/>
<path d="M9.26781 34.2594L3.3584 43.0225V40.8052L7.77278 34.2594H9.26781Z" fill="#FF5E50"/>
<path d="M10.7628 34.2594L3.3584 45.2398V43.0225L9.26781 34.2594H10.7628Z" fill="#FF5D50"/>
<path d="M12.2528 34.2594L3.3584 47.452V45.2398L10.7628 34.2594H12.2528Z" fill="#FF5C50"/>
<path d="M13.7478 34.2594L3.3584 49.6693V47.452L12.2528 34.2594H13.7478Z" fill="#FF5B51"/>
<path d="M15.2429 34.2594L3.3584 51.8816V49.6693L13.7478 34.2594H15.2429Z" fill="#FF5A51"/>
<path d="M16.7379 34.2594L3.3584 54.0988V51.8816L15.2429 34.2594H16.7379Z" fill="#FF5951"/>
<path d="M18.2279 34.2594L3.3584 56.3111V54.0989L16.7379 34.2594H18.2279Z" fill="#FF5852"/>
<path d="M19.7229 34.2594L3.3584 58.5284V56.3111L18.2279 34.2594H19.7229Z" fill="#FF5752"/>
<path d="M21.2179 34.2594L3.3584 60.7406V58.5284L19.7229 34.2594H21.2179Z" fill="#FF5652"/>
<path d="M22.713 34.2594L3.3584 62.9579V60.7406L21.2179 34.2594H22.713Z" fill="#FF5553"/>
<path d="M24.203 34.2594L4.59079 63.3418H3.3584V62.9579L22.713 34.2594H24.203Z" fill="#FF5453"/>
<path d="M25.698 34.2594L6.08585 63.3418H4.59082L24.203 34.2594H25.698Z" fill="#FF5354"/>
<path d="M27.1931 34.2594L7.57592 63.3418H6.08594L25.6981 34.2594H27.1931Z" fill="#FF5254"/>
<path d="M28.6884 34.2594L9.0712 63.3418H7.57617L27.1934 34.2594H28.6884Z" fill="#FF5154"/>
<path d="M30.178 34.2594L10.5658 63.3418H9.0708L28.688 34.2594H30.178Z" fill="#FF5055"/>
<path d="M31.6736 34.2594L12.0614 63.3418H10.5664L30.1786 34.2594H31.6736Z" fill="#FF4F55"/>
<path d="M32.4414 35.3403L13.5566 63.3418H12.0615L31.6737 34.2594H32.4414V35.3403Z" fill="#FF4E55"/>
<path d="M32.441 37.5576L15.0461 63.3418H13.5562L32.441 35.3403V37.5576Z" fill="#FF4D56"/>
<path d="M32.4413 39.7699L16.5414 63.3418H15.0464L32.4413 37.5576V39.7699Z" fill="#FF4C56"/>
<path d="M32.4414 41.9871L18.0365 63.3418H16.5415L32.4414 39.7698V41.9871Z" fill="#FF4B57"/>
<path d="M32.441 44.1993L19.5312 63.3417H18.0361L32.441 41.9871V44.1993Z" fill="#FF4A57"/>
<path d="M32.441 46.4166L21.0212 63.3418H19.5312L32.441 44.1993V46.4166Z" fill="#FF4957"/>
<path d="M32.4413 48.6289L22.5165 63.3418H21.0215L32.4413 46.4166V48.6289Z" fill="#FF4858"/>
<path d="M32.4409 50.8461L24.0111 63.3417H22.5161L32.4409 48.6288V50.8461Z" fill="#FF4758"/>
<path d="M32.441 53.0584L25.5063 63.3418H24.0112L32.441 50.8462V53.0584Z" fill="#FF4658"/>
<path d="M32.4411 55.2758L26.9963 63.3419H25.5063L32.4411 53.0585V55.2758Z" fill="#FF4559"/>
<path d="M32.4408 57.488L28.4911 63.3418H26.9961L32.4408 55.2758V57.488Z" fill="#FF4459"/>
<path d="M32.4409 59.7052L29.9862 63.3418H28.4912L32.4409 57.4879V59.7052Z" fill="#FF435A"/>
<path d="M32.4415 61.9225L31.4818 63.3418H29.9868L32.4415 59.7052V61.9225Z" fill="#FF425A"/>
<path d="M31.4814 63.3419L32.4411 61.9226V63.3419H31.4814Z" fill="#FF415A"/>
</g>
</svg>
