<svg width="177" height="144" viewBox="0 0 177 144" fill="none" xmlns="http://www.w3.org/2000/svg">
<path d="M151.263 53.3748L151.436 96.7462L121.771 73.9891L151.263 53.3748Z" fill="#FFF5F4"/>
<path d="M158.247 100.25C158.249 101.076 158.107 101.871 157.838 102.606C156.889 105.202 154.398 107.065 151.472 107.078L61.2882 107.429C60.4685 107.433 59.67 107.29 58.9227 107.017C58.0126 106.684 57.1768 106.158 56.471 105.455C55.1824 104.176 54.4668 102.47 54.4608 100.654L54.2648 50.6606C54.2588 48.8447 54.9599 47.1352 56.2382 45.8466C57.5176 44.5549 59.2226 43.8424 61.0397 43.833L151.226 43.4826C153.042 43.4766 154.752 44.1777 156.04 45.456C157.332 46.7354 158.045 48.4404 158.051 50.2563L158.247 100.25ZM151.436 96.7467L151.263 53.3756L121.772 73.9896L151.436 96.7467ZM67.809 100.602L144.898 100.301L115.923 78.075L108.224 83.4603C107.301 84.104 106.135 84.2424 105.107 83.8666C104.845 83.7709 104.59 83.6377 104.349 83.4738L96.6099 78.1541L67.809 100.602ZM106.26 76.5336L143.777 50.3134L68.5372 50.6065L106.26 76.5336ZM61.246 97.0956L90.7311 74.1119L61.0782 53.7301L61.246 97.0956Z" fill="url(#paint0_linear_111_4715)"/>
<path d="M40.4081 96.5081C40.4166 98.3866 38.8992 99.9133 37.0208 99.9218L23.3606 99.9752C22.9443 99.9751 22.5461 99.9057 22.1789 99.7715C20.8793 99.2964 19.9512 98.0522 19.9468 96.5881C19.9384 94.7096 21.4558 93.1829 23.3342 93.1744L36.9944 93.121C38.8717 93.1156 40.3996 94.63 40.4081 96.5081Z" fill="url(#paint1_linear_111_4715)"/>
<path d="M34.9556 60.9056C34.9641 62.784 33.4454 64.3141 31.5716 64.3204L23.1354 64.3537C22.7222 64.3547 22.3253 64.282 21.955 64.1466C20.6584 63.6727 19.7292 62.4316 19.7218 60.9663C19.7164 59.089 21.2307 57.5611 23.1092 57.5527L31.5453 57.5194C33.4192 57.5131 34.9505 59.0284 34.9556 60.9056Z" fill="url(#paint2_linear_111_4715)"/>
<path d="M16.9055 81.7339C16.9109 83.6112 15.3965 85.1391 13.5192 85.1444L7.25076 85.17C6.83758 85.171 6.44061 85.0983 6.07032 84.963C4.77376 84.489 3.84455 83.2479 3.83711 81.7826C3.83173 79.9053 5.34606 78.3774 7.22449 78.369L13.4919 78.3465C15.3699 78.3382 16.897 79.8557 16.9055 81.7339Z" fill="url(#paint3_linear_111_4715)"/>
<defs>
<linearGradient id="paint0_linear_111_4715" x1="67.5078" y1="-43.2928" x2="242.792" y2="28.8363" gradientUnits="userSpaceOnUse">
<stop stop-color="#FF6C4A"/>
<stop offset="1" stop-color="#FF2F61"/>
</linearGradient>
<linearGradient id="paint1_linear_111_4715" x1="22.1143" y1="80.4489" x2="51.6806" y2="93.1004" gradientUnits="userSpaceOnUse">
<stop stop-color="#FF6C4A"/>
<stop offset="1" stop-color="#FF2F61"/>
</linearGradient>
<linearGradient id="paint2_linear_111_4715" x1="21.686" y1="47.7849" x2="43.9223" y2="57.1446" gradientUnits="userSpaceOnUse">
<stop stop-color="#FF6C4A"/>
<stop offset="1" stop-color="#FF2F61"/>
</linearGradient>
<linearGradient id="paint3_linear_111_4715" x1="5.71536" y1="69.8294" x2="24.9098" y2="77.8376" gradientUnits="userSpaceOnUse">
<stop stop-color="#FF6C4A"/>
<stop offset="1" stop-color="#FF2F61"/>
</linearGradient>
</defs>
</svg>
