<svg width="92" height="23" viewBox="0 0 92 23" fill="none" xmlns="http://www.w3.org/2000/svg">
<path d="M29.7702 14.0086V6.42725C29.7702 5.98338 29.7347 5.07492 29.6637 3.70188L30.6136 7.03091L32.8684 14.0086H34.7327L36.9876 7.03091C37.0211 6.92635 37.0577 6.8084 37.0973 6.67705L37.1463 6.51299C37.3397 5.85946 37.5975 4.92243 37.9197 3.70188C37.8664 5.0039 37.8383 5.74073 37.8354 5.91236C37.8324 6.08399 37.8309 6.25562 37.8309 6.42725V14.0086H40.1568V1.50028H36.668L34.3687 8.8419L33.8094 10.8482L33.3833 9.17037L33.188 8.49568L30.9509 1.50028H27.4443V14.0086H29.7702ZM44.8461 14.1861C46.2547 14.1861 47.3081 13.5558 48.0065 12.2952H48.0597C48.1189 12.893 48.2979 13.3457 48.5968 13.6535C48.8957 13.9612 49.3588 14.1151 49.9861 14.1151C50.1637 14.1151 50.319 14.1092 50.4522 14.0973C50.5854 14.0855 50.7111 14.0707 50.8295 14.0529C50.9478 14.0352 51.0662 14.0115 51.1846 13.9819C51.3029 13.9523 51.4361 13.9198 51.5841 13.8843V12.5349C51.4065 12.5704 51.223 12.5882 51.0337 12.5882C50.7496 12.5882 50.5469 12.4861 50.4256 12.2819C50.3042 12.0777 50.2436 11.7064 50.2436 11.1678V7.67008C50.2436 6.56928 49.9151 5.72001 49.2582 5.12227C48.6012 4.52452 47.6662 4.22565 46.4529 4.22565C45.2515 4.22565 44.3031 4.46682 43.6077 4.94916C42.9123 5.4315 42.4847 6.14021 42.3249 7.0753L44.926 7.19958C44.9793 6.71428 45.1139 6.36658 45.3299 6.15649C45.5459 5.94639 45.8848 5.84134 46.3464 5.84134C46.8435 5.84134 47.2016 5.99373 47.4206 6.29852C47.6395 6.60331 47.749 7.06938 47.749 7.69672V8.18498L45.6806 8.22048C44.4496 8.23232 43.51 8.49864 42.862 9.01945C42.2139 9.54026 41.8899 10.2978 41.8899 11.2921C41.8899 12.2094 42.1503 12.9211 42.6711 13.4271C43.1919 13.9331 43.9169 14.1861 44.8461 14.1861ZM45.6451 12.4461C45.2959 12.4461 45.0163 12.3352 44.8062 12.1132C44.5961 11.8913 44.491 11.5525 44.491 11.0968C44.491 10.7417 44.5546 10.4576 44.6819 10.2445C44.8091 10.0315 44.9941 9.87316 45.2367 9.76959C45.4794 9.66602 45.8907 9.6024 46.4707 9.57873L47.749 9.56098V10.0492C47.749 10.4694 47.6573 10.8674 47.4738 11.2432C47.2903 11.6191 47.0373 11.9135 46.7148 12.1265C46.3923 12.3396 46.0357 12.4461 45.6451 12.4461ZM55.2169 14.0086V9.29465C55.2169 8.3063 55.3901 7.5606 55.7363 7.05754C56.0825 6.55449 56.5663 6.30296 57.1877 6.30296C57.4955 6.30296 57.8506 6.34735 58.253 6.43612V4.34993C58.0577 4.26116 57.8003 4.21677 57.4807 4.21677C57.0901 4.21677 56.7646 4.28335 56.5042 4.41651C56.2438 4.54967 56.0189 4.75385 55.8295 5.02905C55.6401 5.30425 55.4241 5.77919 55.1814 6.45388H55.1459C55.1459 6.27633 55.1311 5.91679 55.1015 5.37527C55.072 4.83375 55.0483 4.50972 55.0305 4.40319H52.6514C52.6691 4.67544 52.6854 4.98763 52.7002 5.33976C52.715 5.6919 52.7224 6.13133 52.7224 6.65806V14.0086H55.2169ZM62.241 14.1684C63.0281 14.1684 63.7295 14.0677 64.345 13.8665V12.3219C63.9839 12.4047 63.7058 12.4461 63.5105 12.4461C63.1376 12.4461 62.8624 12.3352 62.6849 12.1132C62.5073 11.8913 62.4186 11.5466 62.4186 11.079V6.0899H64.2384V4.40319H62.4186V2.14833H60.8561L60.0749 4.40319H58.7344V6.0899H59.9506V11.7537C59.9506 12.5645 60.1489 13.1696 60.5454 13.5691C60.9419 13.9686 61.5071 14.1684 62.241 14.1684ZM68.3152 2.6721V0.834473H65.8206V2.6721H68.3152ZM68.3152 14.0086V4.40319H65.8206V14.0086H68.3152ZM73.3507 14.0086V8.85966C73.3507 8.04885 73.5357 7.38453 73.9056 6.86668C74.2754 6.34883 74.7622 6.0899 75.3659 6.0899C76.5081 6.0899 77.0792 6.93326 77.0792 8.61997V14.0086H79.5649V7.90978C79.5649 6.70245 79.2927 5.78511 78.7482 5.15778C78.2037 4.53044 77.4225 4.21677 76.4045 4.21677C75.7003 4.21677 75.0936 4.38248 74.5847 4.7139C74.0757 5.04533 73.6525 5.57797 73.3152 6.31184H73.2797C73.2797 6.12837 73.2649 5.79251 73.2353 5.30425C73.2057 4.81599 73.182 4.51564 73.1643 4.40319H70.7851C70.8029 4.6636 70.8192 4.95803 70.834 5.2865C70.8488 5.61496 70.8562 6.03664 70.8562 6.55153V14.0086H73.3507ZM86.1895 14.1861C87.7164 14.1861 88.9119 13.7437 89.776 12.8589C90.64 11.9742 91.0721 10.7535 91.0721 9.197C91.0721 7.59315 90.6593 6.36362 89.8337 5.50843C89.0081 4.65324 87.8111 4.22565 86.2427 4.22565C84.7099 4.22565 83.5174 4.66804 82.6651 5.55282C81.8129 6.4376 81.3868 7.65233 81.3868 9.197C81.3868 10.7476 81.8129 11.9668 82.6651 12.8545C83.5174 13.7422 84.6922 14.1861 86.1895 14.1861ZM86.1628 12.4816C85.4645 12.4816 84.9304 12.202 84.5605 11.6427C84.1906 11.0835 84.0056 10.2682 84.0056 9.197C84.0056 7.02499 84.7632 5.93899 86.2783 5.93899C86.9884 5.93899 87.53 6.19643 87.9028 6.71132C88.2757 7.22621 88.4621 8.05477 88.4621 9.197C88.4621 11.3868 87.6957 12.4816 86.1628 12.4816Z" fill="white"/>
<path opacity="0.595853" d="M52.1722 21.8415C52.3616 21.8415 52.537 21.8112 52.6984 21.7507C52.8599 21.6901 52.9957 21.6094 53.1059 21.5085C53.2162 21.4076 53.3077 21.3051 53.3807 21.2011C53.4537 21.0971 53.5134 20.9892 53.56 20.8775L53.0105 20.7052C52.9422 20.8759 52.8327 21.0203 52.6821 21.1383C52.5316 21.2563 52.3585 21.3152 52.1629 21.3152C51.8617 21.3152 51.6211 21.1895 51.4411 20.938C51.261 20.6865 51.171 20.345 51.171 19.9135C51.171 19.4881 51.2602 19.149 51.4387 18.8959C51.6172 18.6429 51.8586 18.5164 52.1629 18.5164C52.4827 18.5164 52.7419 18.6949 52.9406 19.0519L53.4669 18.8796C53.3582 18.6281 53.1929 18.417 52.9709 18.2463C52.7489 18.0755 52.4827 17.9901 52.1722 17.9901C51.691 17.9901 51.2982 18.1632 50.994 18.5094C50.6897 18.8556 50.5376 19.3236 50.5376 19.9135C50.5376 20.5127 50.6921 20.9838 51.001 21.3269C51.3099 21.6699 51.7003 21.8415 52.1722 21.8415ZM55.0735 21.8415C55.2598 21.8415 55.4267 21.8104 55.5742 21.7483C55.7216 21.6862 55.8404 21.6063 55.9304 21.5085C56.0204 21.4107 56.095 21.2974 56.1539 21.1685C56.2129 21.0397 56.2541 20.9132 56.2774 20.789C56.3006 20.6648 56.3123 20.5406 56.3123 20.4164C56.3123 20.0159 56.2067 19.6775 55.9956 19.4012C55.7845 19.1249 55.4771 18.9867 55.0735 18.9867C54.6668 18.9867 54.3579 19.1249 54.1468 19.4012C53.9357 19.6775 53.8301 20.0159 53.8301 20.4164C53.8301 20.5468 53.8417 20.6749 53.865 20.8006C53.8883 20.9264 53.9302 21.0537 53.9908 21.1825C54.0513 21.3114 54.1274 21.4231 54.219 21.5178C54.3105 21.6125 54.4301 21.6901 54.5776 21.7507C54.725 21.8112 54.8903 21.8415 55.0735 21.8415ZM55.0735 21.3385C54.9028 21.3385 54.7537 21.2625 54.6264 21.1103C54.4992 20.9582 54.4355 20.7269 54.4355 20.4164C54.4355 20.0998 54.4999 19.8661 54.6288 19.7156C54.7576 19.565 54.9059 19.4897 55.0735 19.4897C55.2412 19.4897 55.3886 19.565 55.5159 19.7156C55.6432 19.8661 55.7069 20.0998 55.7069 20.4164C55.7069 20.7269 55.6432 20.9582 55.5159 21.1103C55.3886 21.2625 55.2412 21.3385 55.0735 21.3385ZM57.4346 21.7577V17.9529H56.8478V21.7577H57.4346ZM59.2136 21.8415C59.3999 21.8415 59.5668 21.8104 59.7142 21.7483C59.8617 21.6862 59.9805 21.6063 60.0705 21.5085C60.1605 21.4107 60.235 21.2974 60.294 21.1685C60.353 21.0397 60.3942 20.9132 60.4174 20.789C60.4407 20.6648 60.4524 20.5406 60.4524 20.4164C60.4524 20.0159 60.3468 19.6775 60.1357 19.4012C59.9246 19.1249 59.6172 18.9867 59.2136 18.9867C58.8069 18.9867 58.498 19.1249 58.2869 19.4012C58.0757 19.6775 57.9702 20.0159 57.9702 20.4164C57.9702 20.5468 57.9818 20.6749 58.0051 20.8006C58.0284 20.9264 58.0703 21.0537 58.1308 21.1825C58.1914 21.3114 58.2675 21.4231 58.359 21.5178C58.4506 21.6125 58.5702 21.6901 58.7176 21.7507C58.8651 21.8112 59.0304 21.8415 59.2136 21.8415ZM59.2136 21.3385C59.0428 21.3385 58.8938 21.2625 58.7665 21.1103C58.6392 20.9582 58.5756 20.7269 58.5756 20.4164C58.5756 20.0998 58.64 19.8661 58.7689 19.7156C58.8977 19.565 59.0459 19.4897 59.2136 19.4897C59.3813 19.4897 59.5287 19.565 59.656 19.7156C59.7833 19.8661 59.847 20.0998 59.847 20.4164C59.847 20.7269 59.7833 20.9582 59.656 21.1103C59.5287 21.2625 59.3813 21.3385 59.2136 21.3385ZM61.5281 21.7577V20.3885C61.5281 20.1277 61.5817 19.9189 61.6888 19.7621C61.7959 19.6053 61.9504 19.5269 62.1522 19.5269C62.267 19.5269 62.3835 19.5456 62.5014 19.5828V19.0473C62.4114 19.0069 62.295 18.9867 62.1522 18.9867C62 18.9867 61.8689 19.024 61.7587 19.0985C61.6484 19.173 61.5638 19.2599 61.5048 19.3593V19.0706H60.9367V21.7577H61.5281ZM63.7728 21.8415C64.1112 21.8415 64.3728 21.7646 64.5575 21.611C64.7422 21.4573 64.8346 21.2702 64.8346 21.0498C64.8346 20.6928 64.5583 20.4258 64.0057 20.2488C63.9901 20.2426 63.9653 20.2348 63.9311 20.2255C63.8008 20.182 63.6999 20.1463 63.6284 20.1184C63.557 20.0904 63.488 20.0462 63.4212 19.9857C63.3545 19.9251 63.3211 19.856 63.3211 19.7784C63.3211 19.6853 63.3591 19.61 63.4352 19.5526C63.5112 19.4951 63.6207 19.4664 63.7635 19.4664C64.0243 19.4664 64.2463 19.5921 64.4294 19.8436L64.8206 19.6061C64.7244 19.426 64.5785 19.2778 64.3829 19.1614C64.1873 19.0449 63.9793 18.9867 63.7588 18.9867C63.4639 18.9867 63.2171 19.0581 63.0184 19.201C62.8197 19.3438 62.7203 19.5332 62.7203 19.7691C62.7203 19.8902 62.7421 19.9965 62.7855 20.0881C62.829 20.1797 62.8926 20.2558 62.9765 20.3163C63.0603 20.3769 63.1402 20.425 63.2163 20.4607C63.2924 20.4964 63.3863 20.5329 63.498 20.5701C63.5105 20.5732 63.5306 20.5794 63.5586 20.5887C63.7138 20.6384 63.8302 20.678 63.9079 20.7075C63.9855 20.737 64.0592 20.7812 64.1291 20.8402C64.1989 20.8992 64.2339 20.9675 64.2339 21.0451C64.2339 21.1414 64.1912 21.2182 64.1058 21.2757C64.0204 21.3331 63.9048 21.3618 63.7588 21.3618C63.4608 21.3618 63.2186 21.2252 63.0323 20.952L62.6086 21.1988C62.7172 21.3975 62.8732 21.5543 63.0766 21.6692C63.2799 21.784 63.512 21.8415 63.7728 21.8415ZM67.5496 21.8415C67.7359 21.8415 67.9028 21.8104 68.0503 21.7483C68.1977 21.6862 68.3165 21.6063 68.4065 21.5085C68.4966 21.4107 68.5711 21.2974 68.6301 21.1685C68.6891 21.0397 68.7302 20.9132 68.7535 20.789C68.7768 20.6648 68.7884 20.5406 68.7884 20.4164C68.7884 20.0159 68.6828 19.6775 68.4717 19.4012C68.2606 19.1249 67.9533 18.9867 67.5496 18.9867C67.1429 18.9867 66.834 19.1249 66.6229 19.4012C66.4118 19.6775 66.3062 20.0159 66.3062 20.4164C66.3062 20.5468 66.3179 20.6749 66.3412 20.8006C66.3644 20.9264 66.4063 21.0537 66.4669 21.1825C66.5274 21.3114 66.6035 21.4231 66.6951 21.5178C66.7867 21.6125 66.9062 21.6901 67.0537 21.7507C67.2011 21.8112 67.3665 21.8415 67.5496 21.8415ZM67.5496 21.3385C67.3789 21.3385 67.2299 21.2625 67.1026 21.1103C66.9753 20.9582 66.9116 20.7269 66.9116 20.4164C66.9116 20.0998 66.9761 19.8661 67.1049 19.7156C67.2337 19.565 67.382 19.4897 67.5496 19.4897C67.7173 19.4897 67.8648 19.565 67.9921 19.7156C68.1194 19.8661 68.183 20.0998 68.183 20.4164C68.183 20.7269 68.1194 20.9582 67.9921 21.1103C67.8648 21.2625 67.7173 21.3385 67.5496 21.3385ZM70.0691 21.7577V19.5735H70.6279V19.0706H70.0691V18.8237C70.0691 18.6933 70.0916 18.5987 70.1366 18.5397C70.1816 18.4807 70.2523 18.4512 70.3485 18.4512H70.6885V17.9529H70.2647C70.0132 17.9529 69.8184 18.022 69.6802 18.1601C69.5421 18.2983 69.473 18.5055 69.473 18.7818V19.0706H69.0632V19.5735H69.473V21.7577H70.0691ZM72.3464 22.8567C72.5792 22.8567 72.774 22.8008 72.9308 22.6891C73.0876 22.5773 73.2157 22.3848 73.315 22.1116L74.428 19.0706H73.7854L73.3616 20.4537C73.2622 20.8107 73.2048 21.0172 73.1893 21.0731H73.1707C73.1303 20.9147 73.0713 20.7083 72.9937 20.4537L72.5326 19.0706H71.8853L72.8912 21.6925L72.8027 21.9579C72.75 22.1069 72.6793 22.2117 72.5909 22.2723C72.5024 22.3328 72.3883 22.3631 72.2486 22.3631H72.1647V22.8567H72.3464ZM75.8717 21.8415C76.058 21.8415 76.2249 21.8104 76.3723 21.7483C76.5198 21.6862 76.6386 21.6063 76.7286 21.5085C76.8186 21.4107 76.8932 21.2974 76.9521 21.1685C77.0111 21.0397 77.0523 20.9132 77.0756 20.789C77.0988 20.6648 77.1105 20.5406 77.1105 20.4164C77.1105 20.0159 77.0049 19.6775 76.7938 19.4012C76.5827 19.1249 76.2753 18.9867 75.8717 18.9867C75.465 18.9867 75.1561 19.1249 74.945 19.4012C74.7339 19.6775 74.6283 20.0159 74.6283 20.4164C74.6283 20.5468 74.6399 20.6749 74.6632 20.8006C74.6865 20.9264 74.7284 21.0537 74.789 21.1825C74.8495 21.3114 74.9256 21.4231 75.0172 21.5178C75.1087 21.6125 75.2283 21.6901 75.3757 21.7507C75.5232 21.8112 75.6885 21.8415 75.8717 21.8415ZM75.8717 21.3385C75.701 21.3385 75.5519 21.2625 75.4246 21.1103C75.2973 20.9582 75.2337 20.7269 75.2337 20.4164C75.2337 20.0998 75.2981 19.8661 75.427 19.7156C75.5558 19.565 75.7041 19.4897 75.8717 19.4897C76.0394 19.4897 76.1868 19.565 76.3141 19.7156C76.4414 19.8661 76.5051 20.0998 76.5051 20.4164C76.5051 20.7269 76.4414 20.9582 76.3141 21.1103C76.1868 21.2625 76.0394 21.3385 75.8717 21.3385ZM78.4657 21.8415C78.6488 21.8415 78.8017 21.7996 78.9244 21.7157C79.047 21.6319 79.1301 21.5419 79.1735 21.4456H79.1782V21.7577H79.7463V19.0706H79.1596V20.5748C79.1596 20.7828 79.1099 20.9621 79.0105 21.1127C78.9112 21.2632 78.773 21.3385 78.5961 21.3385C78.3011 21.3385 78.1536 21.129 78.1536 20.7098V19.0706H77.5622V20.7843C77.5622 20.9861 77.5902 21.16 77.646 21.3059C77.7019 21.4518 77.7764 21.5613 77.8696 21.6342C77.9627 21.7072 78.0582 21.76 78.156 21.7926C78.2538 21.8252 78.357 21.8415 78.4657 21.8415ZM80.9805 21.7577V20.3885C80.9805 20.1277 81.034 19.9189 81.1411 19.7621C81.2482 19.6053 81.4027 19.5269 81.6045 19.5269C81.7194 19.5269 81.8358 19.5456 81.9538 19.5828V19.0473C81.8637 19.0069 81.7473 18.9867 81.6045 18.9867C81.4524 18.9867 81.3212 19.024 81.211 19.0985C81.1008 19.173 81.0162 19.2599 80.9572 19.3593V19.0706H80.389V21.7577H80.9805ZM84.0634 21.7577V17.9529H83.4766V21.7577H84.0634ZM85.4186 18.6701V18.0227H84.7852V18.6701H85.4186ZM85.3953 21.7577V19.0706H84.8132V21.7577H85.3953ZM86.8902 21.7577V19.5735H87.449V19.0706H86.8902V18.8237C86.8902 18.6933 86.9127 18.5987 86.9577 18.5397C87.0027 18.4807 87.0734 18.4512 87.1696 18.4512H87.5096V17.9529H87.0858C86.8343 17.9529 86.6395 18.022 86.5013 18.1601C86.3632 18.2983 86.2941 18.5055 86.2941 18.7818V19.0706H85.8843V19.5735H86.2941V21.7577H86.8902ZM88.9532 21.8415C89.2451 21.8415 89.4888 21.7747 89.6844 21.6412C89.88 21.5077 90.0213 21.3416 90.1082 21.1429L89.6145 20.9753C89.5556 21.0902 89.4694 21.1841 89.3561 21.257C89.2428 21.33 89.1116 21.3665 88.9626 21.3665C88.7483 21.3665 88.5799 21.2927 88.4573 21.1453C88.3346 20.9978 88.2733 20.8216 88.2733 20.6167H90.1361C90.1454 20.5391 90.1501 20.4599 90.1501 20.3792C90.1501 19.9663 90.0352 19.631 89.8055 19.3733C89.5757 19.1156 89.2839 18.9867 88.93 18.9867C88.5698 18.9867 88.271 19.1148 88.0335 19.3709C87.796 19.6271 87.6772 19.9709 87.6772 20.4025C87.6772 20.8402 87.796 21.1895 88.0335 21.4503C88.271 21.7111 88.5776 21.8415 88.9532 21.8415ZM89.5493 20.2022H88.2826C88.2857 20.0035 88.3455 19.8304 88.4619 19.683C88.5784 19.5355 88.7344 19.4618 88.93 19.4618C89.1256 19.4618 89.2777 19.5339 89.3863 19.6783C89.495 19.8227 89.5493 19.9973 89.5493 20.2022Z" fill="white"/>
<path d="M5.36463 3.00723L5.36463 21.5544C5.36454 21.7319 5.27313 21.8961 5.12429 21.9862C4.97546 22.0762 4.7914 22.0786 4.64037 21.9925L0.250929 19.4861C0.0959997 19.3978 -0.00015304 19.2301 -0.000244141 19.048L-0.000244141 0.500853C-0.00015536 0.323353 0.0912567 0.159136 0.240091 0.0691032C0.388925 -0.0209274 0.572986 -0.0233479 0.724014 0.0627384L5.11345 2.56911C5.26838 2.65742 5.36454 2.82514 5.36463 3.00723Z" fill="white"/>
<path d="M12.5177 3.0082L12.5177 21.5554C12.5176 21.7329 12.4262 21.8971 12.2774 21.9871C12.1285 22.0772 11.9445 22.0796 11.7934 21.9935L7.40401 19.4871C7.24908 19.3988 7.15292 19.2311 7.15283 19.049L7.15283 0.501829C7.15292 0.324329 7.24433 0.160112 7.39317 0.0700798C7.542 -0.0199509 7.72606 -0.0223713 7.87709 0.063715L12.2665 2.57009C12.4215 2.6584 12.5176 2.82612 12.5177 3.0082Z" fill="white"/>
<path d="M19.6698 3.0082V21.5554C19.6697 21.7329 19.5783 21.8971 19.4295 21.9871C19.2806 22.0772 19.0966 22.0796 18.9455 21.9935L14.5561 19.4871C14.4012 19.3988 14.305 19.2311 14.3049 19.049L14.3049 0.501829C14.305 0.324329 14.3964 0.160112 14.5453 0.0700798C14.6941 -0.0199509 14.8782 -0.0223713 15.0292 0.063715L19.4186 2.57009C19.5736 2.6584 19.6697 2.82612 19.6698 3.0082Z" fill="white"/>
</svg>
