<svg width="80" height="24" viewBox="0 0 80 24" fill="none" xmlns="http://www.w3.org/2000/svg">
<path d="M27.3486 15.0862V9.53095H28.6325C29.596 9.53095 30.4169 9.18644 31.0952 8.49742C31.7734 7.80841 32.1125 6.97943 32.1125 6.0105V3.87078C32.1125 2.86416 31.8138 2.03519 31.2163 1.38385C30.5757 0.700216 29.7144 0.358398 28.6325 0.358398H25.1362V15.0862H27.3486ZM28.689 7.33471H27.3486V2.62731H28.689C29.0766 2.62731 29.3847 2.74439 29.6135 2.97855C29.8423 3.21271 29.9567 3.52358 29.9567 3.91115V6.05895C29.9567 6.40884 29.8342 6.70894 29.5893 6.95924C29.3444 7.20955 29.0443 7.33471 28.689 7.33471ZM35.6394 15.0862L36.1803 11.703H38.4977L39.0225 15.0862H41.348L38.8853 0.358398H35.8251L33.3301 15.0862H35.6394ZM38.1667 9.53903H36.5195L37.3431 3.73351L38.1667 9.53903ZM46.304 15.0862V9.53095H47.5878C48.5514 9.53095 49.3723 9.18644 50.0505 8.49742C50.7288 7.80841 51.0679 6.97943 51.0679 6.0105V3.87078C51.0679 2.86416 50.7691 2.03519 50.1716 1.38385C49.5311 0.700216 48.6698 0.358398 47.5878 0.358398H44.0916V15.0862H46.304ZM47.6443 7.33471H46.304V2.62731H47.6443C48.0319 2.62731 48.3401 2.74439 48.5689 2.97855C48.7976 3.21271 48.912 3.52358 48.912 3.91115V6.05895C48.912 6.40884 48.7896 6.70894 48.5446 6.95924C48.2997 7.20955 47.9996 7.33471 47.6443 7.33471ZM60.0288 15.0862V12.8657H55.927V8.83655H58.9226V6.60801H55.927V2.57887H60.0288V0.358398H53.7146V15.0862H60.0288ZM64.6457 15.0862V9.53095H65.9214C65.9914 9.53095 66.0587 9.52826 66.1233 9.52288L67.4798 15.0862H69.8779L68.2307 8.65084C69.022 7.93491 69.4177 7.05479 69.4177 6.0105V3.87078C69.4177 2.81033 69.162 1.98136 68.6506 1.38385C68.0746 0.700216 67.1676 0.358398 65.9295 0.358398H62.4333V15.0862H64.6457ZM65.986 7.33471H64.6457V2.62731H65.986C66.8312 2.62731 67.2537 3.05526 67.2537 3.91115V6.05895C67.2537 6.40884 67.1313 6.70894 66.8863 6.95924C66.6414 7.20955 66.3413 7.33471 65.986 7.33471ZM79.0003 15.0862V12.8818H74.9147L79.0003 2.57887V0.358398H72.5246V2.57887H76.6184L72.5246 12.8818V15.0862H79.0003Z" fill="white"/>
<path d="M26.7758 22.6291V22.3053H25.1727V19.0677H24.781V22.6291H26.7758ZM28.2537 22.7126C28.5113 22.7126 28.7341 22.6613 28.9221 22.5586C29.1101 22.4559 29.2615 22.314 29.3764 22.133L29.0944 21.945C29.0109 22.0843 28.9003 22.193 28.7628 22.2714C28.6253 22.3497 28.4521 22.3889 28.2432 22.3889C27.9856 22.3889 27.7819 22.3001 27.6322 22.1225C27.4825 21.945 27.4007 21.7309 27.3868 21.4802H29.3973C29.4008 21.4454 29.4025 21.3949 29.4025 21.3288C29.4025 21.099 29.352 20.891 29.2511 20.7048C29.1501 20.5185 29.0109 20.3714 28.8333 20.2635C28.6558 20.1556 28.4573 20.1016 28.238 20.1016C28.0047 20.1016 27.7967 20.1573 27.614 20.2687C27.4312 20.3801 27.2885 20.5351 27.1858 20.7335C27.0831 20.9319 27.0317 21.1565 27.0317 21.4071C27.0317 21.6578 27.0839 21.8823 27.1884 22.0808C27.2928 22.2792 27.4373 22.4341 27.6218 22.5455C27.8063 22.6569 28.0169 22.7126 28.2537 22.7126ZM29.0474 21.1878H27.4077C27.446 20.9685 27.5374 20.7866 27.6818 20.6421C27.8263 20.4976 28.0117 20.4254 28.238 20.4254C28.4712 20.4254 28.6558 20.4889 28.7915 20.616C28.9273 20.7431 29.0126 20.9337 29.0474 21.1878ZM30.99 22.7126C31.1641 22.7126 31.3242 22.6735 31.4704 22.5951C31.6166 22.5168 31.7402 22.408 31.8412 22.2688V22.6291H32.1963V20.1852H31.8412V20.5507C31.7402 20.408 31.6158 20.2974 31.4678 20.2191C31.3199 20.1408 31.1571 20.1016 30.9796 20.1016C30.7463 20.1016 30.5383 20.1573 30.3555 20.2687C30.1728 20.3801 30.03 20.5342 29.9273 20.7309C29.8246 20.9276 29.7733 21.1512 29.7733 21.4019C29.7733 21.656 29.8255 21.8823 29.9299 22.0808C30.0344 22.2792 30.1788 22.4341 30.3634 22.5455C30.5479 22.6569 30.7568 22.7126 30.99 22.7126ZM30.9796 22.3889C30.8159 22.3889 30.6697 22.3471 30.5409 22.2635C30.4121 22.18 30.3111 22.0634 30.238 21.9137C30.1649 21.764 30.1284 21.5934 30.1284 21.4019C30.1284 21.2139 30.1649 21.0459 30.238 20.898C30.3111 20.75 30.4121 20.6343 30.5409 20.5507C30.6697 20.4672 30.8159 20.4254 30.9796 20.4254C31.1467 20.4254 31.2955 20.4672 31.426 20.5507C31.5566 20.6343 31.6584 20.7509 31.7315 20.9006C31.8046 21.0503 31.8412 21.2191 31.8412 21.4071C31.8412 21.5951 31.8046 21.764 31.7315 21.9137C31.6584 22.0634 31.5566 22.18 31.426 22.2635C31.2955 22.3471 31.1467 22.3889 30.9796 22.3889ZM33.9196 22.7126C34.0936 22.7126 34.2538 22.6735 34.4 22.5951C34.5462 22.5168 34.6698 22.408 34.7708 22.2688V22.6291H35.1259V18.8379H34.7708V20.5507C34.6698 20.408 34.5453 20.2974 34.3974 20.2191C34.2494 20.1408 34.0867 20.1016 33.9091 20.1016C33.6759 20.1016 33.4679 20.1573 33.2851 20.2687C33.1023 20.3801 32.9596 20.5342 32.8569 20.7309C32.7542 20.9276 32.7028 21.1512 32.7028 21.4019C32.7028 21.656 32.755 21.8823 32.8595 22.0808C32.9639 22.2792 33.1084 22.4341 33.2929 22.5455C33.4774 22.6569 33.6863 22.7126 33.9196 22.7126ZM33.9091 22.3889C33.7455 22.3889 33.5993 22.3471 33.4705 22.2635C33.3417 22.18 33.2407 22.0634 33.1676 21.9137C33.0945 21.764 33.0579 21.5934 33.0579 21.4019C33.0579 21.2139 33.0945 21.0459 33.1676 20.898C33.2407 20.75 33.3417 20.6343 33.4705 20.5507C33.5993 20.4672 33.7455 20.4254 33.9091 20.4254C34.0762 20.4254 34.225 20.4672 34.3556 20.5507C34.4862 20.6343 34.588 20.7509 34.6611 20.9006C34.7342 21.0503 34.7708 21.2191 34.7708 21.4071C34.7708 21.5951 34.7342 21.764 34.6611 21.9137C34.588 22.0634 34.4862 22.18 34.3556 22.2635C34.225 22.3471 34.0762 22.3889 33.9091 22.3889ZM36.1546 19.71C36.2312 19.71 36.2973 19.6821 36.353 19.6264C36.4087 19.5707 36.4366 19.5046 36.4366 19.428C36.4366 19.3479 36.4087 19.2809 36.353 19.2269C36.2973 19.173 36.2312 19.146 36.1546 19.146C36.0745 19.146 36.0075 19.173 35.9535 19.2269C35.8996 19.2809 35.8726 19.3462 35.8726 19.4228C35.8726 19.5028 35.8996 19.5707 35.9535 19.6264C36.0075 19.6821 36.0745 19.71 36.1546 19.71ZM36.3321 22.6291V20.1852H35.977V22.6291H36.3321ZM37.5384 22.6291V21.4071C37.5384 21.1077 37.6011 20.8693 37.7264 20.6917C37.8518 20.5142 38.0397 20.4254 38.2904 20.4254C38.7221 20.4254 38.9379 20.6673 38.9379 21.1512V22.6291H39.293V20.9946C39.293 20.8101 39.2504 20.6499 39.1651 20.5142C39.0798 20.3784 38.9649 20.2757 38.8204 20.2061C38.676 20.1364 38.5184 20.1016 38.3478 20.1016C38.1668 20.1016 38.0075 20.1443 37.87 20.2296C37.7325 20.3149 37.622 20.4358 37.5384 20.5925V20.1852H37.1833V22.6291H37.5384ZM41.1834 23.6735C41.3923 23.6735 41.5785 23.6248 41.7422 23.5273C41.9058 23.4298 42.0329 23.2949 42.1234 23.1226C42.2139 22.9502 42.2591 22.7544 42.2591 22.5351V20.1852H41.904V20.5507C41.8031 20.408 41.6786 20.2974 41.5307 20.2191C41.3827 20.1408 41.22 20.1016 41.0424 20.1016C40.8092 20.1016 40.6011 20.1573 40.4184 20.2687C40.2356 20.3801 40.0929 20.5342 39.9902 20.7309C39.8875 20.9276 39.8361 21.1512 39.8361 21.4019C39.8361 21.656 39.8883 21.8823 39.9928 22.0808C40.0972 22.2792 40.2417 22.4341 40.4262 22.5455C40.6107 22.6569 40.8196 22.7126 41.0529 22.7126C41.2269 22.7126 41.3871 22.6735 41.5333 22.5951C41.6795 22.5168 41.8031 22.408 41.904 22.2688V22.5351C41.904 22.7718 41.837 22.9668 41.703 23.12C41.569 23.2731 41.3958 23.3497 41.1834 23.3497H40.1703V23.6735H41.1834ZM41.0424 22.3889C40.8788 22.3889 40.7326 22.3471 40.6038 22.2635C40.475 22.18 40.374 22.0634 40.3009 21.9137C40.2278 21.764 40.1912 21.5934 40.1912 21.4019C40.1912 21.2139 40.2278 21.0459 40.3009 20.898C40.374 20.75 40.475 20.6343 40.6038 20.5507C40.7326 20.4672 40.8788 20.4254 41.0424 20.4254C41.2095 20.4254 41.3583 20.4672 41.4889 20.5507C41.6194 20.6343 41.7213 20.7509 41.7944 20.9006C41.8675 21.0503 41.904 21.2191 41.904 21.4071C41.904 21.5951 41.8675 21.764 41.7944 21.9137C41.7213 22.0634 41.6194 22.18 41.4889 22.2635C41.3583 22.3471 41.2095 22.3889 41.0424 22.3889ZM44.5621 22.6291V21.2661H45.3193C45.65 21.2661 45.9154 21.1687 46.1156 20.9737C46.3158 20.7787 46.4159 20.5107 46.4159 20.1695C46.4159 19.8249 46.3201 19.5551 46.1287 19.3601C45.9372 19.1651 45.6813 19.0677 45.361 19.0677H44.1704V22.6291H44.5621ZM45.3088 20.9424H44.5621V19.3914H45.3088C45.5421 19.3914 45.7196 19.4576 45.8415 19.5899C45.9633 19.7222 46.0242 19.9154 46.0242 20.1695C46.0242 20.4236 45.9633 20.616 45.8415 20.7465C45.7196 20.8771 45.5421 20.9424 45.3088 20.9424ZM47.9407 22.7126C48.1148 22.7126 48.2749 22.6735 48.4211 22.5951C48.5674 22.5168 48.6909 22.408 48.7919 22.2688V22.6291H49.147V20.1852H48.7919V20.5507C48.6909 20.408 48.5665 20.2974 48.4185 20.2191C48.2706 20.1408 48.1078 20.1016 47.9303 20.1016C47.697 20.1016 47.489 20.1573 47.3062 20.2687C47.1235 20.3801 46.9807 20.5342 46.878 20.7309C46.7753 20.9276 46.724 21.1512 46.724 21.4019C46.724 21.656 46.7762 21.8823 46.8806 22.0808C46.9851 22.2792 47.1296 22.4341 47.3141 22.5455C47.4986 22.6569 47.7075 22.7126 47.9407 22.7126ZM47.9303 22.3889C47.7666 22.3889 47.6204 22.3471 47.4916 22.2635C47.3628 22.18 47.2619 22.0634 47.1887 21.9137C47.1156 21.764 47.0791 21.5934 47.0791 21.4019C47.0791 21.2139 47.1156 21.0459 47.1887 20.898C47.2619 20.75 47.3628 20.6343 47.4916 20.5507C47.6204 20.4672 47.7666 20.4254 47.9303 20.4254C48.0974 20.4254 48.2462 20.4672 48.3768 20.5507C48.5073 20.6343 48.6091 20.7509 48.6822 20.9006C48.7554 21.0503 48.7919 21.2191 48.7919 21.4071C48.7919 21.5951 48.7554 21.764 48.6822 21.9137C48.6091 22.0634 48.5073 22.18 48.3768 22.2635C48.2462 22.3471 48.0974 22.3889 47.9303 22.3889ZM50.1653 23.6735V22.2635C50.2663 22.4063 50.3907 22.5168 50.5387 22.5951C50.6866 22.6735 50.8494 22.7126 51.0269 22.7126C51.2602 22.7126 51.4682 22.6569 51.651 22.5455C51.8337 22.4341 51.9765 22.2801 52.0792 22.0834C52.1819 21.8867 52.2332 21.663 52.2332 21.4124C52.2332 21.1582 52.181 20.9319 52.0766 20.7335C51.9721 20.5351 51.8276 20.3801 51.6431 20.2687C51.4586 20.1573 51.2497 20.1016 51.0165 20.1016C50.8424 20.1016 50.6823 20.1408 50.5361 20.2191C50.3898 20.2974 50.2663 20.4062 50.1653 20.5455V20.1852H49.8102V23.6735H50.1653ZM51.0269 22.3889C50.8598 22.3889 50.711 22.3471 50.5805 22.2635C50.4499 22.18 50.3481 22.0634 50.275 21.9137C50.2019 21.764 50.1653 21.5951 50.1653 21.4071C50.1653 21.2191 50.2019 21.0503 50.275 20.9006C50.3481 20.7509 50.4499 20.6343 50.5805 20.5507C50.711 20.4672 50.8598 20.4254 51.0269 20.4254C51.1906 20.4254 51.3368 20.4672 51.4656 20.5507C51.5944 20.6343 51.6954 20.7509 51.7685 20.9006C51.8416 21.0503 51.8781 21.2209 51.8781 21.4124C51.8781 21.6003 51.8416 21.7683 51.7685 21.9163C51.6954 22.0642 51.5944 22.18 51.4656 22.2635C51.3368 22.3471 51.1906 22.3889 51.0269 22.3889ZM53.8051 22.7126C54.0627 22.7126 54.2855 22.6613 54.4735 22.5586C54.6615 22.4559 54.8129 22.314 54.9278 22.133L54.6458 21.945C54.5622 22.0843 54.4517 22.193 54.3142 22.2714C54.1767 22.3497 54.0035 22.3889 53.7946 22.3889C53.537 22.3889 53.3333 22.3001 53.1836 22.1225C53.0339 21.945 52.9521 21.7309 52.9382 21.4802H54.9487C54.9522 21.4454 54.9539 21.3949 54.9539 21.3288C54.9539 21.099 54.9034 20.891 54.8025 20.7048C54.7015 20.5185 54.5623 20.3714 54.3847 20.2635C54.2072 20.1556 54.0087 20.1016 53.7894 20.1016C53.5561 20.1016 53.3481 20.1573 53.1654 20.2687C52.9826 20.3801 52.8398 20.5351 52.7372 20.7335C52.6344 20.9319 52.5831 21.1565 52.5831 21.4071C52.5831 21.6578 52.6353 21.8823 52.7398 22.0808C52.8442 22.2792 52.9887 22.4341 53.1732 22.5455C53.3577 22.6569 53.5683 22.7126 53.8051 22.7126ZM54.5988 21.1878H52.9591C52.9974 20.9685 53.0888 20.7866 53.2332 20.6421C53.3777 20.4976 53.5631 20.4254 53.7894 20.4254C54.0226 20.4254 54.2072 20.4889 54.3429 20.616C54.4787 20.7431 54.564 20.9337 54.5988 21.1878ZM55.8312 22.6291V21.4594C55.8312 21.2435 55.8704 21.0564 55.9487 20.898C56.027 20.7396 56.1306 20.6186 56.2594 20.5351C56.3882 20.4515 56.5275 20.4097 56.6772 20.4097C56.7642 20.4097 56.8443 20.4271 56.9174 20.4619V20.1382C56.8408 20.1138 56.7607 20.1016 56.6772 20.1016C56.4961 20.1016 56.3334 20.1521 56.1889 20.2531C56.0444 20.354 55.9252 20.495 55.8312 20.676V20.1852H55.4761V22.6291H55.8312ZM59.8208 22.7126C60.1063 22.7126 60.3526 22.6413 60.5597 22.4985C60.7669 22.3558 60.9331 22.1487 61.0585 21.8771L60.7295 21.6787C60.6111 21.9119 60.4832 22.0834 60.3456 22.193C60.2081 22.3027 60.0158 22.3575 59.7686 22.3575C59.5702 22.3575 59.3961 22.2975 59.2464 22.1774C59.0967 22.0573 58.9818 21.8841 58.9018 21.6578C58.8217 21.4315 58.7816 21.1634 58.7816 20.8536C58.7816 20.3801 58.8696 20.0102 59.0454 19.7439C59.2212 19.4776 59.464 19.3444 59.7738 19.3444C59.9897 19.3444 60.1724 19.3888 60.3221 19.4776C60.4718 19.5664 60.6024 19.7135 60.7138 19.9189L61.0271 19.7361C60.9088 19.4993 60.7443 19.3157 60.5336 19.1852C60.323 19.0546 60.0697 18.9893 59.7738 18.9893C59.4849 18.9893 59.2351 19.0633 59.0245 19.2113C58.8139 19.3592 58.652 19.5733 58.5388 19.8536C58.4257 20.1338 58.3691 20.4689 58.3691 20.8588C58.3691 21.2452 58.4274 21.5768 58.544 21.8536C58.6607 22.1304 58.8278 22.3427 59.0454 22.4907C59.2629 22.6387 59.5214 22.7126 59.8208 22.7126ZM62.6355 22.7126C62.8688 22.7126 63.0768 22.6569 63.2595 22.5455C63.4423 22.4341 63.585 22.2792 63.6877 22.0808C63.7904 21.8823 63.8418 21.6578 63.8418 21.4071C63.8418 21.1565 63.7896 20.9319 63.6851 20.7335C63.5807 20.5351 63.4362 20.3801 63.2517 20.2687C63.0672 20.1573 62.8583 20.1016 62.6251 20.1016C62.3918 20.1016 62.1838 20.1573 62.001 20.2687C61.8183 20.3801 61.6755 20.5342 61.5728 20.7309C61.4701 20.9276 61.4188 21.1512 61.4188 21.4019C61.4188 21.6526 61.471 21.878 61.5754 22.0782C61.6799 22.2783 61.8244 22.4341 62.0089 22.5455C62.1934 22.6569 62.4023 22.7126 62.6355 22.7126ZM62.6251 22.3889C62.4614 22.3889 62.3152 22.3471 62.1864 22.2635C62.0576 22.18 61.9566 22.0634 61.8835 21.9137C61.8104 21.764 61.7739 21.5934 61.7739 21.4019C61.7739 21.2139 61.8104 21.0459 61.8835 20.898C61.9566 20.75 62.0576 20.6343 62.1864 20.5507C62.3152 20.4672 62.4614 20.4254 62.6251 20.4254C62.7922 20.4254 62.941 20.4672 63.0715 20.5507C63.2021 20.6343 63.3039 20.7509 63.377 20.9006C63.4501 21.0503 63.4867 21.2191 63.4867 21.4071C63.4867 21.5951 63.4501 21.764 63.377 21.9137C63.3039 22.0634 63.2021 22.18 63.0715 22.2635C62.941 22.3471 62.7922 22.3889 62.6251 22.3889ZM64.6982 22.6291V21.4071C64.6982 21.1077 64.7513 20.8693 64.8575 20.6917C64.9637 20.5142 65.1229 20.4254 65.3353 20.4254C65.492 20.4254 65.619 20.482 65.7165 20.5951C65.814 20.7082 65.8627 20.8936 65.8627 21.1512V22.6291H66.2178V21.2505C66.2352 20.9963 66.297 20.7953 66.4032 20.6473C66.5094 20.4994 66.6582 20.4254 66.8497 20.4254C67.0063 20.4254 67.1334 20.482 67.2309 20.5951C67.3284 20.7082 67.3771 20.8936 67.3771 21.1512V22.6291H67.7322V20.9946C67.7322 20.7161 67.6574 20.4976 67.5077 20.3392C67.358 20.1808 67.17 20.1016 66.9437 20.1016C66.7696 20.1016 66.6164 20.1504 66.4841 20.2478C66.3519 20.3453 66.2474 20.4811 66.1708 20.6552C66.1186 20.4776 66.0263 20.341 65.8941 20.2452C65.7618 20.1495 65.6068 20.1016 65.4293 20.1016C65.2691 20.1016 65.1273 20.1417 65.0037 20.2217C64.8801 20.3018 64.7783 20.4167 64.6982 20.5664V20.1852H64.3431V22.6291H64.6982ZM68.7244 23.6735V22.2635C68.8254 22.4063 68.9498 22.5168 69.0978 22.5951C69.2457 22.6735 69.4085 22.7126 69.586 22.7126C69.8193 22.7126 70.0273 22.6569 70.2101 22.5455C70.3928 22.4341 70.5356 22.2801 70.6383 22.0834C70.741 21.8867 70.7923 21.663 70.7923 21.4124C70.7923 21.1582 70.7401 20.9319 70.6357 20.7335C70.5312 20.5351 70.3867 20.3801 70.2022 20.2687C70.0177 20.1573 69.8088 20.1016 69.5756 20.1016C69.4015 20.1016 69.2414 20.1408 69.0952 20.2191C68.9489 20.2974 68.8254 20.4062 68.7244 20.5455V20.1852H68.3693V23.6735H68.7244ZM69.586 22.3889C69.4189 22.3889 69.2701 22.3471 69.1395 22.2635C69.009 22.18 68.9072 22.0634 68.8341 21.9137C68.761 21.764 68.7244 21.5951 68.7244 21.4071C68.7244 21.2191 68.761 21.0503 68.8341 20.9006C68.9072 20.7509 69.009 20.6343 69.1395 20.5507C69.2701 20.4672 69.4189 20.4254 69.586 20.4254C69.7497 20.4254 69.8959 20.4672 70.0247 20.5507C70.1535 20.6343 70.2545 20.7509 70.3276 20.9006C70.4007 21.0503 70.4372 21.2209 70.4372 21.4124C70.4372 21.6003 70.4007 21.7683 70.3276 21.9163C70.2545 22.0642 70.1535 22.18 70.0247 22.2635C69.8959 22.3471 69.7497 22.3889 69.586 22.3889ZM72.3589 22.7126C72.533 22.7126 72.6931 22.6735 72.8394 22.5951C72.9856 22.5168 73.1092 22.408 73.2101 22.2688V22.6291H73.5652V20.1852H73.2101V20.5507C73.1092 20.408 72.9847 20.2974 72.8367 20.2191C72.6888 20.1408 72.526 20.1016 72.3485 20.1016C72.1152 20.1016 71.9072 20.1573 71.7245 20.2687C71.5417 20.3801 71.3989 20.5342 71.2962 20.7309C71.1935 20.9276 71.1422 21.1512 71.1422 21.4019C71.1422 21.656 71.1944 21.8823 71.2989 22.0808C71.4033 22.2792 71.5478 22.4341 71.7323 22.5455C71.9168 22.6569 72.1257 22.7126 72.3589 22.7126ZM72.3485 22.3889C72.1849 22.3889 72.0386 22.3471 71.9098 22.2635C71.781 22.18 71.6801 22.0634 71.607 21.9137C71.5338 21.764 71.4973 21.5934 71.4973 21.4019C71.4973 21.2139 71.5338 21.0459 71.607 20.898C71.6801 20.75 71.781 20.6343 71.9098 20.5507C72.0386 20.4672 72.1849 20.4254 72.3485 20.4254C72.5156 20.4254 72.6644 20.4672 72.795 20.5507C72.9255 20.6343 73.0273 20.7509 73.1005 20.9006C73.1736 21.0503 73.2101 21.2191 73.2101 21.4071C73.2101 21.5951 73.1736 21.764 73.1005 21.9137C73.0273 22.0634 72.9255 22.18 72.795 22.2635C72.6644 22.3471 72.5156 22.3889 72.3485 22.3889ZM74.5783 22.6291V21.4071C74.5783 21.1077 74.641 20.8693 74.7663 20.6917C74.8916 20.5142 75.0796 20.4254 75.3303 20.4254C75.7619 20.4254 75.9778 20.6673 75.9778 21.1512V22.6291H76.3329V20.9946C76.3329 20.8101 76.2902 20.6499 76.205 20.5142C76.1197 20.3784 76.0048 20.2757 75.8603 20.2061C75.7158 20.1364 75.5583 20.1016 75.3877 20.1016C75.2067 20.1016 75.0474 20.1443 74.9099 20.2296C74.7724 20.3149 74.6618 20.4358 74.5783 20.5925V20.1852H74.2232V22.6291H74.5783ZM77.722 23.6735L79.0431 20.1852H78.7089L77.9308 22.2113L77.1214 20.1852H76.7507L77.7533 22.6761L77.3669 23.6735H77.722Z" fill="white"/>
<path fill-rule="evenodd" clip-rule="evenodd" d="M12.4749 3.771V20.7131C11.1343 21.5387 9.53829 22.2188 7.77481 22.6652C6.31876 23.0342 4.88787 23.2086 3.55041 23.2086C2.26086 23.2086 1.0582 23.0467 0 22.7398V5.79778C0.000568771 5.79778 0.00156412 5.79821 0.00213289 5.79821C0.396149 5.91223 0.810072 6.00639 1.24148 6.07954C1.64062 6.14741 2.05454 6.19728 2.48084 6.228C2.82949 6.254 3.1864 6.26701 3.55041 6.26701C4.88844 6.26701 6.31876 6.09212 7.77481 5.72348C9.53829 5.27655 11.1343 4.597 12.4749 3.771ZM9.99586 7.66039C9.89107 7.69607 9.78574 7.731 9.67989 7.76515L9.99584 7.76498L9.99586 7.66039Z" fill="white"/>
<path fill-rule="evenodd" clip-rule="evenodd" d="M17.1168 0V18.7122C15.6203 19.624 13.8388 20.3752 11.8703 20.8682C10.2449 21.2758 8.64764 21.4683 7.15465 21.4683C5.71516 21.4683 4.37265 21.2895 3.19141 20.9506V2.23854C3.19204 2.23854 3.19315 2.23901 3.19379 2.23901C3.63362 2.36494 4.09567 2.46894 4.57725 2.54974C5.0228 2.6247 5.48485 2.67978 5.96071 2.7137C6.34991 2.74243 6.74831 2.75679 7.15465 2.75679C8.64827 2.75679 10.2449 2.56363 11.8703 2.15648C13.8388 1.66285 15.6203 0.912301 17.1168 0Z" fill="white"/>
</svg>
