<svg width="30" height="14" viewBox="0 0 30 14" fill="none" xmlns="http://www.w3.org/2000/svg">
<path d="M21.7696 12.8219C21.5211 12.5856 21.4018 12.3 21.4118 11.9652C21.4226 11.6304 21.5522 11.3448 21.8006 11.1084L25.3102 7.76998H2.22376C1.87177 7.76998 1.57652 7.65653 1.33799 7.42964C1.10029 7.20353 0.981445 6.92306 0.981445 6.58823C0.981445 6.25341 1.10029 5.97255 1.33799 5.74565C1.57652 5.51954 1.87177 5.40649 2.22376 5.40649H25.3102L21.7696 2.03851C21.5211 1.80216 21.3969 1.5213 21.3969 1.19593C21.3969 0.871341 21.5211 0.590873 21.7696 0.354524C22.018 0.118174 22.3133 0 22.6553 0C22.9966 0 23.2914 0.118174 23.5399 0.354524L29.2235 5.76101C29.3477 5.87919 29.4359 6.00721 29.4881 6.14508C29.5394 6.28295 29.5651 6.43067 29.5651 6.58823C29.5651 6.7458 29.5394 6.89352 29.4881 7.03139C29.4359 7.16926 29.3477 7.29728 29.2235 7.41546L23.5088 12.8515C23.2811 13.0681 22.9966 13.1765 22.6553 13.1765C22.3133 13.1765 22.018 13.0583 21.7696 12.8219Z" fill="white"/>
</svg>
