<svg width="95" height="22" viewBox="0 0 95 22" fill="none" xmlns="http://www.w3.org/2000/svg">
<path d="M33.0744 14.1652C35.7942 14.1652 37.6001 12.9032 37.6001 10.7273C37.6001 8.54364 35.8057 7.86025 34.083 7.3463L33.8846 7.28767C32.368 6.84282 30.9638 6.49051 30.9638 5.30946C30.9638 4.37384 31.7253 3.78637 33.0526 3.78637C34.2058 3.78637 35.0326 4.26505 35.4025 5.2877L37.165 4.59143C36.6645 3.06834 35.1632 2.21976 33.0744 2.21976C30.5504 2.21976 28.9185 3.43823 28.9185 5.41825C28.9185 9.35653 35.5113 8.1163 35.5113 10.8796C35.5113 11.9458 34.5757 12.555 33.1396 12.555C31.5513 12.555 30.4851 11.8588 30.1152 10.6838L28.3528 11.3801C28.962 13.2078 30.7027 14.1652 33.0744 14.1652ZM50.017 17.8206V2.4591H48.298V4.59143C47.3842 3.11185 45.8611 2.21976 43.9464 2.21976C40.6826 2.21976 38.3544 4.78726 38.3544 8.20333C38.3544 11.6194 40.7479 14.1652 43.9899 14.1652C45.7958 14.1652 47.2536 13.3601 48.1675 12.0328V17.8206H50.017ZM44.2074 12.5333C41.9011 12.5333 40.1821 10.6838 40.1821 8.20333C40.1821 5.70111 41.9011 3.85164 44.2074 3.85164C46.5791 3.85164 48.2328 5.65759 48.2328 8.20333C48.2328 10.7491 46.6009 12.5333 44.2074 12.5333ZM56.7983 14.1652C58.4955 14.1652 59.8663 13.3601 60.6278 12.2939V13.9258H62.3903V2.4591H60.5408V9.66115C60.519 11.119 59.2135 12.5115 57.277 12.5115C55.3188 12.5333 54.0785 11.2495 54.0785 9.31301V2.4591H52.2291V9.5306C52.2291 12.2504 53.861 14.1652 56.7983 14.1652ZM69.6721 14.1652C71.6086 14.1652 73.1099 13.2513 73.9803 11.7282V13.9258H75.6992V2.4591H73.9803V4.67846C73.1099 3.19889 71.6086 2.32855 69.6721 2.32855C66.4301 2.32855 64.0367 4.78726 64.0367 8.18157C64.0367 11.6194 66.4083 14.1652 69.6721 14.1652ZM69.8897 12.5333C67.5833 12.5333 65.8644 10.6838 65.8644 8.18157C65.8644 5.72287 67.5833 3.85164 69.8897 3.85164C72.2831 3.85164 73.915 5.63584 73.915 8.18157C73.915 10.7491 72.2614 12.5333 69.8897 12.5333ZM79.9131 13.9258V7.00662C79.9131 5.37473 81.3709 3.96043 83.4597 3.93867V2.21976C81.8496 2.21976 80.5441 3.06834 79.8043 4.1345V2.4591H78.0636V13.9258H79.9131ZM89.2184 14.1869C91.9383 14.1869 93.5266 13.012 94.3752 11.3801L92.7651 10.4009C92.1994 11.7282 91.155 12.4462 89.2837 12.4462C87.1732 12.4462 85.4978 11.0102 85.1714 8.87785H94.7016C94.7233 8.66026 94.7451 8.26861 94.7451 7.94223C94.7451 4.91781 92.5475 2.198 89.0879 2.198C85.8459 2.198 83.3002 4.87429 83.3002 8.20333C83.3002 11.6194 85.6936 14.1869 89.2184 14.1869ZM92.8521 7.26772H85.1931C85.5413 5.09187 87.2167 3.80812 89.1532 3.80812C91.0679 3.80812 92.5693 5.11363 92.8521 7.26772Z" fill="white"/>
<path d="M54.9498 20.929C55.0093 20.929 55.0722 20.9252 55.1385 20.9176C55.2048 20.9099 55.2771 20.8984 55.3553 20.8831V20.6842H55.3094C55.0935 20.6842 54.9396 20.6583 54.8479 20.6065C54.7561 20.5546 54.6838 20.4573 54.6311 20.3145C54.6073 20.255 54.575 20.1348 54.5342 19.9537C54.4934 19.7727 54.4441 19.6354 54.3863 19.5419C54.3353 19.4569 54.2656 19.386 54.1773 19.329C54.0889 19.2721 53.9792 19.2258 53.8483 19.1901C54.1288 19.1289 54.3396 19.0256 54.4807 18.8802C54.6218 18.7349 54.6923 18.5492 54.6923 18.3231C54.6923 18.0052 54.5895 17.7694 54.3838 17.6155C54.1781 17.4617 53.8619 17.3848 53.4353 17.3848H52.1042V17.5939L52.4 17.6245L52.4893 17.6984V20.5746L52.4 20.6486L52.1042 20.674V20.8882H53.346V20.674L53.0477 20.6486L52.9584 20.5746V19.3328L52.9763 19.3303C53.0885 19.3252 53.1701 19.3226 53.2211 19.3226C53.4608 19.3226 53.6397 19.3634 53.7578 19.445C53.8759 19.5266 53.9699 19.6737 54.0396 19.8862C54.0583 19.9422 54.0829 20.0272 54.1135 20.1411C54.1951 20.4573 54.2979 20.6698 54.422 20.7786C54.4815 20.8296 54.5542 20.8674 54.64 20.8921C54.7259 20.9167 54.8292 20.929 54.9498 20.929ZM53.2466 19.0855C53.2024 19.0855 53.1565 19.0851 53.1089 19.0842C53.0613 19.0834 53.0111 19.0821 52.9584 19.0804V17.6245H53.2109C53.5491 17.6245 53.7939 17.6831 53.9452 17.8004C54.0965 17.9177 54.1722 18.1064 54.1722 18.3665C54.1722 18.618 54.0986 18.8008 53.9516 18.9147C53.8046 19.0286 53.5695 19.0855 53.2466 19.0855ZM56.3006 20.9341C56.4689 20.9341 56.6363 20.9078 56.8029 20.8551C56.9695 20.8024 57.1301 20.725 57.2848 20.6231V20.3349C57.1284 20.4386 56.9835 20.5151 56.8501 20.5644C56.7166 20.6137 56.5878 20.6384 56.4638 20.6384C56.1952 20.6384 55.9818 20.5427 55.8238 20.3515C55.6657 20.1603 55.5866 19.9006 55.5866 19.5725V19.5139H57.2772C57.2806 19.4935 57.2827 19.4722 57.2835 19.4501C57.2844 19.428 57.2848 19.3957 57.2848 19.3532C57.2848 19.0354 57.2002 18.7842 57.0311 18.5998C56.862 18.4153 56.6329 18.3231 56.3439 18.3231C55.9903 18.3231 55.7009 18.4468 55.4757 18.6941C55.2505 18.9414 55.1379 19.2606 55.1379 19.6516C55.1379 20.0323 55.2454 20.3413 55.4604 20.5784C55.6754 20.8156 55.9555 20.9341 56.3006 20.9341ZM56.8182 19.2946H55.6121C55.6274 19.0821 55.6984 18.9066 55.825 18.7681C55.9517 18.6295 56.1017 18.5602 56.2751 18.5602C56.4519 18.5602 56.5866 18.6163 56.6792 18.7285C56.7719 18.8407 56.8182 19.0022 56.8182 19.213V19.2946ZM58.2225 20.9239C58.3448 20.9239 58.4762 20.8963 58.6164 20.8411C58.7566 20.7858 58.9109 20.7004 59.0792 20.5848L59.148 20.8882H59.8824V20.6995L59.607 20.674L59.5178 20.5899V19.0753C59.5178 18.8118 59.4557 18.6206 59.3316 18.5016C59.2075 18.3826 59.0087 18.3231 58.735 18.3231C58.4239 18.3231 58.1702 18.3792 57.9738 18.4914C57.7775 18.6036 57.6793 18.7447 57.6793 18.9147C57.6793 18.9759 57.6908 19.0179 57.7138 19.0409C57.7367 19.0638 57.7796 19.0753 57.8425 19.0753H58.2021V18.6367C58.2718 18.6095 58.3389 18.5891 58.4035 18.5755C58.4681 18.5619 58.5335 18.5551 58.5998 18.5551C58.7766 18.5551 58.9007 18.5976 58.9721 18.6826C59.0435 18.7676 59.0792 18.9198 59.0792 19.1391V19.3048C58.4281 19.4612 58.0112 19.6031 57.8285 19.7306C57.6458 19.8581 57.5544 20.0332 57.5544 20.2559C57.5544 20.4565 57.6152 20.618 57.7367 20.7403C57.8583 20.8627 58.0202 20.9239 58.2225 20.9239ZM58.4315 20.6435C58.3041 20.6435 58.2025 20.6048 58.1268 20.5274C58.0512 20.4501 58.0134 20.346 58.0134 20.2151C58.0134 20.0519 58.0818 19.9202 58.2186 19.8199C58.3555 19.7196 58.6423 19.6091 59.0792 19.4884V20.4089C58.9415 20.4871 58.8195 20.5457 58.7133 20.5848C58.6071 20.6239 58.5131 20.6435 58.4315 20.6435ZM61.177 20.8882V20.6995L60.8787 20.674L60.7843 20.5899V17.0457H60.5855L59.948 17.2318V17.395H60.3509V20.5899L60.2616 20.674L59.9531 20.6995V20.8882H61.177ZM65.2452 20.8882V20.0366H64.9749L64.8856 20.5644L64.8117 20.6486H63.4118V19.185H64.2686L64.3425 19.264L64.3935 19.6414H64.6409V18.4914H64.3935L64.3425 18.8713L64.2686 18.9453H63.4118V17.6245H64.6205L64.6919 17.7035L64.7658 18.1472H65.059V17.3848H62.5577V17.5939L62.8534 17.6245L62.9427 17.6984V20.5746L62.8534 20.6486L62.5577 20.674V20.8882H65.2452ZM66.1165 20.9341C66.4225 20.9341 66.6618 20.8649 66.8343 20.7263C67.0068 20.5878 67.0931 20.3961 67.0931 20.1513C67.0931 20.0578 67.0761 19.9724 67.0421 19.8951C67.0081 19.8177 66.9588 19.7536 66.8942 19.7026C66.8058 19.6295 66.663 19.5479 66.4659 19.4578C66.4098 19.4323 66.3681 19.4127 66.3409 19.3991C66.1675 19.3158 66.0502 19.2402 65.989 19.1722C65.9278 19.1042 65.8972 19.0218 65.8972 18.9249C65.8972 18.8059 65.9355 18.7132 66.012 18.6469C66.0885 18.5806 66.1947 18.5475 66.3307 18.5475C66.3936 18.5475 66.4565 18.5568 66.5194 18.5755C66.5823 18.5942 66.6486 18.6223 66.7183 18.6597L66.7591 19.0294H67.0166V18.4379C66.9282 18.4005 66.8335 18.372 66.7323 18.3524C66.6312 18.3329 66.5219 18.3231 66.4047 18.3231C66.1106 18.3231 65.8828 18.3869 65.7213 18.5144C65.5598 18.6418 65.4791 18.822 65.4791 19.0549C65.4791 19.2079 65.5262 19.3362 65.6206 19.4399C65.7149 19.5436 65.893 19.6541 66.1548 19.7714C66.386 19.8768 66.5321 19.9639 66.5933 20.0328C66.6545 20.1016 66.6851 20.1887 66.6851 20.2941C66.6851 20.4199 66.6405 20.5215 66.5513 20.5988C66.462 20.6762 66.3435 20.7148 66.1956 20.7148C66.1208 20.7148 66.0464 20.7046 65.9725 20.6842C65.8985 20.6638 65.825 20.6324 65.7519 20.5899L65.6882 20.1462H65.4383V20.8245C65.5352 20.8619 65.641 20.8895 65.7557 20.9074C65.8705 20.9252 65.9907 20.9341 66.1165 20.9341ZM68.1353 20.9035C68.2424 20.9035 68.3537 20.8938 68.4693 20.8742C68.5849 20.8547 68.7022 20.8262 68.8212 20.7888V20.595C68.7566 20.6103 68.6941 20.6214 68.6338 20.6282C68.5735 20.635 68.5152 20.6384 68.4591 20.6384C68.2959 20.6384 68.1829 20.5997 68.12 20.5223C68.0571 20.445 68.0257 20.2933 68.0257 20.0672V18.6903H68.8212V18.4455H68.0257V17.8896H67.8319L67.6075 18.3767L67.2633 18.5271V18.6903H67.5922V20.3757C67.5922 20.5763 67.6326 20.7144 67.7133 20.7901C67.7941 20.8657 67.9347 20.9035 68.1353 20.9035ZM69.5906 20.9239C69.713 20.9239 69.8443 20.8963 69.9845 20.8411C70.1248 20.7858 70.279 20.7004 70.4473 20.5848L70.5162 20.8882H71.2505V20.6995L70.9751 20.674L70.8859 20.5899V19.0753C70.8859 18.8118 70.8238 18.6206 70.6997 18.5016C70.5757 18.3826 70.3768 18.3231 70.1031 18.3231C69.792 18.3231 69.5383 18.3792 69.342 18.4914C69.1456 18.6036 69.0475 18.7447 69.0475 18.9147C69.0475 18.9759 69.0589 19.0179 69.0819 19.0409C69.1048 19.0638 69.1478 19.0753 69.2106 19.0753H69.5702V18.6367C69.6399 18.6095 69.707 18.5891 69.7716 18.5755C69.8362 18.5619 69.9016 18.5551 69.9679 18.5551C70.1447 18.5551 70.2688 18.5976 70.3402 18.6826C70.4116 18.7676 70.4473 18.9198 70.4473 19.1391V19.3048C69.7963 19.4612 69.3794 19.6031 69.1966 19.7306C69.0139 19.8581 68.9225 20.0332 68.9225 20.2559C68.9225 20.4565 68.9833 20.618 69.1048 20.7403C69.2264 20.8627 69.3883 20.9239 69.5906 20.9239ZM69.7997 20.6435C69.6722 20.6435 69.5706 20.6048 69.495 20.5274C69.4193 20.4501 69.3815 20.346 69.3815 20.2151C69.3815 20.0519 69.4499 19.9202 69.5867 19.8199C69.7236 19.7196 70.0104 19.6091 70.4473 19.4884V20.4089C70.3096 20.4871 70.1877 20.5457 70.0814 20.5848C69.9752 20.6239 69.8813 20.6435 69.7997 20.6435ZM72.178 20.9035C72.2851 20.9035 72.3964 20.8938 72.512 20.8742C72.6276 20.8547 72.7449 20.8262 72.8639 20.7888V20.595C72.7993 20.6103 72.7368 20.6214 72.6765 20.6282C72.6161 20.635 72.5579 20.6384 72.5018 20.6384C72.3386 20.6384 72.2256 20.5997 72.1627 20.5223C72.0998 20.445 72.0683 20.2933 72.0683 20.0672V18.6903H72.8639V18.4455H72.0683V17.8896H71.8745L71.6501 18.3767L71.3059 18.5271V18.6903H71.6348V20.3757C71.6348 20.5763 71.6752 20.7144 71.756 20.7901C71.8367 20.8657 71.9774 20.9035 72.178 20.9035ZM74.1024 20.9341C74.2707 20.9341 74.4381 20.9078 74.6047 20.8551C74.7713 20.8024 74.9319 20.725 75.0866 20.6231V20.3349C74.9302 20.4386 74.7853 20.5151 74.6519 20.5644C74.5184 20.6137 74.3897 20.6384 74.2656 20.6384C73.997 20.6384 73.7837 20.5427 73.6256 20.3515C73.4675 20.1603 73.3884 19.9006 73.3884 19.5725V19.5139H75.079C75.0824 19.4935 75.0845 19.4722 75.0853 19.4501C75.0862 19.428 75.0866 19.3957 75.0866 19.3532C75.0866 19.0354 75.0021 18.7842 74.8329 18.5998C74.6638 18.4153 74.4347 18.3231 74.1457 18.3231C73.7922 18.3231 73.5028 18.4468 73.2775 18.6941C73.0523 18.9414 72.9397 19.2606 72.9397 19.6516C72.9397 20.0323 73.0472 20.3413 73.2622 20.5784C73.4773 20.8156 73.7573 20.9341 74.1024 20.9341ZM74.62 19.2946H73.4139C73.4292 19.0821 73.5002 18.9066 73.6269 18.7681C73.7535 18.6295 73.9035 18.5602 74.0769 18.5602C74.2537 18.5602 74.3884 18.6163 74.481 18.7285C74.5737 18.8407 74.62 19.0022 74.62 19.213V19.2946ZM77.6682 20.952C78.0762 20.952 78.4034 20.8555 78.6499 20.6626C78.8964 20.4696 79.0196 20.2159 79.0196 19.9015C79.0196 19.7876 79.0005 19.6822 78.9623 19.5853C78.924 19.4884 78.8666 19.4025 78.7901 19.3277C78.6559 19.1952 78.4366 19.0694 78.1323 18.9504C78.0745 18.9283 78.0312 18.9113 78.0023 18.8994C77.6929 18.7685 77.4936 18.6567 77.4043 18.5641C77.3151 18.4714 77.2705 18.3546 77.2705 18.2135C77.2705 18.0197 77.3342 17.8663 77.4617 17.7532C77.5892 17.6402 77.7617 17.5837 77.9793 17.5837C78.0711 17.5837 78.1561 17.5926 78.2343 17.6104C78.3125 17.6283 78.3847 17.6559 78.451 17.6933L78.5275 17.78L78.6066 18.2772H78.8794V17.4689C78.7264 17.4196 78.5764 17.3827 78.4293 17.358C78.2823 17.3334 78.1357 17.321 77.9895 17.321C77.6257 17.321 77.3338 17.4133 77.1136 17.5977C76.8935 17.7821 76.7834 18.0239 76.7834 18.3231C76.7834 18.5356 76.8412 18.7086 76.9568 18.842C77.0724 18.9754 77.3087 19.1195 77.6657 19.2742C77.6946 19.2861 77.7362 19.3039 77.7906 19.3277C78.2904 19.5402 78.5403 19.7799 78.5403 20.0468C78.5403 20.2389 78.4693 20.3914 78.3274 20.5045C78.1854 20.6175 77.9929 20.674 77.7498 20.674C77.6342 20.674 77.5271 20.6638 77.4285 20.6435C77.33 20.6231 77.2424 20.5933 77.1659 20.5542L77.0971 20.465L77.0359 19.8658H76.7273V20.7837C76.8514 20.8381 76.9938 20.8797 77.1544 20.9086C77.3151 20.9375 77.4863 20.952 77.6682 20.952ZM80.5489 20.9341C80.9024 20.9341 81.1935 20.8122 81.4222 20.5682C81.6508 20.3243 81.7651 20.0111 81.7651 19.6286C81.7651 19.2461 81.6512 18.9329 81.4234 18.689C81.1957 18.4451 80.9041 18.3231 80.5489 18.3231C80.1919 18.3231 79.9008 18.4447 79.6755 18.6877C79.4503 18.9308 79.3377 19.2444 79.3377 19.6286C79.3377 20.0128 79.4512 20.3264 79.6781 20.5695C79.905 20.8126 80.1953 20.9341 80.5489 20.9341ZM80.5489 20.7097C80.333 20.7097 80.1587 20.6116 80.0261 20.4152C79.8935 20.2189 79.8273 19.9567 79.8273 19.6286C79.8273 19.3005 79.8931 19.0383 80.0249 18.842C80.1566 18.6457 80.3313 18.5475 80.5489 18.5475C80.7664 18.5475 80.9419 18.6461 81.0754 18.8433C81.2088 19.0405 81.2755 19.3022 81.2755 19.6286C81.2755 19.9584 81.2093 20.221 81.0767 20.4165C80.9441 20.612 80.7681 20.7097 80.5489 20.7097ZM83.1541 20.8882V20.6995L82.8558 20.674L82.7614 20.5899V17.0457H82.5625L81.9251 17.2318V17.395H82.3279V20.5899L82.2387 20.674L81.9302 20.6995V20.8882H83.1541ZM84.2906 20.9392C84.4147 20.9392 84.546 20.9112 84.6846 20.8551C84.8231 20.799 84.974 20.7123 85.1372 20.595V20.8882H85.9098V20.6995L85.665 20.674L85.5706 20.5899V18.3231H85.3717L84.7649 18.5169V18.6801H85.1372V20.4497C85.0284 20.5024 84.9243 20.5415 84.8248 20.567C84.7254 20.5925 84.6272 20.6052 84.5303 20.6052C84.3569 20.6052 84.2294 20.5606 84.1478 20.4713C84.0662 20.3821 84.0254 20.2423 84.0254 20.0519V18.3231H83.8266L83.2197 18.5169V18.6801H83.592V20.1411C83.592 20.3995 83.6519 20.5971 83.7717 20.734C83.8916 20.8708 84.0645 20.9392 84.2906 20.9392ZM86.8831 20.9035C86.9902 20.9035 87.1015 20.8938 87.2171 20.8742C87.3327 20.8547 87.45 20.8262 87.569 20.7888V20.595C87.5044 20.6103 87.4419 20.6214 87.3816 20.6282C87.3213 20.635 87.263 20.6384 87.2069 20.6384C87.0437 20.6384 86.9307 20.5997 86.8678 20.5223C86.8049 20.445 86.7735 20.2933 86.7735 20.0672V18.6903H87.569V18.4455H86.7735V17.8896H86.5797L86.3553 18.3767L86.0111 18.5271V18.6903H86.34V20.3757C86.34 20.5763 86.3804 20.7144 86.4611 20.7901C86.5419 20.8657 86.6825 20.9035 86.8831 20.9035ZM88.2542 17.7928C88.3392 17.7928 88.411 17.7639 88.4697 17.7061C88.5283 17.6483 88.5577 17.5777 88.5577 17.4944C88.5577 17.4111 88.5283 17.3397 88.4697 17.2802C88.411 17.2207 88.3392 17.191 88.2542 17.191C88.1709 17.191 88.1 17.2203 88.0413 17.279C87.9827 17.3376 87.9534 17.4094 87.9534 17.4944C87.9534 17.5777 87.9827 17.6483 88.0413 17.7061C88.1 17.7639 88.1709 17.7928 88.2542 17.7928ZM88.8075 20.8882V20.6995L88.5271 20.674L88.4378 20.5899V18.3512H88.2338L87.6346 18.5373V18.7005H87.9992V20.5899L87.91 20.674L87.6346 20.6995V20.8882H88.8075ZM90.143 20.9341C90.4965 20.9341 90.7877 20.8122 91.0163 20.5682C91.2449 20.3243 91.3592 20.0111 91.3592 19.6286C91.3592 19.2461 91.2453 18.9329 91.0176 18.689C90.7898 18.4451 90.4982 18.3231 90.143 18.3231C89.786 18.3231 89.4949 18.4447 89.2697 18.6877C89.0444 18.9308 88.9318 19.2444 88.9318 19.6286C88.9318 20.0128 89.0453 20.3264 89.2722 20.5695C89.4991 20.8126 89.7894 20.9341 90.143 20.9341ZM90.143 20.7097C89.9271 20.7097 89.7528 20.6116 89.6203 20.4152C89.4877 20.2189 89.4214 19.9567 89.4214 19.6286C89.4214 19.3005 89.4872 19.0383 89.619 18.842C89.7507 18.6457 89.9254 18.5475 90.143 18.5475C90.3606 18.5475 90.5361 18.6461 90.6695 18.8433C90.803 19.0405 90.8697 19.3022 90.8697 19.6286C90.8697 19.9584 90.8034 20.221 90.6708 20.4165C90.5382 20.612 90.3623 20.7097 90.143 20.7097ZM92.6794 20.8882V20.6995L92.4295 20.674L92.3402 20.5899V18.8407C92.4524 18.7829 92.557 18.74 92.6539 18.712C92.7508 18.6839 92.8409 18.6699 92.9241 18.6699C93.1145 18.6699 93.2501 18.7107 93.3308 18.7923C93.4116 18.8739 93.452 19.0124 93.452 19.2079V20.5899L93.3627 20.674L93.1128 20.6995V20.8882H94.2551V20.6995L93.9747 20.674L93.8854 20.5899V19.1187C93.8854 18.8603 93.8251 18.6631 93.7044 18.5271C93.5837 18.3911 93.4095 18.3231 93.1817 18.3231C93.0848 18.3231 92.9726 18.3465 92.8451 18.3932C92.7176 18.44 92.5493 18.5212 92.3402 18.6367V18.3512H92.1413L91.5345 18.5373V18.7005H91.9068V20.5899L91.8175 20.674L91.5345 20.6995V20.8882H92.6794Z" fill="white"/>
<path fill-rule="evenodd" clip-rule="evenodd" d="M0.000244141 0H21.7587V21.7585H0.000244141V0ZM16.1943 5.56417L5.56349 5.56304V16.1949L5.55997 16.1982L5.56007 16.1989H16.1992L16.1983 5.56039L16.1978 5.5603L16.1943 5.56417Z" fill="white"/>
</svg>
