<svg width="20" height="20" viewBox="0 0 20 20" fill="none" xmlns="http://www.w3.org/2000/svg">
<path d="M5.03007 5.795C4.87426 5.63881 4.78676 5.4272 4.78676 5.20659C4.78676 4.98598 4.87426 4.77437 5.03007 4.61819L9.40405 0.244214C9.562 0.0877657 9.77534 0 9.99766 0C10.22 0 10.4333 0.0877657 10.5913 0.244214L14.9652 4.61819C15.121 4.77437 15.2085 4.98598 15.2085 5.20659C15.2085 5.4272 15.121 5.63881 14.9652 5.795C14.8877 5.87371 14.7953 5.93623 14.6934 5.9789C14.5915 6.02157 14.4821 6.04354 14.3716 6.04354C14.2611 6.04354 14.1518 6.02157 14.0499 5.9789C13.9479 5.93623 13.8555 5.87371 13.778 5.795L10.8308 2.84777V12.5018C10.8308 12.7227 10.743 12.9346 10.5868 13.0909C10.4305 13.2471 10.2186 13.3349 9.99766 13.3349C9.77669 13.3349 9.56478 13.2471 9.40854 13.0909C9.2523 12.9346 9.16452 12.7227 9.16452 12.5018V2.84777L6.21729 5.795C6.13977 5.87371 6.04736 5.93623 5.94545 5.9789C5.84354 6.02157 5.73416 6.04354 5.62368 6.04354C5.5132 6.04354 5.40382 6.02157 5.30191 5.9789C5.2 5.93623 5.10759 5.87371 5.03007 5.795ZM19.1622 11.6686C18.9412 11.6686 18.7293 11.7564 18.5731 11.9126C18.4168 12.0689 18.329 12.2808 18.329 12.5018V18.3337H1.66628V12.5018C1.66628 12.2808 1.5785 12.0689 1.42226 11.9126C1.26601 11.7564 1.0541 11.6686 0.833138 11.6686C0.612176 11.6686 0.400264 11.7564 0.244021 11.9126C0.087777 12.0689 0 12.2808 0 12.5018V18.3337C0 18.7756 0.175554 19.1995 0.488041 19.512C0.800528 19.8244 1.22435 20 1.66628 20H18.329C18.771 20 19.1948 19.8244 19.5073 19.512C19.8198 19.1995 19.9953 18.7756 19.9953 18.3337V12.5018C19.9953 12.2808 19.9075 12.0689 19.7513 11.9126C19.595 11.7564 19.3831 11.6686 19.1622 11.6686Z" fill="#BBBFC1"/>
</svg>
