<?xml version="1.0" standalone="no"?>
<!DOCTYPE svg PUBLIC "-//W3C//DTD SVG 20010904//EN"
 "http://www.w3.org/TR/2001/REC-SVG-20010904/DTD/svg10.dtd">
<svg version="1.0" xmlns="http://www.w3.org/2000/svg"
 width="644.000000pt" height="437.000000pt" viewBox="0 0 644.000000 437.000000"
 preserveAspectRatio="xMidYMid meet">

<g transform="translate(0.000000,437.000000) scale(0.100000,-0.100000)"
fill="#000000" stroke="none">
<path d="M55 4288 c-3 -7 -4 -962 -3 -2123 l3 -2110 590 0 590 0 0 2120 0
2120 -588 3 c-465 2 -589 0 -592 -10z m255 -110 c0 -25 3 -29 12 -20 7 7 17
12 23 12 5 -1 -2 -11 -18 -23 -20 -17 -37 -22 -62 -19 -33 4 -35 6 -35 43 0
39 0 39 40 39 38 0 40 -1 40 -32z m500 3 c14 -26 3 -50 -26 -57 -15 -4 -24
-13 -24 -25 0 -10 -7 -19 -15 -19 -12 0 -15 13 -15 60 l0 60 35 0 c24 0 37 -6
45 -19z m40 -41 c0 -33 -4 -60 -10 -60 -6 0 -10 27 -10 60 0 33 4 60 10 60 6
0 10 -27 10 -60z m110 50 c0 -5 -4 -10 -10 -10 -5 0 -10 -4 -10 -10 0 -5 9
-10 20 -10 12 0 24 -9 29 -22 l8 -23 7 23 c4 12 13 22 21 22 10 0 8 -13 -9
-57 -23 -59 -53 -88 -40 -39 7 29 -13 89 -27 80 -5 -3 -9 -19 -9 -35 0 -42
-23 -32 -30 12 -4 21 0 43 8 57 14 22 42 30 42 12z m-466 -17 c6 -14 8 -14 20
3 18 24 31 12 17 -15 -8 -14 -8 -27 1 -45 14 -32 1 -48 -18 -22 -14 20 -14 20
-28 0 -19 -25 -31 -12 -16 16 9 17 9 29 1 47 -14 31 -14 33 3 33 8 0 17 -7 20
-17z m-104 4 c0 -2 -12 -14 -27 -28 l-28 -24 24 28 c23 25 31 32 31 24z m190
-57 c0 -22 -4 -40 -10 -40 -5 0 -10 18 -10 40 0 22 5 40 10 40 6 0 10 -18 10
-40z m138 -4 c2 -28 0 -37 -10 -34 -7 3 -14 17 -16 31 -4 37 -22 34 -22 -3 0
-16 -4 -30 -10 -30 -5 0 -10 14 -10 30 0 20 -5 30 -15 30 -10 0 -15 -10 -15
-30 0 -16 -4 -30 -10 -30 -5 0 -10 18 -10 40 l0 41 58 -3 57 -3 3 -39z m172 4
c0 -22 -4 -40 -10 -40 -5 0 -10 18 -10 40 0 22 5 40 10 40 6 0 10 -18 10 -40z
m317 -1 c2 -16 -1 -19 -9 -11 -5 5 -7 15 -4 21 10 15 12 14 13 -10z m-875 -11
c6 6 29 12 50 12 l38 0 0 -46 0 -45 -42 3 c-39 3 -44 6 -49 33 -4 17 -7 24 -8
18 0 -7 -5 -13 -11 -13 -5 0 -7 8 -3 18 5 13 0 11 -20 -7 -32 -29 -37 -11 -6
20 17 17 23 19 30 8 6 -11 11 -11 21 -1z m-65 -333 l22 -25 -22 -24 -22 -25
-9 27 c-13 39 -25 52 -50 52 -30 0 -46 -18 -46 -51 0 -29 26 -63 41 -54 11 7
11 -22 0 -50 -7 -19 -10 -18 -39 12 -70 69 -20 183 73 168 17 -3 40 -16 52
-30z m212 -30 c0 -19 -1 -19 -8 -1 -6 16 -9 17 -13 4 -4 -10 -19 -15 -51 -14
-25 1 -49 4 -53 9 -4 4 -2 7 4 7 7 0 12 7 12 15 0 8 5 15 10 15 6 0 10 -3 10
-7 0 -5 11 -8 25 -8 14 0 25 6 25 13 0 10 4 10 20 0 11 -7 20 -22 19 -33z
m205 24 c52 1 56 0 55 -21 0 -22 -1 -22 -9 -3 -6 15 -9 16 -9 4 -1 -19 -61
-25 -61 -6 0 7 -4 6 -10 -3 -8 -13 -10 -12 -10 3 0 9 -4 17 -10 17 -5 0 -10
-8 -11 -17 0 -15 -2 -15 -9 2 -8 19 -9 19 -9 1 -1 -15 -4 -16 -16 -6 -10 8
-15 9 -15 1 0 -6 -11 -10 -25 -9 -14 1 -25 8 -25 15 0 19 -18 16 -23 -4 -4
-14 -5 -12 -6 5 -1 21 3 22 44 19 25 -2 45 1 45 6 0 5 7 7 15 3 8 -3 15 0 15
7 0 8 3 7 9 -2 6 -10 26 -14 65 -12z m96 8 c0 -10 13 -12 46 -10 39 3 45 1 42
-14 -2 -14 -13 -18 -43 -18 -23 0 -45 -6 -53 -15 -10 -12 -12 -8 -10 28 1 23
6 42 10 42 4 0 8 -6 8 -13z m-594 -45 c12 -7 15 -42 4 -42 -11 0 -30 24 -30
37 0 14 9 16 26 5z m198 -62 c17 13 29 9 32 -13 1 -9 -10 -13 -32 -13 -27 1
-34 5 -34 21 0 16 2 17 9 6 8 -12 12 -13 25 -1z m97 -7 c8 2 10 2 5 -1 -4 -2
-3 -8 4 -12 7 -5 -1 -7 -19 -6 -17 0 -31 6 -31 12 0 17 13 26 20 14 4 -6 13
-9 21 -7z m219 -10 c0 -19 -62 -12 -68 8 -3 11 -2 11 6 1 8 -11 10 -11 15 1 7
19 47 11 47 -10z m-130 2 c0 -8 -4 -15 -10 -15 -5 0 -10 6 -10 13 0 8 -4 7
-10 -3 -9 -13 -10 -13 -10 0 0 13 -1 13 -10 0 -8 -13 -10 -12 -10 3 0 12 8 17
30 17 20 0 30 -5 30 -15z m38 -6 c3 -12 2 -12 -6 0 -8 11 -10 11 -15 0 -4 -10
-6 -8 -6 4 -1 21 21 18 27 -4z m116 6 c-4 -8 -8 -15 -10 -15 -2 0 -4 7 -4 15
0 8 4 15 10 15 5 0 7 -7 4 -15z m46 0 c0 -8 -9 -15 -20 -15 -20 0 -26 11 -13
23 12 13 33 7 33 -8z m70 -3 c0 -8 -6 -12 -14 -9 -8 3 -17 -1 -21 -10 -5 -13
-8 -14 -18 -3 -9 10 -9 14 2 17 11 5 11 7 0 14 -8 5 -2 7 19 7 21 -1 32 -6 32
-16z m-580 -207 c0 -8 -5 -17 -11 -21 -8 -5 -7 -9 1 -14 25 -16 3 -37 -39 -37
-38 0 -62 19 -41 32 7 4 7 13 0 24 -13 25 -6 29 46 29 30 0 44 -4 44 -13z
m144 -4 c3 -4 17 -6 31 -3 22 4 25 1 25 -22 0 -19 -5 -26 -19 -26 -11 0 -23 5
-27 11 -4 8 -9 8 -17 0 -20 -20 -37 -12 -37 19 0 23 5 30 19 30 11 0 22 -4 25
-9z m155 -34 l-2 -22 -4 23 c-2 12 -8 22 -13 22 -5 0 -11 -10 -13 -22 -3 -17
-5 -14 -6 10 -1 30 1 32 19 22 12 -6 19 -20 19 -33z m76 29 c8 4 22 1 30 -6
10 -9 15 -9 15 -1 0 6 9 11 20 11 15 0 20 -7 20 -25 0 -18 -5 -25 -20 -25 -11
0 -20 5 -20 11 0 8 -4 8 -12 2 -7 -5 -32 -10 -55 -11 -41 -1 -43 0 -43 28 0
27 2 29 25 20 14 -5 32 -7 40 -4z m175 -17 c0 -26 -3 -30 -22 -27 -32 4 -35
36 -6 47 13 6 24 10 26 10 1 1 2 -13 2 -30z m-305 -4 c0 -11 -8 -21 -17 -23
-14 -3 -18 3 -18 23 0 20 4 26 18 23 9 -2 17 -12 17 -23z m247 -1 c-3 -17 -8
-22 -15 -15 -11 11 -3 41 11 41 5 0 7 -12 4 -26z m-533 -226 c-2 -13 0 -29 4
-35 12 -19 -1 -33 -28 -33 -36 0 -42 20 -12 42 30 22 35 38 11 38 -11 0 -14
-5 -9 -17 5 -14 3 -15 -6 -6 -15 15 -3 33 22 33 15 0 20 -6 18 -22z m25 -8
c-6 -6 -10 -3 -10 10 0 13 4 16 10 10 7 -7 7 -13 0 -20z m269 -2 c-7 -43 -13
-49 -13 -11 0 25 6 43 16 43 1 0 0 -15 -3 -32z m24 -20 c-2 -13 -4 -5 -4 17
-1 22 1 32 4 23 2 -10 2 -28 0 -40z m20 0 c-2 -13 -4 -5 -4 17 -1 22 1 32 4
23 2 -10 2 -28 0 -40z m-152 32 c3 -5 12 -7 19 -4 10 4 12 -2 8 -22 -4 -24 -6
-25 -17 -11 -16 22 -32 22 -38 0 -3 -10 -5 -3 -6 15 -1 31 20 45 34 22z m83
-23 c4 -21 -27 -35 -38 -17 -12 19 0 42 19 38 9 -2 17 -11 19 -21z m122 -2 c0
-25 -23 -35 -35 -15 -10 16 2 40 20 40 9 0 15 -9 15 -25z m45 0 c0 -28 -27
-25 -32 3 -2 18 1 23 14 20 10 -2 18 -12 18 -23z m-419 -206 c4 -7 0 -9 -12
-5 -11 3 -26 1 -34 -5 -11 -8 -4 -9 28 -6 36 4 42 3 38 -10 -3 -8 -6 -21 -6
-29 0 -10 -12 -14 -39 -14 -34 0 -39 3 -44 28 -4 18 -1 31 11 40 20 15 49 16
58 1z m391 -51 c-2 -13 -4 -5 -4 17 -1 22 1 32 4 23 2 -10 2 -28 0 -40z m-227
33 c0 -4 11 -6 25 -3 22 4 25 1 25 -22 0 -29 -20 -35 -40 -11 -17 20 -37 19
-43 -2 -3 -10 -5 -3 -6 15 -1 26 3 32 19 32 11 0 20 -4 20 -9z m210 -17 c0
-18 -4 -25 -14 -21 -7 3 -18 1 -24 -5 -13 -13 -32 -2 -32 18 0 23 -18 16 -23
-8 -4 -20 -4 -19 -6 4 -1 27 1 28 39 25 22 -2 40 0 40 5 0 4 5 8 10 8 6 0 10
-12 10 -26z m-117 8 c4 9 6 9 6 -2 0 -8 -6 -26 -14 -40 -14 -24 -14 -24 -15
-3 0 12 -3 30 -7 40 -6 15 -4 16 9 5 13 -10 17 -10 21 0z m-260 -59 c-13 -2
-35 -2 -50 0 -16 2 -5 4 22 4 28 0 40 -2 28 -4z m5 -165 c7 -7 12 -29 12 -50
0 -38 0 -38 -40 -38 -34 0 -41 4 -46 25 -11 44 3 75 34 75 15 0 33 -5 40 -12z
m148 -14 c-3 -9 -6 -23 -6 -31 0 -22 -6 -14 -14 20 -5 21 -3 27 10 27 11 0 14
-5 10 -16z m64 -23 c0 -22 -21 -33 -40 -21 -18 11 -4 40 20 40 13 0 20 -7 20
-19z m37 -1 c0 -9 -6 -17 -12 -17 -6 0 -12 8 -12 17 -1 9 5 17 12 17 7 0 13
-8 12 -17z m-246 -210 c26 -14 24 -34 -4 -47 -17 -8 -30 -7 -50 3 -32 17 -32
18 -11 38 18 19 38 20 65 6z m154 -11 c4 -6 -2 -19 -14 -30 l-21 -20 0 31 c0
30 21 42 35 19z m235 -19 c0 -13 6 -20 18 -19 10 0 12 3 5 6 -19 7 -16 23 5
23 11 0 18 -8 19 -21 2 -17 -3 -20 -30 -17 -24 2 -33 8 -35 26 -2 12 1 22 7
22 6 0 11 -9 11 -20z m-207 -10 c-3 -11 -7 -20 -9 -20 -2 0 -4 9 -4 20 0 11 4
20 9 20 5 0 7 -9 4 -20z m57 0 c0 -13 -7 -20 -19 -20 -22 0 -35 15 -26 30 12
19 45 11 45 -10z m17 -27 c-3 -10 -5 -2 -5 17 0 19 2 27 5 18 2 -10 2 -26 0
-35z m91 40 c-10 -3 -18 -8 -18 -13 0 -5 8 -11 18 -13 13 -4 11 -5 -5 -6 -13
0 -23 5 -24 12 0 10 -2 10 -6 0 -8 -21 -43 -16 -43 6 0 16 7 19 48 19 26 -1
39 -3 30 -5z m-373 -43 c18 0 36 5 38 10 3 6 4 5 3 -2 -1 -8 -21 -14 -44 -16
-35 -3 -42 0 -41 15 0 10 3 13 6 6 2 -7 20 -13 38 -13z m33 -182 c15 -15 15
-51 0 -66 -19 -19 -66 -15 -78 7 -14 27 -13 37 6 55 18 19 55 21 72 4z m132
-8 c-13 -9 -13 -11 0 -20 13 -9 13 -10 0 -10 -13 0 -13 -1 0 -10 13 -8 12 -10
-2 -10 -13 0 -18 8 -18 30 0 22 5 30 18 30 14 0 15 -2 2 -10z m47 -29 c1 -10
-4 -18 -11 -18 -8 0 -13 10 -13 23 0 26 22 22 24 -5z m59 18 c4 -6 11 -6 19 1
18 15 35 5 35 -20 0 -15 -7 -19 -41 -18 -25 0 -45 -5 -50 -13 -6 -10 -9 -3 -9
21 0 29 4 36 20 37 11 1 22 -3 26 -8z m101 -19 c1 -15 0 -18 -3 -7 -3 9 -9 17
-14 17 -5 0 -11 -8 -13 -17 -3 -11 -5 -7 -6 10 -1 22 3 28 17 25 10 -2 18 -13
19 -28z m45 9 c-2 -9 3 -7 17 5 22 20 41 14 41 -14 0 -15 -8 -18 -47 -18 -27
0 -42 3 -34 5 10 4 11 7 1 13 -15 9 -3 33 13 27 7 -3 11 -11 9 -18z m89 -2
c-13 -13 -26 -3 -16 12 3 6 11 8 17 5 6 -4 6 -10 -1 -17z m9 -17 c0 -5 -8 -10
-17 -10 -15 0 -16 2 -3 10 19 12 20 12 20 0z m-486 -186 c22 -9 22 -89 0 -98
-50 -19 -84 1 -84 49 0 48 34 68 84 49z m146 -25 c0 -5 -6 -7 -12 -3 -9 5 -8
2 1 -9 12 -16 16 -16 31 -2 24 22 40 18 40 -9 0 -22 -4 -24 -45 -24 -25 1 -45
5 -45 10 0 5 6 6 13 2 10 -6 10 -4 0 7 -18 18 -16 39 2 39 8 0 15 -5 15 -11z
m77 -36 c-3 -10 -5 -2 -5 17 0 19 2 27 5 18 2 -10 2 -26 0 -35z m100 9 c2 -16
-2 -22 -15 -21 -12 0 -13 2 -3 6 20 8 -6 22 -31 15 -15 -4 -17 -7 -6 -13 10
-7 9 -9 -4 -9 -20 0 -32 16 -24 35 3 9 18 13 42 12 30 -2 38 -7 41 -25z m-312
-247 c0 -40 0 -40 -39 -40 -45 0 -62 19 -52 59 6 25 10 27 49 24 42 -3 42 -3
42 -43z m149 26 c4 -5 -3 -7 -14 -4 -15 4 -20 0 -20 -17 0 -17 4 -20 21 -15
15 5 19 4 15 -4 -10 -16 -31 -14 -46 4 -10 12 -10 18 0 30 14 17 36 20 44 6z
m96 -11 c10 17 40 5 40 -15 0 -20 -30 -32 -40 -15 -6 10 -9 9 -13 -1 -3 -8 -5
2 -5 21 0 19 3 26 5 16 4 -14 7 -16 13 -6z m150 -11 c0 -26 -3 -30 -22 -27
-32 4 -35 36 -6 47 13 6 24 10 26 10 1 1 2 -13 2 -30z m-180 -4 c0 -18 -5 -25
-19 -25 -11 0 -23 5 -26 10 -11 18 3 40 25 40 15 0 20 -7 20 -25z m119 -2 c-2
-24 -2 -25 -6 -5 -2 12 -8 22 -13 22 -5 0 -11 -10 -13 -22 -4 -20 -4 -19 -6 5
-1 21 4 27 19 27 15 0 20 -6 19 -27z m109 -1 c2 -14 -2 -22 -12 -22 -19 0 -29
17 -22 36 8 22 30 12 34 -14z m35 16 c-6 -7 -13 -20 -16 -28 -3 -9 -6 -3 -6
13 -1 19 4 27 15 27 12 0 14 -4 7 -12z m-481 -243 c9 -21 8 -28 -7 -45 -33
-36 -75 -19 -75 30 0 34 7 40 42 40 21 0 32 -7 40 -25z m146 -13 c9 -27 8 -29
-18 -29 -26 0 -27 2 -18 29 6 15 14 28 18 28 4 0 12 -13 18 -28z m66 -5 c1
-15 -2 -27 -6 -27 -4 0 -8 9 -8 20 0 11 -5 20 -11 20 -6 0 -9 -9 -6 -20 7 -26
-10 -26 -18 0 -8 26 0 37 26 35 17 -1 23 -8 23 -28z m166 25 c0 -5 10 -8 22
-8 14 1 24 -6 26 -17 4 -22 -27 -35 -39 -16 -6 10 -9 10 -9 2 0 -19 -40 -16
-47 3 -4 11 1 22 12 30 21 16 35 18 35 6z m-112 -25 c4 -20 -25 -34 -40 -19
-15 15 -1 44 19 40 10 -2 19 -11 21 -21z m49 -7 c1 -22 1 -22 -4 -2 -2 12 -8
22 -13 22 -5 0 -11 -10 -13 -22 -4 -19 -5 -18 -6 5 -1 22 3 28 17 25 10 -2 18
-13 19 -28z m162 3 c-2 -24 -2 -25 -6 -5 -2 12 -8 22 -13 22 -5 0 -11 -10 -13
-22 -4 -20 -4 -19 -6 5 -1 21 4 27 19 27 15 0 20 -6 19 -27z m51 17 c0 -5 -7
-7 -16 -3 -12 4 -15 2 -12 -8 3 -8 11 -13 17 -11 6 1 11 -2 11 -8 0 -13 -27
-13 -35 0 -10 16 2 40 20 40 8 0 15 -4 15 -10z m53 -2 c6 -19 -3 -38 -18 -38
-18 0 -28 17 -21 35 7 18 33 20 39 3z m-588 -258 c0 -43 -1 -45 -32 -48 -27
-3 -35 1 -44 22 -6 13 -9 36 -5 51 6 23 11 26 44 23 37 -3 37 -3 37 -48z m292
-12 c-2 -13 -4 -5 -4 17 -1 22 1 32 4 23 2 -10 2 -28 0 -40z m-143 26 c10 -26
7 -34 -14 -34 -11 0 -20 4 -20 9 0 17 12 41 20 41 4 0 11 -7 14 -16z m301 -19
c0 -14 -3 -25 -7 -25 -4 0 -8 10 -9 23 l0 22 -10 -23 c-11 -29 -43 -26 -47 5
-3 18 2 22 30 25 41 4 41 4 43 -27z m-235 7 c0 -15 -32 -52 -45 -52 -3 0 -5
16 -5 35 0 31 3 35 25 35 17 0 25 -5 25 -18z m58 -5 c2 -10 -4 -20 -15 -24
-10 -4 -21 -11 -25 -17 -4 -6 -8 6 -8 27 0 34 3 38 22 35 13 -2 24 -11 26 -21z
m39 -14 c-3 -10 -5 -4 -5 12 0 17 2 24 5 18 2 -7 2 -21 0 -30z m53 27 c0 -5
-7 -7 -16 -3 -12 4 -15 2 -12 -8 3 -8 12 -13 19 -11 11 3 11 1 2 -8 -15 -16
-33 -4 -33 21 0 12 7 19 20 19 11 0 20 -4 20 -10z m107 -27 c-3 -10 -5 -4 -5
12 0 17 2 24 5 18 2 -7 2 -21 0 -30z m53 25 c0 -10 3 -10 9 0 11 19 45 11 49
-11 5 -22 -15 -22 -21 1 -3 14 -6 13 -15 -8 -6 -14 -11 -19 -11 -11 -1 11 -4
11 -16 1 -18 -15 -35 -5 -35 21 0 12 7 19 20 19 11 0 20 -6 20 -12z m-303
-270 c-2 -13 -4 -5 -4 17 -1 22 1 32 4 23 2 -10 2 -28 0 -40z m-67 34 c0 -4
-9 -15 -20 -25 -19 -16 -20 -16 -20 8 0 18 5 25 20 25 11 0 20 -3 20 -8z m50
-21 c0 -27 -19 -36 -37 -18 -18 18 -9 37 18 37 12 0 19 -7 19 -19z m37 -18
c-3 -10 -5 -4 -5 12 0 17 2 24 5 18 2 -7 2 -21 0 -30z m40 30 c-21 -5 -17 -30
4 -25 11 3 11 1 2 -8 -15 -16 -33 -4 -33 21 0 13 6 19 23 18 17 -1 18 -2 4 -6z
m30 -25 c-3 -7 -5 -2 -5 12 0 14 2 19 5 13 2 -7 2 -19 0 -25z m88 20 c-11 -6
-27 -17 -35 -24 -19 -16 -45 -2 -37 19 4 10 20 15 49 15 36 1 40 -1 23 -10z
m15 -17 c0 -14 -18 -23 -31 -15 -8 4 -7 9 2 15 18 11 29 11 29 0z m-411 -205
c16 -19 10 -66 -10 -79 -9 -5 -28 -7 -42 -3 -23 5 -27 12 -27 45 0 21 3 41 7
44 12 12 60 7 72 -7z m137 -4 c12 -8 14 -52 2 -52 -4 0 -8 6 -8 13 0 8 -4 7
-10 -3 -7 -11 -10 -7 -10 18 0 32 6 38 26 24z m138 -26 c2 -14 -1 -26 -5 -26
-5 0 -9 7 -9 16 0 12 -6 15 -25 10 -14 -4 -25 -2 -25 4 0 5 9 10 19 10 11 0
23 5 26 11 9 14 16 6 19 -25z m-74 -6 c0 -13 -7 -20 -20 -20 -13 0 -20 7 -20
20 0 13 7 20 20 20 13 0 20 -7 20 -20z m130 1 c0 -24 -25 -34 -40 -16 -15 18
-5 35 21 35 12 0 19 -7 19 -19z m23 -1 c-3 -11 -7 -20 -9 -20 -2 0 -4 9 -4 20
0 11 4 20 9 20 5 0 7 -9 4 -20z m-103 -10 c0 -5 -10 -10 -22 -10 -19 0 -20 2
-8 10 19 13 30 13 30 0z m-266 -205 c27 -21 27 -52 -1 -70 -19 -13 -26 -13
-43 -3 -25 16 -26 56 -2 74 21 17 23 17 46 -1z m293 -47 c-2 -13 -4 -5 -4 17
-1 22 1 32 4 23 2 -10 2 -28 0 -40z m-145 33 c-11 -7 -11 -9 1 -14 8 -3 19 -1
25 5 14 14 42 3 42 -16 0 -21 -18 -30 -34 -17 -9 7 -16 7 -24 -1 -9 -9 -15 -9
-24 1 -10 11 -10 13 0 7 6 -4 12 -2 12 3 0 6 -4 11 -10 11 -5 0 -10 7 -10 15
0 8 8 15 18 15 13 0 14 -2 4 -9z m124 -24 c1 -15 -2 -25 -7 -22 -5 4 -9 13 -9
21 0 8 -5 14 -11 14 -6 0 -9 -9 -6 -20 3 -11 1 -18 -4 -14 -5 3 -9 15 -9 28 0
35 42 28 46 -7z m132 -11 c-2 -23 -8 -31 -23 -31 -11 0 -19 6 -17 13 1 6 -5
12 -13 12 -8 0 -15 7 -15 15 0 23 -18 18 -23 -7 -4 -21 -4 -20 -6 3 -1 26 1
27 50 27 l50 0 -3 -32z m-418 -196 c8 -5 12 -11 10 -14 -3 -2 -14 2 -24 10
-22 15 -10 19 14 4z m-30 -74 c6 -5 15 -4 25 4 9 7 15 8 15 2 0 -13 -36 -26
-50 -17 -5 3 -9 25 -8 48 1 41 1 41 5 7 3 -19 8 -39 13 -44z m192 17 c8 -10 6
-13 -6 -13 -12 0 -16 9 -15 33 1 21 3 25 6 12 3 -11 10 -26 15 -32z m253 12
c0 -14 -2 -25 -6 -25 -8 0 -18 48 -11 55 9 8 15 -4 17 -30z m-383 -7 c-9 -9
-12 -7 -12 12 0 19 3 21 12 12 9 -9 9 -15 0 -24z m188 20 c0 -9 3 -9 12 0 16
16 48 15 49 0 0 -10 2 -10 6 0 8 20 43 15 43 -7 0 -25 -17 -36 -34 -22 -11 9
-15 7 -19 -10 -6 -22 -41 -24 -43 -1 -3 23 -4 24 -19 12 -18 -15 -35 -5 -35
21 0 12 7 19 20 19 11 0 20 -5 20 -12z m150 -8 c6 22 8 23 15 7 4 -10 3 -23
-3 -29 -16 -16 -42 -1 -41 24 0 23 0 23 11 -2 l11 -25 7 25z"/>
<path d="M760 4160 c0 -13 5 -20 13 -17 6 2 12 10 12 17 0 7 -6 15 -12 18 -8
2 -13 -5 -13 -18z"/>
<path d="M180 3440 c0 -5 5 -10 10 -10 6 0 10 5 10 10 0 6 -4 10 -10 10 -5 0
-10 -4 -10 -10z"/>
<path d="M220 3440 c0 -5 7 -10 15 -10 8 0 15 5 15 10 0 6 -7 10 -15 10 -8 0
-15 -4 -15 -10z"/>
<path d="M197 3424 c-3 -4 4 -15 17 -25 27 -21 36 -24 36 -9 0 6 -7 10 -15 10
-8 0 -14 5 -12 11 2 13 -16 23 -26 13z"/>
<path d="M180 3390 c0 -5 5 -10 10 -10 6 0 10 5 10 10 0 6 -4 10 -10 10 -5 0
-10 -4 -10 -10z"/>
<path d="M370 3420 c0 -11 5 -20 10 -20 6 0 10 9 10 20 0 11 -4 20 -10 20 -5
0 -10 -9 -10 -20z"/>
<path d="M425 3421 c-6 -11 9 -23 19 -14 9 9 7 23 -3 23 -6 0 -12 -4 -16 -9z"/>
<path d="M586 3421 c-4 -5 -2 -12 3 -15 5 -4 12 -2 15 3 4 5 2 12 -3 15 -5 4
-12 2 -15 -3z"/>
<path d="M635 3421 c-6 -11 9 -23 19 -14 9 9 7 23 -3 23 -6 0 -12 -4 -16 -9z"/>
<path d="M690 3415 c0 -8 5 -15 10 -15 6 0 10 7 10 15 0 8 -4 15 -10 15 -5 0
-10 -7 -10 -15z"/>
<path d="M780 3415 c0 -8 5 -15 10 -15 6 0 10 7 10 15 0 8 -4 15 -10 15 -5 0
-10 -7 -10 -15z"/>
<path d="M175 3140 c3 -5 15 -10 26 -10 10 0 19 5 19 10 0 6 -12 10 -26 10
-14 0 -23 -4 -19 -10z"/>
<path d="M460 3164 c0 -8 5 -12 10 -9 6 3 10 10 10 16 0 5 -4 9 -10 9 -5 0
-10 -7 -10 -16z"/>
<path d="M181 2914 c0 -11 3 -14 6 -6 3 7 2 16 -1 19 -3 4 -6 -2 -5 -13z"/>
<path d="M201 2914 c0 -11 3 -14 6 -6 3 7 2 16 -1 19 -3 4 -6 -2 -5 -13z"/>
<path d="M231 2914 c0 -11 3 -14 6 -6 3 7 2 16 -1 19 -3 4 -6 -2 -5 -13z"/>
<path d="M420 2920 c0 -5 5 -10 10 -10 6 0 10 5 10 10 0 6 -4 10 -10 10 -5 0
-10 -4 -10 -10z"/>
<path d="M550 2920 c0 -5 5 -10 10 -10 6 0 10 5 10 10 0 6 -4 10 -10 10 -5 0
-10 -4 -10 -10z"/>
<path d="M180 2670 c0 -38 2 -40 30 -40 25 0 30 4 30 25 0 16 -6 25 -15 25 -8
0 -15 7 -15 15 0 8 -7 15 -15 15 -11 0 -15 -11 -15 -40z m48 -12 c-7 -19 -38
-22 -38 -4 0 10 9 16 21 16 12 0 19 -5 17 -12z"/>
<path d="M410 2670 c0 -5 7 -10 15 -10 8 0 15 5 15 10 0 6 -7 10 -15 10 -8 0
-15 -4 -15 -10z"/>
<path d="M175 2441 c-3 -5 4 -12 15 -16 23 -7 60 2 60 16 0 12 -67 12 -75 0z"/>
<path d="M370 2440 c0 -5 5 -10 11 -10 5 0 7 5 4 10 -3 6 -8 10 -11 10 -2 0
-4 -4 -4 -10z"/>
<path d="M450 2420 c0 -5 5 -10 10 -10 6 0 10 5 10 10 0 6 -4 10 -10 10 -5 0
-10 -4 -10 -10z"/>
<path d="M180 2195 c-20 -24 -3 -55 30 -55 16 0 32 5 35 10 3 6 -1 10 -9 10
-9 0 -16 7 -16 15 0 8 7 15 16 15 8 0 12 5 9 10 -9 15 -51 12 -65 -5z"/>
<path d="M450 2170 c0 -5 7 -10 15 -10 8 0 15 5 15 10 0 6 -7 10 -15 10 -8 0
-15 -4 -15 -10z"/>
<path d="M177 1964 c-4 -4 -7 -22 -7 -40 0 -27 5 -35 25 -40 42 -10 57 1 53
43 -3 34 -6 38 -33 41 -17 2 -34 0 -38 -4z m40 -51 c-3 -10 -5 -4 -5 12 0 17
2 24 5 18 2 -7 2 -21 0 -30z m-30 -5 c-3 -8 -6 -5 -6 6 -1 11 2 17 5 13 3 -3
4 -12 1 -19z"/>
<path d="M420 1926 c0 -9 5 -16 10 -16 6 0 10 4 10 9 0 6 -4 13 -10 16 -5 3
-10 -1 -10 -9z"/>
<path d="M198 1703 c12 -2 30 -2 40 0 9 3 -1 5 -23 4 -22 0 -30 -2 -17 -4z"/>
<path d="M180 1665 c0 -24 3 -26 33 -23 24 2 32 8 32 23 0 15 -8 21 -32 23
-30 3 -33 1 -33 -23z"/>
<path d="M616 1681 c-4 -5 -2 -12 3 -15 5 -4 12 -2 15 3 4 5 2 12 -3 15 -5 4
-12 2 -15 -3z"/>
<path d="M430 1675 c0 -8 5 -15 10 -15 6 0 10 7 10 15 0 8 -4 15 -10 15 -5 0
-10 -7 -10 -15z"/>
<path d="M187 1453 c-15 -15 -6 -52 14 -58 28 -9 53 16 44 44 -6 20 -43 29
-58 14z m36 -24 c4 -16 3 -18 -9 -8 -7 6 -11 15 -8 20 8 13 11 11 17 -12z"/>
<path d="M590 1425 c0 -8 5 -15 10 -15 6 0 10 7 10 15 0 8 -4 15 -10 15 -5 0
-10 -7 -10 -15z"/>
<path d="M180 1179 c0 -38 1 -40 28 -37 23 3 27 8 30 41 3 35 2 37 -27 37 -30
0 -31 -2 -31 -41z m43 4 c-7 -2 -19 -2 -25 0 -7 3 -2 5 12 5 14 0 19 -2 13 -5z
m0 -20 c-7 -2 -19 -2 -25 0 -7 3 -2 5 12 5 14 0 19 -2 13 -5z"/>
<path d="M630 1181 c0 -6 5 -13 10 -16 6 -3 10 1 10 9 0 9 -4 16 -10 16 -5 0
-10 -4 -10 -9z"/>
<path d="M430 1174 c0 -8 5 -12 10 -9 6 3 10 10 10 16 0 5 -4 9 -10 9 -5 0
-10 -7 -10 -16z"/>
<path d="M482 1181 c2 -7 7 -12 11 -12 12 1 9 15 -3 20 -7 2 -11 -2 -8 -8z"/>
<path d="M740 1174 c0 -8 5 -12 10 -9 6 3 10 10 10 16 0 5 -4 9 -10 9 -5 0
-10 -7 -10 -16z"/>
<path d="M420 930 c0 -5 5 -10 10 -10 6 0 10 5 10 10 0 6 -4 10 -10 10 -5 0
-10 -4 -10 -10z"/>
<path d="M184 706 c-3 -8 -4 -25 -2 -38 2 -18 9 -23 33 -23 28 0 30 3 30 35 0
31 -3 35 -28 38 -17 2 -29 -2 -33 -12z m40 -21 c3 -8 1 -15 -4 -15 -6 0 -10 7
-10 15 0 8 2 15 4 15 2 0 6 -7 10 -15z"/>
<path d="M420 680 c0 -5 5 -10 10 -10 6 0 10 5 10 10 0 6 -4 10 -10 10 -5 0
-10 -4 -10 -10z"/>
<path d="M200 460 c0 -5 4 -10 8 -10 4 0 8 -9 8 -20 0 -11 -5 -19 -11 -17 -5
2 -9 11 -7 21 2 9 -2 16 -8 16 -16 0 -12 -30 7 -48 12 -12 18 -13 21 -4 2 6 9
12 16 12 6 0 12 9 12 20 0 11 -6 20 -13 20 -7 0 -13 5 -13 10 0 6 -4 10 -10
10 -5 0 -10 -4 -10 -10z"/>
<path d="M605 431 c-6 -11 9 -23 19 -14 9 9 7 23 -3 23 -6 0 -12 -4 -16 -9z"/>
<path d="M410 175 c0 -8 5 -15 10 -15 6 0 10 7 10 15 0 8 -4 15 -10 15 -5 0
-10 -7 -10 -15z"/>
<path d="M462 181 c4 -13 18 -16 19 -4 0 4 -5 9 -11 12 -7 2 -11 -2 -8 -8z"/>
<path d="M520 175 c0 -8 5 -15 10 -15 6 0 10 7 10 15 0 8 -4 15 -10 15 -5 0
-10 -7 -10 -15z"/>
<path d="M1548 4163 c-5 -27 3 -73 13 -73 5 0 9 10 10 23 0 12 2 32 3 45 3 26
-21 30 -26 5z"/>
<path d="M1633 4135 c0 -27 2 -38 4 -22 2 15 2 37 0 50 -2 12 -4 0 -4 -28z"/>
<path d="M1340 4130 c0 -22 5 -40 10 -40 6 0 10 6 10 14 0 7 9 16 20 19 12 3
20 14 20 26 0 17 -6 21 -30 21 -28 0 -30 -2 -30 -40z m48 18 c-6 -18 -28 -21
-28 -4 0 9 7 16 16 16 9 0 14 -5 12 -12z"/>
<path d="M1475 4144 c-18 -18 -16 -33 7 -47 35 -22 66 21 36 51 -16 16 -23 15
-43 -4z m40 -24 c0 -22 -29 -18 -33 3 -3 14 1 18 15 15 10 -2 18 -10 18 -18z"/>
<path d="M1672 4151 c-19 -12 -11 -55 12 -59 10 -2 23 2 30 8 8 9 6 11 -11 6
-12 -4 -24 -2 -28 4 -4 6 4 10 19 10 28 0 33 9 14 28 -14 14 -19 15 -36 3z
m25 -17 c-3 -3 -12 -4 -19 -1 -8 3 -5 6 6 6 11 1 17 -2 13 -5z"/>
<path d="M1743 4145 c-3 -9 3 -23 13 -31 17 -14 17 -15 2 -10 -10 3 -18 1 -18
-5 0 -14 42 -7 47 7 2 6 -7 16 -19 22 -19 9 -20 11 -5 11 10 1 15 6 12 11 -9
15 -25 12 -32 -5z"/>
<path d="M1421 4118 c1 -21 3 -26 6 -13 3 11 12 26 21 33 14 11 13 12 -6 12
-18 0 -22 -5 -21 -32z"/>
<path d="M1590 4120 c0 -16 5 -30 10 -30 6 0 10 14 10 30 0 17 -4 30 -10 30
-5 0 -10 -13 -10 -30z"/>
<path d="M5478 3883 c-92 -3 -128 -7 -128 -16 0 -7 -3 -22 -6 -35 -5 -16 -3
-22 6 -20 7 2 15 -3 17 -9 3 -7 -2 -13 -11 -13 -9 0 -18 -13 -22 -35 -3 -20
-5 -37 -3 -39 2 -2 150 -5 329 -7 l325 -4 0 90 0 90 -190 0 c-104 1 -247 -1
-317 -2z m-44 -68 c5 -14 8 -14 31 1 23 15 25 15 25 0 0 -15 2 -15 25 0 25 16
25 16 25 -14 l0 -30 -74 0 -73 0 10 29 c13 32 22 37 31 14z m236 1 c25 0 48 4
53 9 5 7 10 7 15 0 4 -5 16 -11 27 -13 20 -3 30 -3 100 1 34 1 40 -2 43 -21 3
-20 -1 -22 -36 -22 -23 0 -43 5 -45 13 -4 7 -8 3 -12 -10 -4 -13 -12 -23 -17
-23 -6 0 -8 7 -5 15 4 8 2 17 -3 20 -6 4 -10 1 -10 -4 0 -6 -20 -11 -44 -11
-26 0 -46 -5 -49 -12 -3 -9 -9 -7 -19 6 -8 10 -20 16 -26 12 -7 -4 -12 0 -13
11 -1 17 -2 17 -6 1 -3 -12 -14 -18 -34 -18 -26 0 -29 3 -29 31 0 30 1 31 33
24 17 -4 52 -8 77 -9z"/>
<path d="M5755 3790 c3 -5 8 -10 11 -10 2 0 4 5 4 10 0 6 -5 10 -11 10 -5 0
-7 -4 -4 -10z"/>
<path d="M1933 3863 c15 -2 39 -2 55 0 15 2 2 4 -28 4 -30 0 -43 -2 -27 -4z"/>
<path d="M1879 3843 c-13 -16 -12 -17 4 -4 16 13 21 21 13 21 -2 0 -10 -8 -17
-17z"/>
<path d="M2020 3856 c0 -2 7 -7 16 -10 8 -3 12 -2 9 4 -6 10 -25 14 -25 6z"/>
<path d="M1324 3816 c-9 -23 0 -51 16 -52 9 0 10 1 3 3 -7 3 -13 9 -13 14 0 5
6 9 13 9 8 0 7 4 -3 10 -13 9 -13 11 0 20 11 7 11 10 2 10 -7 0 -15 -6 -18
-14z"/>
<path d="M1542 3800 c0 -19 2 -27 5 -17 2 9 2 25 0 35 -3 9 -5 1 -5 -18z"/>
<path d="M5048 3823 c12 -2 30 -2 40 0 9 3 -1 5 -23 4 -22 0 -30 -2 -17 -4z"/>
<path d="M1861 3799 c-1 -14 6 -34 15 -45 8 -10 12 -13 8 -5 -4 8 -11 28 -15
45 -6 29 -7 29 -8 5z"/>
<path d="M1921 3804 c0 -11 3 -14 6 -6 3 7 2 16 -1 19 -3 4 -6 -2 -5 -13z"/>
<path d="M1959 3811 c9 -6 10 -11 2 -15 -14 -9 -14 -26 -1 -26 6 0 9 6 8 13
-2 6 3 11 11 9 12 -3 12 0 1 12 -7 9 -18 16 -24 16 -6 0 -5 -4 3 -9z"/>
<path d="M1998 3813 c15 -6 16 -29 2 -36 -6 -3 -5 -4 2 -3 7 1 14 12 16 24 3
16 -2 22 -15 21 -10 0 -13 -3 -5 -6z"/>
<path d="M1370 3785 c0 -14 2 -25 4 -25 2 0 6 11 8 25 3 14 1 25 -3 25 -5 0
-9 -11 -9 -25z"/>
<path d="M1408 3785 c2 -14 6 -25 7 -25 1 0 5 11 7 25 3 16 1 25 -7 25 -8 0
-10 -9 -7 -25z"/>
<path d="M1448 3783 c5 -21 7 -23 10 -9 2 10 0 22 -6 28 -6 6 -7 0 -4 -19z"/>
<path d="M1471 3773 c0 -22 3 -32 7 -23 4 8 14 15 22 15 8 0 16 10 18 23 2 12
-1 22 -6 22 -6 0 -8 -10 -5 -21 4 -16 2 -20 -8 -17 -8 3 -13 13 -13 22 1 9 -2
16 -7 16 -5 0 -9 -17 -8 -37z"/>
<path d="M1562 3788 c2 -13 11 -24 21 -26 20 -4 34 25 19 40 -8 8 -9 5 -5 -11
4 -15 1 -21 -12 -21 -12 0 -16 6 -12 20 3 11 1 20 -5 20 -5 0 -8 -10 -6 -22z"/>
<path d="M1624 3797 c3 -10 6 -28 6 -40 1 -20 2 -20 11 -4 7 13 6 23 -7 40
-12 16 -15 17 -10 4z"/>
<path d="M1674 3799 c-8 -14 21 -43 35 -35 14 9 14 46 0 46 -5 0 -7 -4 -4 -10
3 -5 -1 -10 -10 -10 -9 0 -13 5 -10 10 3 6 4 10 1 10 -3 0 -8 -5 -12 -11z"/>
<path d="M1734 3795 c-8 -19 3 -35 24 -34 14 0 13 2 -3 9 -19 8 -19 9 3 9 21
1 33 31 11 31 -5 0 -7 -4 -4 -10 3 -5 -1 -10 -10 -10 -9 0 -13 5 -10 10 3 6 4
10 0 10 -3 0 -8 -7 -11 -15z"/>
<path d="M1790 3801 c0 -5 9 -7 20 -4 11 3 20 7 20 9 0 2 -9 4 -20 4 -11 0
-20 -4 -20 -9z"/>
<path d="M2061 3794 c0 -11 3 -14 6 -6 3 7 2 16 -1 19 -3 4 -6 -2 -5 -13z"/>
<path d="M1816 3778 c5 -8 1 -9 -12 -4 -14 5 -16 4 -7 -5 6 -6 16 -8 22 -5 14
9 14 26 0 26 -5 0 -7 -5 -3 -12z"/>
<path d="M1943 3723 c15 -2 37 -2 50 0 12 2 0 4 -28 4 -27 0 -38 -2 -22 -4z"/>
<path d="M2100 3453 c0 -22 2 -25 10 -13 9 13 11 13 20 0 8 -13 10 -13 10 2 0
10 -9 22 -20 28 -18 10 -20 8 -20 -17z"/>
<path d="M2216 3460 c9 -35 14 -38 30 -16 7 11 11 22 8 25 -3 3 -9 -1 -13 -8
-7 -11 -11 -10 -20 5 -11 17 -11 16 -5 -6z"/>
<path d="M2321 3458 c-1 -17 4 -28 12 -28 7 0 13 9 13 19 0 11 -3 18 -7 15 -4
-2 -10 2 -12 8 -3 7 -6 1 -6 -14z"/>
<path d="M2430 3470 c0 -5 -5 -9 -12 -7 -6 1 -14 -6 -16 -15 -2 -13 3 -18 17
-18 16 0 21 6 21 25 0 14 -2 25 -5 25 -3 0 -5 -4 -5 -10z"/>
<path d="M2028 3452 c-4 -15 1 -18 28 -19 21 -1 34 4 34 11 0 20 -12 27 -27
15 -9 -9 -13 -8 -13 0 0 18 -17 13 -22 -7z"/>
<path d="M2163 3463 c-7 -3 -13 -12 -13 -21 0 -15 2 -15 10 -2 9 13 11 13 20
0 8 -13 10 -13 10 2 0 20 -10 27 -27 21z"/>
<path d="M2366 3463 c-12 -12 -6 -33 9 -33 8 0 15 6 15 14 0 17 -14 28 -24 19z"/>
<path d="M3117 3452 c-9 -10 -17 -22 -17 -27 0 -5 6 -1 13 10 10 12 22 16 41
13 17 -4 25 -1 23 6 -6 19 -42 18 -60 -2z"/>
<path d="M3591 3452 c-1 -15 -5 -21 -13 -16 -10 5 -10 4 -1 -6 17 -18 26 -8
20 22 l-4 23 -2 -23z"/>
<path d="M3661 3442 c1 -17 3 -21 6 -9 2 9 8 17 13 17 5 0 11 -8 13 -17 4 -14
5 -14 6 3 1 14 -6 24 -19 27 -16 4 -20 0 -19 -21z"/>
<path d="M3770 3464 c0 -6 6 -19 14 -29 13 -18 14 -18 21 4 4 12 4 25 1 28 -3
4 -6 -2 -6 -13 -1 -19 -1 -19 -15 0 -8 11 -15 15 -15 10z"/>
<path d="M3858 3463 c-19 -5 -25 -33 -8 -33 6 0 10 6 10 13 0 8 3 8 8 1 13
-20 40 -24 38 -6 -1 16 -15 33 -26 31 -3 -1 -13 -3 -22 -6z"/>
<path d="M3988 3464 c-4 -4 -21 -7 -38 -6 -19 0 -30 -4 -30 -13 0 -18 23 -32
28 -17 2 8 8 8 22 0 23 -15 33 -7 28 22 -2 12 -6 19 -10 14z m2 -24 c0 -5 -4
-10 -10 -10 -5 0 -10 5 -10 10 0 6 5 10 10 10 6 0 10 -4 10 -10z"/>
<path d="M4037 3463 c-14 -13 -7 -31 14 -36 15 -4 19 -2 15 10 -3 8 -6 19 -6
24 0 11 -14 12 -23 2z"/>
<path d="M4082 3445 c0 -16 2 -22 5 -12 2 9 2 23 0 30 -3 6 -5 -1 -5 -18z"/>
<path d="M4100 3446 c0 -27 23 -36 36 -15 5 8 9 8 14 -1 9 -15 30 -4 30 15 0
9 -11 13 -29 13 -15 -1 -33 2 -40 6 -7 5 -11 -2 -11 -18z m30 0 c0 -3 -4 -8
-10 -11 -5 -3 -10 -1 -10 4 0 6 5 11 10 11 6 0 10 -2 10 -4z"/>
<path d="M5181 3452 c-1 -15 -5 -21 -13 -16 -10 5 -10 4 -1 -6 17 -18 26 -8
20 22 l-4 23 -2 -23z"/>
<path d="M5251 3443 c1 -18 3 -22 6 -10 4 14 8 16 19 6 9 -8 14 -8 14 -1 0 6
-9 16 -20 22 -18 10 -20 8 -19 -17z"/>
<path d="M5360 3460 c0 -18 17 -47 23 -40 3 3 8 16 11 30 6 19 5 22 -3 10 -10
-13 -12 -13 -21 0 -9 13 -10 13 -10 0z"/>
<path d="M5461 3450 c-1 -19 4 -26 18 -26 12 0 17 6 13 18 -2 10 -8 16 -12 13
-5 -3 -11 1 -13 7 -3 7 -6 2 -6 -12z"/>
<path d="M5567 3463 c-22 -6 -18 -37 6 -41 12 -3 17 3 17 22 0 14 -1 25 -2 25
-2 -1 -11 -3 -21 -6z m13 -17 c0 -3 -4 -8 -10 -11 -5 -3 -10 -1 -10 4 0 6 5
11 10 11 6 0 10 -2 10 -4z"/>
<path d="M2271 3444 c0 -11 3 -14 6 -6 3 7 2 16 -1 19 -3 4 -6 -2 -5 -13z"/>
<path d="M2290 3445 c0 -8 2 -15 4 -15 2 0 6 7 10 15 3 8 1 15 -4 15 -6 0 -10
-7 -10 -15z"/>
<path d="M3614 3449 c-3 -6 -2 -15 4 -21 13 -13 32 -2 32 18 0 16 -26 19 -36
3z m26 -9 c0 -5 -2 -10 -4 -10 -3 0 -8 5 -11 10 -3 6 -1 10 4 10 6 0 11 -4 11
-10z"/>
<path d="M3711 3438 c1 -17 3 -18 6 -5 2 9 8 17 13 17 5 0 11 -8 14 -17 4 -14
4 -14 3 2 -3 30 -37 33 -36 3z"/>
<path d="M3821 3444 c0 -11 3 -14 6 -6 3 7 2 16 -1 19 -3 4 -6 -2 -5 -13z"/>
<path d="M4190 3440 c0 -11 2 -20 4 -20 2 0 6 9 9 20 3 11 1 20 -4 20 -5 0 -9
-9 -9 -20z"/>
<path d="M5202 3443 c2 -10 10 -18 18 -18 8 0 16 8 18 18 2 12 -3 17 -18 17
-15 0 -20 -5 -18 -17z m28 -3 c0 -5 -4 -10 -10 -10 -5 0 -10 5 -10 10 0 6 5
10 10 10 6 0 10 -4 10 -10z"/>
<path d="M5301 3438 c0 -22 1 -22 8 -3 l8 20 5 -20 c5 -18 6 -18 7 3 1 13 -5
22 -14 22 -9 0 -15 -9 -14 -22z"/>
<path d="M5412 3440 c0 -14 2 -19 5 -12 2 6 2 18 0 25 -3 6 -5 1 -5 -13z"/>
<path d="M5430 3440 c0 -11 2 -20 4 -20 2 0 6 9 9 20 3 11 1 20 -4 20 -5 0 -9
-9 -9 -20z"/>
<path d="M5506 3452 c-8 -13 11 -35 23 -28 16 10 14 36 -3 36 -8 0 -17 -4 -20
-8z"/>
<path d="M4264 3429 c-4 -7 -3 -10 3 -6 5 3 22 -5 39 -18 27 -22 27 -24 8 -25
-12 0 -28 -8 -35 -17 -11 -15 -11 -16 1 -5 8 6 25 12 38 12 30 0 25 16 -15 47
-23 18 -33 21 -39 12z"/>
<path d="M4723 3407 l-32 -11 3 -65 c2 -63 1 -68 -31 -99 -22 -22 -33 -27 -33
-17 0 8 4 15 9 15 5 0 9 38 9 85 l1 85 -34 0 c-31 0 -35 -4 -44 -37 -13 -46
-14 -83 -2 -102 10 -16 31 -6 31 15 0 8 3 14 8 14 9 0 14 -69 6 -90 -4 -13 -6
-13 -15 0 -9 13 -10 13 -6 0 2 -8 13 -16 25 -18 24 -4 29 -18 10 -24 -14 -5
60 -58 79 -58 7 0 14 8 15 18 3 36 6 89 7 140 0 30 5 51 10 47 5 -3 12 -1 16
5 3 6 -1 13 -9 16 -9 3 -13 10 -10 16 3 5 12 7 20 4 9 -4 13 1 11 16 -3 28 23
36 30 9 3 -12 12 -21 20 -21 9 0 13 -6 9 -15 -4 -11 2 -15 27 -15 29 0 33 3
35 31 1 16 3 36 5 42 1 7 -12 13 -33 15 -19 1 -51 4 -70 6 -19 2 -49 -1 -67
-7z"/>
<path d="M4940 3365 c0 -38 3 -45 20 -45 22 0 26 23 10 64 -15 40 -30 31 -30
-19z"/>
<path d="M3121 3387 c-6 -6 -11 -16 -11 -22 0 -6 -13 -21 -28 -32 -30 -22 -52
-79 -52 -133 0 -23 9 -41 34 -66 46 -46 72 -45 80 4 9 59 7 97 -9 135 -21 52
-19 74 6 73 12 -1 24 5 26 12 3 8 -2 10 -14 6 -14 -5 -15 -4 -3 4 10 8 18 8
27 0 7 -6 13 -7 13 -2 0 5 5 1 11 -8 7 -12 5 -27 -4 -50 -11 -27 -11 -41 0
-83 7 -27 13 -69 13 -92 0 -24 4 -43 10 -43 21 0 60 24 65 42 4 10 13 18 20
18 8 0 17 5 21 12 5 8 2 9 -10 5 -14 -5 -16 -3 -12 13 3 11 9 29 12 40 3 13 0
20 -8 21 -7 1 -2 5 12 9 21 7 22 8 5 9 -13 1 -28 15 -39 36 -11 19 -24 35 -31
35 -6 0 -24 13 -40 30 -16 16 -30 28 -33 26 -2 -3 -14 -1 -27 4 -14 5 -26 5
-34 -3z m119 -117 c0 -5 -5 -10 -11 -10 -5 0 -7 5 -4 10 3 6 8 10 11 10 2 0 4
-4 4 -10z"/>
<path d="M3350 3376 c0 -2 7 -7 16 -10 8 -3 12 -2 9 4 -6 10 -25 14 -25 6z"/>
<path d="M1571 3345 c0 -16 3 -25 7 -20 4 6 16 12 27 13 30 6 32 12 3 12 -15
0 -29 6 -31 13 -3 6 -6 -1 -6 -18z"/>
<path d="M1645 3340 c3 -5 11 -10 16 -10 6 0 7 5 4 10 -3 6 -11 10 -16 10 -6
0 -7 -4 -4 -10z"/>
<path d="M1589 3318 c0 -2 -2 -12 -4 -23 -5 -26 -27 -65 -36 -65 -5 0 -24 -14
-44 -31 -45 -40 -43 -67 5 -91 50 -26 127 -23 181 5 54 29 62 57 24 84 -15 10
-35 26 -46 36 -18 16 -19 16 -19 -8 0 -25 0 -25 -26 -9 l-26 17 31 24 c37 29
42 50 6 27 -22 -15 -25 -15 -31 -1 -3 9 -3 21 1 27 3 5 1 10 -4 10 -6 0 -11
-1 -12 -2z"/>
<path d="M3358 3223 c7 -3 16 -2 19 1 4 3 -2 6 -13 5 -11 0 -14 -3 -6 -6z"/>
<path d="M2321 3174 c0 -11 3 -14 6 -6 3 7 2 16 -1 19 -3 4 -6 -2 -5 -13z"/>
<path d="M3701 3164 c0 -11 3 -14 6 -6 3 7 2 16 -1 19 -3 4 -6 -2 -5 -13z"/>
<path d="M6062 3093 c2 -10 10 -18 18 -18 8 0 16 8 18 18 2 12 -3 17 -18 17
-15 0 -20 -5 -18 -17z"/>
<path d="M4850 3040 c0 -14 6 -20 16 -18 10 2 19 -3 22 -11 3 -10 -1 -12 -17
-8 -11 3 -21 1 -21 -4 0 -16 40 -10 47 7 6 16 -15 37 -29 28 -4 -3 -8 -1 -8 5
0 5 10 12 23 14 19 4 18 4 -5 6 -22 1 -28 -3 -28 -19z"/>
<path d="M4915 3050 c-3 -5 -1 -10 4 -10 6 0 11 -11 11 -25 0 -14 5 -25 10
-25 6 0 10 16 10 35 0 34 -20 49 -35 25z"/>
<path d="M4972 3044 c-15 -26 -3 -54 23 -54 14 0 25 7 28 19 6 23 -9 51 -28
51 -8 0 -18 -7 -23 -16z m38 -19 c0 -16 -6 -25 -15 -25 -9 0 -15 9 -15 25 0
16 6 25 15 25 9 0 15 -9 15 -25z"/>
<path d="M5060 3025 c0 -32 3 -35 28 -34 16 1 20 3 10 6 -10 2 -18 8 -18 13 0
5 8 11 18 13 16 4 16 5 0 6 -10 0 -18 5 -18 10 0 5 8 12 18 14 10 3 6 5 -10 6
-25 1 -28 -2 -28 -34z"/>
<path d="M5293 3025 c0 -22 2 -30 4 -17 2 12 2 30 0 40 -3 9 -5 -1 -4 -23z"/>
<path d="M5131 3013 c2 -23 2 -24 6 -5 2 12 9 22 14 22 5 0 9 -10 10 -22 0
-22 1 -22 11 2 11 25 11 25 15 3 3 -13 9 -23 14 -23 6 0 9 10 7 23 -2 18 -10
23 -40 25 -36 3 -38 2 -37 -25z"/>
<path d="M5220 3005 c0 -19 5 -35 10 -35 6 0 10 5 10 10 0 6 6 10 14 10 8 0
16 6 18 13 9 22 -3 37 -28 37 -21 0 -24 -5 -24 -35z m40 10 c0 -8 -4 -15 -10
-15 -5 0 -10 7 -10 15 0 8 5 15 10 15 6 0 10 -7 10 -15z"/>
<path d="M5317 3027 c-8 -21 8 -39 29 -35 27 5 25 42 -2 46 -12 2 -24 -3 -27
-11z m33 -12 c0 -8 -4 -15 -10 -15 -5 0 -10 7 -10 15 0 8 5 15 10 15 6 0 10
-7 10 -15z"/>
<path d="M5384 3005 c1 -36 20 -48 29 -17 2 9 8 25 12 35 4 10 3 17 -4 17 -6
0 -11 -8 -11 -17 -1 -17 -1 -17 -14 -1 -11 15 -12 13 -12 -17z"/>
<path d="M5440 3016 c0 -20 5 -26 23 -25 21 0 21 1 2 9 -19 8 -19 9 3 9 29 1
24 25 -6 29 -18 3 -22 -2 -22 -22z"/>
<path d="M5500 3030 c0 -6 8 -14 17 -17 15 -6 15 -7 -3 -14 -18 -7 -17 -8 3
-8 27 -1 40 17 18 25 -13 6 -14 8 -3 15 9 6 7 9 -9 9 -13 0 -23 -5 -23 -10z"/>
<path d="M1479 3018 c-1 -7 -3 -30 -5 -50 l-3 -38 58 0 c32 0 99 -3 149 -6
l92 -7 0 57 0 56 -145 0 c-109 0 -145 -3 -146 -12z m179 -33 c32 -11 -4 -25
-63 -25 -61 0 -83 9 -70 29 5 9 103 6 133 -4z"/>
<path d="M3060 2982 l0 -49 141 -7 c77 -3 145 -4 150 -1 5 4 9 28 9 56 l0 49
-150 0 -150 0 0 -48z m194 -3 c6 -5 2 -11 -9 -15 -12 -5 -20 -3 -23 5 -3 8 -7
9 -11 3 -3 -6 -26 -12 -51 -13 -39 -3 -45 -1 -48 17 -3 20 0 21 65 17 37 -3
72 -9 77 -14z"/>
<path d="M4657 3023 c-3 -5 -7 -26 -9 -48 -3 -40 -3 -40 35 -43 27 -2 37 1 37
12 0 8 -6 16 -12 19 -10 3 -10 9 0 26 6 11 12 25 12 31 0 11 -56 14 -63 3z"/>
<path d="M3691 2974 c0 -11 3 -14 6 -6 3 7 2 16 -1 19 -3 4 -6 -2 -5 -13z"/>
<path d="M3800 2980 c-12 -7 -10 -9 7 -7 12 0 19 5 17 9 -6 10 -6 10 -24 -2z"/>
<path d="M3851 2974 c0 -11 3 -14 6 -6 3 7 2 16 -1 19 -3 4 -6 -2 -5 -13z"/>
<path d="M5373 2685 c-21 -15 -23 -24 -23 -109 0 -58 4 -96 12 -104 8 -8 52
-12 130 -12 l118 0 11 28 c14 36 8 177 -9 194 -8 8 -48 14 -115 16 -81 3 -107
0 -124 -13z m136 -68 c0 -9 -2 -8 -6 1 -2 6 -10 9 -15 6 -7 -4 -8 -2 -4 5 9
13 26 5 25 -12z m-73 -68 c10 -17 -13 -36 -27 -22 -12 12 -4 33 11 33 5 0 12
-5 16 -11z m101 -21 c-3 -8 -6 -5 -6 6 -1 11 2 17 5 13 3 -3 4 -12 1 -19z"/>
<path d="M2100 2613 c0 -22 2 -25 10 -13 9 13 11 13 20 0 9 -13 10 -13 10 0 0
8 -9 21 -20 28 -18 11 -20 10 -20 -15z"/>
<path d="M2320 2615 c0 -14 6 -25 13 -25 8 0 14 6 14 13 0 7 -6 18 -14 25 -11
10 -13 8 -13 -13z"/>
<path d="M2430 2630 c0 -5 -7 -10 -15 -10 -8 0 -15 -7 -15 -15 0 -8 9 -15 20
-15 15 0 20 7 20 25 0 14 -2 25 -5 25 -3 0 -5 -4 -5 -10z"/>
<path d="M3661 2615 c-1 -23 2 -27 9 -15 9 13 11 13 20 0 8 -13 10 -12 10 3 0
9 -6 17 -14 17 -8 0 -17 6 -19 13 -3 6 -6 -1 -6 -18z"/>
<path d="M3870 2617 c0 -14 6 -24 15 -24 8 0 15 4 15 9 0 5 -7 16 -15 24 -13
14 -15 13 -15 -9z"/>
<path d="M3990 2629 c0 -5 -4 -8 -9 -4 -5 3 -13 1 -16 -5 -5 -8 -11 -8 -20 0
-9 7 -16 6 -24 -4 -15 -18 -6 -23 42 -24 33 -1 37 1 37 23 0 14 -2 25 -5 25
-3 0 -5 -5 -5 -11z"/>
<path d="M2028 2612 c-4 -15 1 -18 28 -19 21 -1 34 4 34 11 0 20 -12 27 -27
15 -9 -9 -13 -8 -13 0 0 18 -17 13 -22 -7z"/>
<path d="M2163 2623 c-7 -3 -13 -12 -13 -21 0 -15 2 -15 10 -2 9 13 11 13 20
0 8 -13 10 -13 10 2 0 20 -10 27 -27 21z"/>
<path d="M2217 2611 c7 -26 19 -27 33 -1 7 14 7 20 0 20 -5 0 -10 -5 -10 -11
0 -8 -4 -8 -14 0 -12 10 -13 8 -9 -8z"/>
<path d="M2366 2623 c-12 -12 -6 -33 9 -33 8 0 15 6 15 14 0 17 -14 28 -24 19z"/>
<path d="M3172 2618 c-21 -28 -21 -54 1 -93 l23 -40 -40 -20 c-52 -26 -93
-100 -70 -126 8 -9 12 -23 8 -32 -3 -9 4 -25 16 -37 20 -20 30 -22 85 -18 63
6 125 32 125 54 0 7 9 15 19 19 28 9 34 38 17 79 -16 38 -70 73 -89 58 -41
-31 -71 -16 -35 17 12 12 16 21 9 21 -7 0 -11 6 -8 13 2 6 -5 25 -16 40 -13
20 -16 32 -9 39 14 14 31 2 27 -20 -1 -9 0 -11 2 -4 3 7 9 10 14 7 11 -8 11
-3 -1 29 -7 20 -17 26 -39 26 -15 0 -33 -6 -39 -12z"/>
<path d="M3590 2616 c0 -8 -6 -17 -12 -19 -8 -3 -6 -6 5 -6 11 -1 17 6 17 19
0 11 -2 20 -5 20 -3 0 -5 -6 -5 -14z"/>
<path d="M3623 2623 c-21 -7 -15 -33 7 -33 11 0 20 6 20 14 0 18 -11 25 -27
19z"/>
<path d="M3770 2625 c0 -5 5 -17 10 -25 9 -13 11 -13 20 0 5 8 10 20 10 25 0
6 -5 3 -10 -5 -9 -13 -11 -13 -20 0 -5 8 -10 11 -10 5z"/>
<path d="M5767 2623 c-4 -3 -7 -226 -7 -494 l0 -489 25 -6 c56 -14 55 -24 55
495 0 358 -3 480 -12 489 -13 13 -50 16 -61 5z"/>
<path d="M1686 2605 c-3 -8 -12 -15 -20 -15 -10 0 -13 -6 -9 -15 4 -13 -1 -15
-34 -9 -45 7 -73 -12 -73 -49 1 -20 2 -20 16 6 8 15 23 27 34 27 23 0 35 -16
18 -23 -9 -3 -7 -10 7 -21 20 -17 20 -17 -1 -11 -14 4 -21 1 -21 -10 0 -9 6
-14 14 -11 8 4 11 1 7 -5 -3 -6 -17 -9 -30 -6 -26 5 -30 -3 -12 -21 7 -7 8
-12 2 -12 -16 0 -47 78 -42 105 4 19 0 24 -20 28 -32 6 -56 -15 -39 -32 9 -10
6 -11 -14 -6 -41 10 -51 -11 -38 -78 9 -45 9 -60 -2 -73 -10 -12 -10 -17 0
-23 7 -5 12 -12 11 -17 -1 -5 3 -10 9 -12 6 -2 11 3 11 12 0 9 6 16 13 16 7 0
12 -14 12 -37 0 -34 3 -39 35 -50 79 -27 164 -8 227 49 32 30 63 102 63 148 0
44 -23 110 -39 110 -5 0 -12 8 -14 18 -3 10 -5 7 -6 -10 l-1 -27 -25 23 c-26
24 -34 43 -13 30 7 -4 8 -3 4 4 -10 16 -23 15 -30 -3z m84 -125 c0 -5 -8 -10
-17 -10 -15 0 -16 2 -3 10 19 12 20 12 20 0z m-210 -91 c0 -6 -4 -7 -10 -4 -5
3 -10 1 -10 -6 0 -7 -3 -10 -6 -6 -10 10 5 39 16 32 5 -3 10 -11 10 -16z m40
12 c0 -6 -4 -13 -10 -16 -5 -3 -10 1 -10 9 0 9 5 16 10 16 6 0 10 -4 10 -9z
m52 -43 c-7 -7 -12 -8 -12 -2 0 6 3 14 7 17 3 4 9 5 12 2 2 -3 -1 -11 -7 -17z
m-109 -23 c-3 -9 -8 -14 -10 -11 -3 3 -2 9 2 15 9 16 15 13 8 -4z"/>
<path d="M2271 2604 c0 -11 3 -14 6 -6 3 7 2 16 -1 19 -3 4 -6 -2 -5 -13z"/>
<path d="M2290 2605 c0 -8 2 -15 4 -15 2 0 6 7 10 15 3 8 1 15 -4 15 -6 0 -10
-7 -10 -15z"/>
<path d="M3711 2604 c0 -11 3 -14 6 -6 3 7 2 16 -1 19 -3 4 -6 -2 -5 -13z"/>
<path d="M3730 2606 c0 -9 5 -16 10 -16 6 0 10 4 10 9 0 6 -4 13 -10 16 -5 3
-10 -1 -10 -9z"/>
<path d="M3821 2604 c0 -11 3 -14 6 -6 3 7 2 16 -1 19 -3 4 -6 -2 -5 -13z"/>
<path d="M3840 2605 c0 -8 2 -15 4 -15 2 0 6 7 10 15 3 8 1 15 -4 15 -6 0 -10
-7 -10 -15z"/>
<path d="M4722 2600 c0 -14 2 -19 5 -12 2 6 2 18 0 25 -3 6 -5 1 -5 -13z"/>
<path d="M1580 2520 c0 -5 5 -10 10 -10 6 0 10 5 10 10 0 6 -4 10 -10 10 -5 0
-10 -4 -10 -10z"/>
<path d="M1387 2465 c2 -8 11 -11 19 -8 16 6 11 16 -11 19 -8 1 -11 -4 -8 -11z"/>
<path d="M1406 2415 c4 -8 8 -15 10 -15 2 0 4 7 4 15 0 8 -4 15 -10 15 -5 0
-7 -7 -4 -15z"/>
<path d="M5370 2006 l0 -366 27 -6 c52 -13 54 -4 51 381 l-3 350 -37 3 -38 3
0 -365z"/>
<path d="M2321 2334 c0 -11 3 -14 6 -6 3 7 2 16 -1 19 -3 4 -6 -2 -5 -13z"/>
<path d="M3571 2334 c0 -11 3 -14 6 -6 3 7 2 16 -1 19 -3 4 -6 -2 -5 -13z"/>
<path d="M3641 2324 c0 -11 3 -14 6 -6 3 7 2 16 -1 19 -3 4 -6 -2 -5 -13z"/>
<path d="M4980 1985 l0 -345 27 -6 c51 -13 53 -1 53 347 0 175 -3 324 -6 333
-4 10 -18 16 -40 16 l-34 0 0 -345z"/>
<path d="M2200 2247 c0 -2 6 -10 14 -16 11 -9 16 -9 22 1 4 7 4 10 -1 6 -4 -4
-14 -3 -22 3 -7 6 -13 9 -13 6z"/>
<path d="M3571 2234 c0 -11 3 -14 6 -6 3 7 2 16 -1 19 -3 4 -6 -2 -5 -13z"/>
<path d="M3596 2235 c4 -8 8 -15 10 -15 2 0 4 7 4 15 0 8 -4 15 -10 15 -5 0
-7 -7 -4 -15z"/>
<path d="M1480 2178 c0 -7 -3 -30 -6 -50 l-7 -38 152 0 151 0 0 50 0 50 -145
0 c-109 0 -145 -3 -145 -12z m185 -38 c0 -12 -15 -16 -67 -18 -62 -3 -68 -1
-68 16 0 18 7 20 68 18 52 -1 67 -4 67 -16z"/>
<path d="M3069 2183 c0 -5 -2 -27 -5 -50 l-6 -43 151 0 151 0 0 50 0 50 -145
0 c-80 0 -145 -3 -146 -7z m91 -23 c0 -4 20 -5 45 -4 39 2 45 0 45 -17 0 -21
-29 -27 -31 -6 0 10 -2 10 -6 0 -3 -8 -24 -13 -54 -13 -41 0 -49 3 -49 18 0
10 2 21 5 23 6 7 45 6 45 -1z"/>
<path d="M4656 2168 c-3 -13 -6 -35 -6 -50 0 -25 3 -28 35 -28 37 0 43 8 23
28 -10 10 -10 17 0 32 19 30 15 40 -17 40 -21 0 -30 -6 -35 -22z"/>
<path d="M3572 2140 c0 -14 2 -19 5 -12 2 6 2 18 0 25 -3 6 -5 1 -5 -13z"/>
<path d="M3691 2144 c0 -11 3 -14 6 -6 3 7 2 16 -1 19 -3 4 -6 -2 -5 -13z"/>
<path d="M6157 2094 c-4 -4 -7 -108 -7 -230 l0 -224 25 -6 c53 -13 56 -1 53
240 l-3 221 -30 3 c-17 2 -34 0 -38 -4z"/>
<path d="M3134 1830 c-165 -39 -220 -255 -92 -365 62 -52 144 -72 156 -36 3 9
-2 11 -19 7 -13 -3 -18 -3 -11 0 6 3 12 20 12 37 -1 28 -2 30 -11 13 -11 -17
-12 -17 -25 5 -7 13 -16 31 -20 39 -13 26 -38 40 -46 27 -5 -8 -8 -4 -8 9 0
20 18 41 49 59 10 6 12 4 6 -5 -6 -10 -2 -12 16 -7 13 4 27 7 31 7 4 0 5 6 2
14 -3 7 2 16 12 20 13 5 14 9 5 20 -7 8 -9 25 -5 40 4 16 1 32 -7 42 -10 13
-10 17 2 25 8 5 19 7 24 6 19 -6 34 -52 29 -88 -6 -33 -4 -36 35 -53 47 -22
52 -33 52 -116 0 -33 5 -60 9 -60 16 0 59 83 66 127 16 100 -63 210 -167 232
-55 12 -51 12 -95 1z m46 -94 c0 -3 -4 -8 -10 -11 -5 -3 -10 -1 -10 4 0 6 5
11 10 11 6 0 10 -2 10 -4z m-96 -211 c3 -8 1 -15 -4 -15 -6 0 -10 7 -10 15 0
8 2 15 4 15 2 0 6 -7 10 -15z m-2 -47 c-4 -18 -5 -18 -18 -1 -21 28 -18 46 5
32 11 -8 16 -19 13 -31z"/>
<path d="M2035 1775 c-5 -11 -9 -22 -11 -26 -1 -3 13 -6 32 -6 27 -1 34 3 34
18 0 21 -30 27 -31 7 0 -7 -4 -4 -9 7 l-8 20 -7 -20z"/>
<path d="M2101 1762 c1 -17 3 -21 6 -9 2 9 8 17 13 17 5 0 11 -8 13 -17 4 -14
5 -14 6 3 1 14 -6 24 -19 27 -16 4 -20 0 -19 -21z"/>
<path d="M2216 1770 c4 -14 8 -27 10 -29 6 -7 22 10 27 31 5 20 5 21 -7 6 -11
-15 -13 -15 -24 0 -11 15 -11 13 -6 -8z"/>
<path d="M2321 1769 c-1 -15 4 -26 12 -26 7 0 13 8 13 18 0 10 -3 16 -7 13 -4
-2 -10 2 -12 8 -3 7 -6 1 -6 -13z"/>
<path d="M2420 1780 c-8 -5 -25 -7 -37 -3 -19 4 -23 1 -23 -16 0 -14 6 -21 18
-20 10 0 12 3 5 6 -7 2 -13 9 -13 14 0 6 13 2 30 -7 33 -20 43 -16 38 15 -2
15 -7 18 -18 11z m10 -20 c0 -5 -4 -10 -10 -10 -5 0 -10 5 -10 10 0 6 5 10 10
10 6 0 10 -4 10 -10z"/>
<path d="M2151 1758 c1 -17 3 -18 6 -5 2 9 8 17 13 17 5 0 11 -8 14 -17 4 -14
4 -14 3 2 -3 30 -37 33 -36 3z"/>
<path d="M2272 1760 c0 -14 2 -19 5 -12 2 6 2 18 0 25 -3 6 -5 1 -5 -13z"/>
<path d="M2290 1760 c0 -11 2 -20 4 -20 2 0 6 9 9 20 3 11 1 20 -4 20 -5 0 -9
-9 -9 -20z"/>
<path d="M3591 1762 c-1 -15 -5 -21 -13 -16 -10 5 -10 4 -1 -6 17 -18 26 -8
20 22 l-4 23 -2 -23z"/>
<path d="M3661 1752 c1 -17 3 -21 6 -9 2 9 8 17 13 17 5 0 11 -8 13 -17 4 -14
5 -14 6 3 1 14 -6 24 -19 27 -16 4 -20 0 -19 -21z"/>
<path d="M3770 1774 c0 -5 6 -19 14 -29 13 -18 14 -18 21 4 4 12 4 25 1 28 -3
4 -6 -2 -6 -12 0 -18 -1 -18 -15 1 -8 10 -15 14 -15 8z"/>
<path d="M3858 1773 c-19 -5 -25 -33 -8 -33 6 0 10 6 10 13 0 8 3 8 8 1 13
-20 40 -24 38 -6 -1 16 -15 33 -26 31 -3 -1 -13 -3 -22 -6z"/>
<path d="M3988 1774 c-4 -4 -21 -7 -38 -6 -19 0 -30 -4 -30 -13 0 -18 23 -32
28 -17 2 8 8 8 22 0 23 -15 33 -7 28 22 -2 12 -6 19 -10 14z m2 -24 c0 -5 -4
-10 -10 -10 -5 0 -10 5 -10 10 0 6 5 10 10 10 6 0 10 -4 10 -10z"/>
<path d="M3614 1759 c-8 -14 11 -33 25 -25 16 10 13 36 -3 36 -8 0 -18 -5 -22
-11z m26 -9 c0 -5 -2 -10 -4 -10 -3 0 -8 5 -11 10 -3 6 -1 10 4 10 6 0 11 -4
11 -10z"/>
<path d="M3711 1748 c1 -17 3 -18 6 -5 5 19 19 23 26 7 3 -6 4 -5 3 2 -1 7
-10 14 -19 16 -12 3 -17 -3 -16 -20z"/>
<path d="M3821 1754 c0 -11 3 -14 6 -6 3 7 2 16 -1 19 -3 4 -6 -2 -5 -13z"/>
<path d="M1556 1734 c-20 -19 -30 -57 -24 -89 3 -14 1 -25 -4 -25 -5 0 -6 -4
-3 -10 3 -5 2 -10 -4 -10 -5 0 -13 -9 -16 -20 -3 -11 -12 -20 -20 -20 -7 0
-15 -7 -19 -15 -3 -8 -11 -14 -18 -13 -19 5 -21 -31 -3 -58 39 -59 161 -81
243 -44 51 23 54 45 13 89 -16 17 -25 31 -19 31 5 0 6 5 3 10 -3 6 -3 10 2 10
15 0 14 89 -2 120 -27 51 -98 76 -129 44z m58 -60 c24 -23 19 -50 -11 -72 -25
-17 -30 -18 -42 -5 -12 13 -11 14 9 8 16 -5 20 -4 15 5 -4 7 2 18 15 27 17 12
19 17 9 24 -16 10 -35 12 -26 2 9 -9 -12 -33 -29 -33 -8 0 -14 7 -14 16 0 10
5 14 16 10 8 -3 12 -2 9 4 -17 28 24 40 49 14z m27 -67 c-10 -9 -11 -8 -5 6 3
10 9 15 12 12 3 -3 0 -11 -7 -18z m-11 -52 c0 -36 -15 -44 -54 -29 -23 9 -21
43 2 37 10 -2 24 3 31 11 19 22 21 20 21 -19z"/>
<path d="M4690 1641 c-25 -29 -80 -50 -80 -31 0 5 -7 10 -16 10 -8 0 -13 4
-10 8 2 4 0 14 -5 22 -7 11 -9 -4 -7 -47 6 -93 65 -167 152 -189 27 -6 28 -6
15 17 -9 16 -12 58 -11 132 1 59 -1 107 -6 107 -4 0 -19 -13 -32 -29z"/>
<path d="M3196 1631 c-4 -7 -5 -15 -2 -18 9 -9 19 4 14 18 -4 11 -6 11 -12 0z"/>
<path d="M3283 1484 c1 -28 6 -40 15 -37 15 6 15 4 -3 44 l-14 34 2 -41z"/>
<path d="M2321 1484 c0 -11 3 -14 6 -6 3 7 2 16 -1 19 -3 4 -6 -2 -5 -13z"/>
<path d="M3701 1474 c0 -11 3 -14 6 -6 3 7 2 16 -1 19 -3 4 -6 -2 -5 -13z"/>
<path d="M2205 1390 c3 -4 14 -10 25 -13 11 -3 18 -2 15 3 -3 4 -14 10 -25 13
-11 3 -18 2 -15 -3z"/>
<path d="M5161 1384 c0 -11 3 -14 6 -6 3 7 2 16 -1 19 -3 4 -6 -2 -5 -13z"/>
<path d="M5191 1384 c0 -11 3 -14 6 -6 3 7 2 16 -1 19 -3 4 -6 -2 -5 -13z"/>
<path d="M5340 1387 c0 -8 7 -14 15 -14 11 0 12 4 4 14 -6 7 -13 13 -15 13 -2
0 -4 -6 -4 -13z"/>
<path d="M5280 1380 c0 -5 5 -10 11 -10 5 0 7 5 4 10 -3 6 -8 10 -11 10 -2 0
-4 -4 -4 -10z"/>
<path d="M3067 1343 c-4 -3 -7 -26 -7 -50 l0 -43 150 0 150 0 0 50 0 50 -143
0 c-79 0 -147 -3 -150 -7z m184 -40 c10 -10 9 -14 -5 -19 -11 -4 -22 -1 -27 7
-6 10 -9 10 -9 2 0 -9 -17 -13 -50 -13 -42 0 -50 3 -50 19 0 16 8 18 65 17 35
0 69 -6 76 -13z"/>
<path d="M4656 1334 c-3 -9 -6 -31 -6 -50 l0 -34 150 0 150 0 0 50 0 50 -144
0 c-122 0 -145 -2 -150 -16z m182 -36 c2 -11 -3 -18 -12 -18 -9 0 -16 6 -17
13 0 10 -2 10 -6 0 -3 -8 -24 -13 -54 -13 -42 0 -49 3 -49 19 0 17 7 19 67 18
56 -2 68 -5 71 -19z"/>
<path d="M1480 1328 c0 -7 -3 -30 -6 -50 l-7 -38 152 0 151 0 0 50 0 50 -145
0 c-109 0 -145 -3 -145 -12z m184 -28 c19 -18 -9 -30 -70 -30 -61 0 -64 1 -64
24 0 24 2 25 63 19 34 -3 66 -9 71 -13z"/>
<path d="M2291 1294 c0 -11 3 -14 6 -6 3 7 2 16 -1 19 -3 4 -6 -2 -5 -13z"/>
<path d="M2101 1284 c0 -11 3 -14 6 -6 3 7 2 16 -1 19 -3 4 -6 -2 -5 -13z"/>
<path d="M3601 1284 c0 -11 3 -14 6 -6 3 7 2 16 -1 19 -3 4 -6 -2 -5 -13z"/>
<path d="M3691 1284 c0 -11 3 -14 6 -6 3 7 2 16 -1 19 -3 4 -6 -2 -5 -13z"/>
<path d="M3851 1284 c0 -11 3 -14 6 -6 3 7 2 16 -1 19 -3 4 -6 -2 -5 -13z"/>
<path d="M5451 1284 c0 -11 3 -14 6 -6 3 7 2 16 -1 19 -3 4 -6 -2 -5 -13z"/>
<path d="M5241 1274 c0 -11 3 -14 6 -6 3 7 2 16 -1 19 -3 4 -6 -2 -5 -13z"/>
<path d="M1617 980 c-28 -33 -37 -58 -38 -107 -1 -26 -4 -61 -8 -78 -6 -28 -7
-28 -13 -7 -8 27 -28 29 -28 2 0 -11 -7 -20 -15 -20 -8 0 -15 5 -15 10 0 6 5
10 10 10 6 0 10 4 10 10 0 16 -48 -11 -66 -38 -11 -17 -13 -27 -5 -35 15 -15
14 -40 -1 -30 -43 26 -52 -9 -11 -44 30 -27 43 -29 43 -8 0 8 5 15 11 15 5 0
7 5 4 10 -3 6 1 10 11 10 11 0 15 -6 11 -20 -3 -11 -1 -23 4 -26 5 -3 9 -17 9
-31 0 -22 2 -24 15 -13 12 10 21 10 41 1 28 -12 84 -15 84 -3 0 4 -7 15 -14
25 -15 19 -10 57 6 57 5 0 6 5 3 10 -10 16 7 12 29 -7 12 -11 9 -4 -7 16 -21
25 -25 37 -17 46 8 10 8 15 -1 20 -7 5 -9 22 -6 46 6 43 -11 65 -43 56 -23 -6
-24 -3 -11 22 8 14 22 17 73 16 57 -1 63 -4 69 -26 l6 -24 8 27 c10 37 3 51
-38 82 -51 39 -91 48 -110 26z m33 -176 c0 -3 -6 -12 -14 -20 -13 -12 -17 -10
-30 18 -21 41 -21 41 14 23 17 -9 30 -18 30 -21z m-123 -50 c28 -8 19 -34 -10
-29 -11 3 -24 10 -29 17 -6 10 -8 10 -8 0 0 -7 -4 -10 -10 -7 -31 19 7 32 57
19z m-9 -52 c2 -7 -5 -12 -15 -11 -12 0 -14 2 -4 6 11 5 11 7 0 15 -12 8 -12
9 0 6 8 -3 17 -10 19 -16z m43 -44 c0 -10 2 -10 5 -1 7 16 34 5 34 -13 0 -8
-4 -14 -9 -14 -20 0 -61 20 -61 30 0 15 30 12 31 -2z m39 -42 c0 -11 -19 -15
-25 -6 -3 5 1 10 9 10 9 0 16 -2 16 -4z"/>
<path d="M3125 990 c-19 -8 -19 -9 3 -9 12 -1 25 -1 29 -2 4 0 9 4 11 10 4 13
-15 13 -43 1z"/>
<path d="M3185 990 c3 -5 12 -10 20 -10 7 0 15 -6 18 -12 3 -10 8 -10 22 2 17
14 16 15 -6 21 -37 11 -61 10 -54 -1z"/>
<path d="M4701 987 c-51 -16 -108 -79 -126 -140 -31 -103 20 -213 120 -258
135 -62 295 45 295 197 -1 148 -144 247 -289 201z m44 -67 c-28 -12 -45 -12
-45 0 0 6 15 10 33 9 27 0 29 -2 12 -9z m22 -33 c4 -5 -9 -7 -29 -5 -20 1 -34
6 -32 10 6 10 50 6 61 -5z m-27 -37 c0 -5 -5 -10 -11 -10 -5 0 -7 5 -4 10 3 6
8 10 11 10 2 0 4 -4 4 -10z"/>
<path d="M3066 969 c-11 -7 -14 -14 -8 -18 7 -4 8 -12 2 -21 -7 -10 -10 -11
-10 -2 0 6 -5 12 -11 12 -5 0 -8 -4 -5 -9 3 -5 -3 -11 -14 -14 -35 -9 -22 -27
20 -27 43 0 52 -18 26 -52 -16 -22 -27 -23 -20 -3 8 21 -48 15 -64 -8 -12 -16
-11 -21 4 -38 10 -11 20 -16 23 -12 15 20 73 53 82 47 6 -3 9 -17 6 -30 -4
-21 -1 -24 17 -18 11 4 27 11 34 16 8 7 12 7 12 0 0 -6 6 -9 13 -6 16 6 22 84
7 84 -5 0 -10 7 -10 16 0 12 7 15 30 12 31 -5 34 -1 24 26 -7 18 -54 22 -71 5
-7 -7 -15 -5 -28 7 -14 15 -18 15 -26 3 -7 -10 -8 -6 -5 14 5 29 1 32 -28 16z
m97 -127 c4 8 6 7 6 -4 1 -26 -26 -22 -32 5 -6 20 -5 21 7 4 11 -14 15 -15 19
-5z"/>
<path d="M2027 925 c-3 -16 0 -24 7 -22 14 4 21 47 8 47 -5 0 -12 -11 -15 -25z"/>
<path d="M2101 922 c1 -17 3 -21 6 -9 2 9 8 17 13 17 5 0 11 -8 13 -17 4 -14
5 -14 6 3 1 14 -6 24 -19 27 -16 4 -20 0 -19 -21z"/>
<path d="M2210 944 c0 -16 26 -48 32 -38 13 23 16 44 8 44 -6 0 -10 -8 -10
-17 0 -15 -2 -14 -15 3 -8 10 -15 14 -15 8z"/>
<path d="M2321 929 c-1 -15 4 -26 12 -26 7 0 13 8 13 18 0 10 -3 16 -7 13 -4
-2 -10 2 -12 8 -3 7 -6 1 -6 -13z"/>
<path d="M2420 940 c-8 -5 -25 -7 -37 -3 -19 4 -23 1 -23 -16 0 -14 6 -21 18
-20 10 0 12 3 5 6 -7 2 -13 9 -13 14 0 6 13 2 30 -7 33 -20 43 -16 38 15 -2
15 -7 18 -18 11z m10 -20 c0 -5 -4 -10 -10 -10 -5 0 -10 5 -10 10 0 6 5 10 10
10 6 0 10 -4 10 -10z"/>
<path d="M2060 920 c0 -11 7 -20 15 -20 8 0 15 9 15 20 0 11 -7 20 -15 20 -8
0 -15 -9 -15 -20z"/>
<path d="M2151 918 c1 -17 3 -18 6 -5 2 9 8 17 13 17 5 0 11 -8 14 -17 4 -14
4 -14 3 2 -3 30 -37 33 -36 3z"/>
<path d="M2272 920 c0 -14 2 -19 5 -12 2 6 2 18 0 25 -3 6 -5 1 -5 -13z"/>
<path d="M2290 920 c0 -11 2 -20 4 -20 2 0 6 9 9 20 3 11 1 20 -4 20 -5 0 -9
-9 -9 -20z"/>
<path d="M3591 922 c-1 -15 -5 -21 -13 -16 -10 5 -10 4 -1 -6 17 -18 26 -8 20
22 l-4 23 -2 -23z"/>
<path d="M3661 912 c1 -17 3 -21 6 -9 2 9 8 17 13 17 5 0 11 -8 13 -17 4 -14
5 -14 6 3 1 14 -6 24 -19 27 -16 4 -20 0 -19 -21z"/>
<path d="M3770 934 c0 -6 6 -19 14 -29 13 -18 14 -18 21 4 4 12 4 25 1 28 -3
4 -6 -2 -6 -13 -1 -19 -1 -19 -15 0 -8 11 -15 15 -15 10z"/>
<path d="M3858 933 c-19 -5 -25 -33 -8 -33 6 0 10 6 10 13 0 8 3 8 8 1 13 -20
40 -24 38 -6 -1 16 -15 33 -26 31 -3 -1 -13 -3 -22 -6z"/>
<path d="M3988 934 c-4 -4 -21 -7 -38 -6 -19 0 -30 -4 -30 -13 0 -18 23 -32
28 -17 2 8 8 8 22 0 23 -15 33 -7 28 22 -2 12 -6 19 -10 14z m2 -24 c0 -5 -4
-10 -10 -10 -5 0 -10 5 -10 10 0 6 5 10 10 10 6 0 10 -4 10 -10z"/>
<path d="M5181 922 c-1 -15 -5 -21 -13 -16 -7 5 -8 3 -3 -5 10 -18 28 2 22 25
-4 15 -5 14 -6 -4z"/>
<path d="M5251 913 c1 -18 3 -22 6 -10 4 14 8 16 19 6 9 -8 14 -8 14 -1 0 6
-9 16 -20 22 -18 10 -20 8 -19 -17z"/>
<path d="M5360 930 c0 -18 17 -47 23 -40 3 3 8 16 11 30 6 19 5 22 -3 10 -10
-13 -12 -13 -21 0 -9 13 -10 13 -10 0z"/>
<path d="M5448 932 c-11 -2 -18 -12 -17 -25 1 -17 2 -18 6 -4 5 20 23 23 23 4
0 -21 74 -16 78 6 2 10 -3 17 -12 17 -8 0 -20 -8 -25 -17 -10 -17 -10 -17 -11
0 0 10 -4 16 -9 13 -5 -4 -11 -3 -13 2 -1 4 -11 6 -20 4z"/>
<path d="M5567 933 c-22 -6 -18 -37 6 -41 12 -3 17 3 17 22 0 14 -1 25 -2 25
-2 -1 -11 -3 -21 -6z m13 -17 c0 -3 -4 -8 -10 -11 -5 -3 -10 -1 -10 4 0 6 5
11 10 11 6 0 10 -2 10 -4z"/>
<path d="M3614 919 c-8 -14 11 -33 25 -25 16 10 13 36 -3 36 -8 0 -18 -5 -22
-11z m26 -9 c0 -5 -2 -10 -4 -10 -3 0 -8 5 -11 10 -3 6 -1 10 4 10 6 0 11 -4
11 -10z"/>
<path d="M3711 908 c1 -17 3 -18 6 -5 5 19 19 23 26 7 3 -6 4 -5 3 2 -1 7 -10
14 -19 16 -12 3 -17 -3 -16 -20z"/>
<path d="M3821 914 c0 -11 3 -14 6 -6 3 7 2 16 -1 19 -3 4 -6 -2 -5 -13z"/>
<path d="M5202 913 c2 -10 10 -18 18 -18 8 0 16 8 18 18 2 12 -3 17 -18 17
-15 0 -20 -5 -18 -17z m28 -3 c0 -5 -4 -10 -10 -10 -5 0 -10 5 -10 10 0 6 5
10 10 10 6 0 10 -4 10 -10z"/>
<path d="M5301 908 c1 -20 2 -20 6 -4 4 15 7 16 14 5 7 -11 9 -11 9 4 0 9 -7
17 -15 17 -9 0 -15 -9 -14 -22z"/>
<path d="M5412 910 c0 -14 2 -19 5 -12 2 6 2 18 0 25 -3 6 -5 1 -5 -13z"/>
<path d="M3340 905 c0 -8 5 -15 10 -15 16 0 12 -16 -11 -41 l-21 -24 5 23 c3
12 1 20 -4 16 -5 -3 -9 -12 -9 -20 0 -17 -51 -19 -67 -3 -8 8 -13 5 -18 -10
-8 -27 1 -41 29 -41 22 0 56 -27 56 -46 0 -5 11 -27 24 -49 l25 -40 21 49 c18
40 20 50 9 57 -10 6 -11 9 -1 9 20 0 14 41 -8 47 -24 6 -27 23 -4 23 14 0 15
2 3 17 -8 9 -13 18 -12 19 1 2 -1 13 -4 24 -6 23 -23 27 -23 5z m-55 -103 c-3
-3 -11 0 -18 7 -9 10 -8 11 6 5 10 -3 15 -9 12 -12z"/>
<path d="M3310 895 c0 -8 5 -15 10 -15 6 0 10 7 10 15 0 8 -4 15 -10 15 -5 0
-10 -7 -10 -15z"/>
<path d="M1690 825 c0 -19 11 -19 36 0 18 14 18 14 -8 15 -18 0 -28 -5 -28
-15z"/>
<path d="M1723 761 c-9 -14 -16 -31 -16 -37 0 -7 -7 -10 -16 -6 -22 7 -12 -2
30 -31 l36 -24 -13 36 c-12 35 -12 36 13 39 14 2 29 -2 33 -8 5 -8 9 -5 12 8
4 15 2 19 -8 15 -9 -3 -14 2 -14 14 0 28 -37 24 -57 -6z m47 -7 c0 -2 -7 -4
-15 -4 -8 0 -15 4 -15 10 0 5 7 7 15 4 8 -4 15 -8 15 -10z"/>
<path d="M3202 769 c-7 -11 -11 -23 -9 -25 7 -7 29 24 25 36 -2 6 -9 1 -16
-11z"/>
<path d="M1766 715 c-3 -8 -1 -15 4 -15 6 0 10 7 10 15 0 8 -2 15 -4 15 -2 0
-6 -7 -10 -15z"/>
<path d="M2321 644 c0 -11 3 -14 6 -6 3 7 2 16 -1 19 -3 4 -6 -2 -5 -13z"/>
<path d="M3287 635 c-6 -35 -1 -43 15 -27 8 8 8 18 1 34 -10 22 -10 22 -16 -7z"/>
<path d="M3100 636 c0 -8 5 -18 10 -21 6 -3 10 1 10 9 0 8 -4 18 -10 21 -5 3
-10 -1 -10 -9z"/>
<path d="M3701 634 c0 -11 3 -14 6 -6 3 7 2 16 -1 19 -3 4 -6 -2 -5 -13z"/>
<path d="M3250 606 c0 -9 5 -16 10 -16 6 0 10 4 10 9 0 6 -4 13 -10 16 -5 3
-10 -1 -10 -9z"/>
<path d="M3155 580 c26 -11 68 -12 61 -2 -3 5 -22 9 -43 10 -29 0 -33 -2 -18
-8z"/>
<path d="M5161 544 c0 -11 3 -14 6 -6 3 7 2 16 -1 19 -3 4 -6 -2 -5 -13z"/>
<path d="M5280 540 c0 -5 5 -10 11 -10 5 0 7 5 4 10 -3 6 -8 10 -11 10 -2 0
-4 -4 -4 -10z"/>
<path d="M3164 513 c-100 -4 -104 -6 -104 -75 l0 -28 151 0 150 0 -3 53 -3 52
-50 1 c-27 0 -91 -1 -141 -3z m-4 -34 c0 -3 20 -4 45 -2 40 4 45 2 45 -16 0
-12 -7 -21 -15 -21 -8 0 -15 6 -15 13 0 7 -3 8 -8 2 -4 -6 -28 -11 -54 -13
-41 -2 -48 0 -48 16 0 10 2 21 5 23 6 7 45 6 45 -2z"/>
<path d="M1480 498 c0 -7 -3 -30 -6 -50 l-7 -38 152 0 151 0 0 50 0 50 -145 0
c-109 0 -145 -3 -145 -12z m178 -33 c7 -3 10 -9 7 -15 -6 -9 -145 -15 -145 -6
0 28 15 35 68 30 32 -3 63 -7 70 -9z"/>
<path d="M4656 488 c-3 -13 -6 -35 -6 -50 l0 -28 150 0 150 0 0 50 0 50 -144
0 c-141 0 -144 0 -150 -22z m188 -28 c6 -6 3 -12 -8 -16 -11 -4 -22 -1 -27 7
-6 10 -9 10 -9 2 0 -9 -17 -13 -50 -13 -43 0 -50 3 -50 20 0 18 5 19 67 14 37
-3 72 -9 77 -14z"/>
<path d="M2291 454 c0 -11 3 -14 6 -6 3 7 2 16 -1 19 -3 4 -6 -2 -5 -13z"/>
<path d="M3691 444 c0 -11 3 -14 6 -6 3 7 2 16 -1 19 -3 4 -6 -2 -5 -13z"/>
<path d="M3851 444 c0 -11 3 -14 6 -6 3 7 2 16 -1 19 -3 4 -6 -2 -5 -13z"/>
<path d="M5451 444 c0 -11 3 -14 6 -6 3 7 2 16 -1 19 -3 4 -6 -2 -5 -13z"/>
<path d="M5241 434 c0 -11 3 -14 6 -6 3 7 2 16 -1 19 -3 4 -6 -2 -5 -13z"/>
</g>
</svg>
